SplineFontDB: 3.2
FontName: Reijima-Thin
FullName: Reijima Thin
FamilyName: Reijima Thin
Weight: Thin
Copyright: Copyright (c) 2019 by Coji Morishita. All rights reserved.
Version: 1.000
ItalicAngle: 0
UnderlinePosition: -100
UnderlineWidth: 50
Ascent: 860
Descent: 140
InvalidEm: 0
LayerCount: 2
Layer: 0 0 "Back" 1
Layer: 1 0 "Fore" 0
FSType: 8
OS2Version: 0
OS2_WeightWidthSlopeOnly: 0
OS2_UseTypoMetrics: 0
CreationTime: 1707357837
ModificationTime: 1707357837
OS2TypoAscent: 0
OS2TypoAOffset: 1
OS2TypoDescent: 0
OS2TypoDOffset: 1
OS2TypoLinegap: 0
OS2WinAscent: 0
OS2WinAOffset: 1
OS2WinDescent: 0
OS2WinDOffset: 1
HheadAscent: 0
HheadAOffset: 1
HheadDescent: 0
HheadDOffset: 1
OS2Vendor: 'PfEd'
DEI: 91125
Encoding: UnicodeFull
Compacted: 1
UnicodeInterp: none
NameList: AGL For New Fonts
DisplaySize: -48
AntiAlias: 1
FitToEm: 0
WinInfo: 0 27 9
BeginPrivate: 3
BlueValues 24 [-10 0 520 530 730 750 ]
OtherBlues 12 [-220 -220 ]
BlueShift 2 11
EndPrivate
BeginChars: 1114125 955

StartChar: .notdef
Encoding: 1114112 -1 0
Width: 500
LayerCount: 2
Fore
SplineSet
410 -140 m 1
 93 -140 l 1
 93 860 l 1
 410 860 l 1
 410 -140 l 1
168 793 m 1
 168 760 l 1
 233 760 l 1
 233 723 l 1
 167 723 l 1
 167 690 l 1
 333 690 l 1
 333 723 l 1
 267 723 l 1
 267 760 l 1
 333 760 l 1
 333 793 l 1
 168 793 l 1
167 664 m 1
 167 560 l 1
 333 560 l 1
 333 594 l 1
 267 594 l 1
 267 664 l 1
 167 664 l 1
233 594 m 1
 200 594 l 1
 200 630 l 1
 233 630 l 1
 233 594 l 1
167 533 m 1
 167 500 l 1
 233 500 l 1
 233 463 l 1
 167 463 l 1
 167 430 l 1
 267 430 l 1
 267 500 l 1
 333 500 l 1
 333 533 l 1
 167 533 l 1
300 473 m 1
 300 407 l 1
 167 407 l 1
 167 373 l 1
 333 373 l 1
 333 473 l 1
 300 473 l 1
233 351 m 1
 233 295 l 1
 267 295 l 1
 267 318 l 1
 300 318 l 1
 300 271 l 1
 200 271 l 1
 200 351 l 1
 167 351 l 1
 167 238 l 1
 333 238 l 1
 333 351 l 1
 233 351 l 1
167 178 m 1
 167 65 l 1
 333 65 l 1
 333 178 l 1
 167 178 l 1
300 98 m 1
 200 98 l 1
 200 145 l 1
 300 145 l 1
 300 98 l 1
167 42 m 1
 167 9 l 1
 237 9 l 1
 167 -38 l 1
 167 -71 l 1
 333 -71 l 1
 333 -38 l 1
 231 -38 l 1
 301 9 l 1
 333 9 l 1
 333 42 l 1
 167 42 l 1
EndSplineSet
EndChar

StartChar: A
Encoding: 65 65 2
Width: 648
Flags: W
LayerCount: 2
Fore
SplineSet
607 0 m 1
 513 237 l 1
 135 237 l 1
 41 0 l 1
 19 0 l 1
 309 730 l 1
 339 730 l 1
 629 0 l 1
 607 0 l 1
143 257 m 1
 505 257 l 1
 325 711 l 1
 323 711 l 1
 143 257 l 1
EndSplineSet
EndChar

StartChar: Aacute
Encoding: 193 193 3
Width: 648
Flags: W
LayerCount: 2
Fore
SplineSet
607 0 m 1
 513 237 l 1
 135 237 l 1
 41 0 l 1
 19 0 l 1
 309 730 l 1
 339 730 l 1
 629 0 l 1
 607 0 l 1
143 257 m 1
 505 257 l 1
 325 711 l 1
 323 711 l 1
 143 257 l 1
275 770 m 1
 252 770 l 1
 373 980 l 1
 396 980 l 1
 275 770 l 1
EndSplineSet
EndChar

StartChar: Abreve
Encoding: 258 258 4
Width: 648
Flags: W
LayerCount: 2
Fore
SplineSet
607 0 m 1
 513 237 l 1
 135 237 l 1
 41 0 l 1
 19 0 l 1
 309 730 l 1
 339 730 l 1
 629 0 l 1
 607 0 l 1
143 257 m 1
 505 257 l 1
 325 711 l 1
 323 711 l 1
 143 257 l 1
218 838 m 0
 188 860 171 889 165 925 c 1
 185 925 l 1
 191 895 207 871 232 852 c 0
 257 834 288 825 324 825 c 0
 360 825 391 834 416 852 c 0
 441 871 457 895 463 925 c 1
 483 925 l 1
 477 889 460 860 430 838 c 0
 402 816 366 805 324 805 c 0
 282 805 246 816 218 838 c 0
EndSplineSet
EndChar

StartChar: uni1EAE
Encoding: 7854 7854 5
Width: 648
Flags: W
LayerCount: 2
Fore
SplineSet
607 0 m 1
 513 237 l 1
 135 237 l 1
 41 0 l 1
 19 0 l 1
 309 730 l 1
 339 730 l 1
 629 0 l 1
 607 0 l 1
143 257 m 1
 505 257 l 1
 325 711 l 1
 323 711 l 1
 143 257 l 1
218 838 m 0
 188 860 171 889 165 925 c 1
 185 925 l 1
 191 895 207 871 232 852 c 0
 257 834 288 825 324 825 c 0
 360 825 391 834 416 852 c 0
 441 871 457 895 463 925 c 1
 483 925 l 1
 477 889 460 860 430 838 c 0
 402 816 366 805 324 805 c 0
 282 805 246 816 218 838 c 0
275 910 m 1
 252 910 l 1
 373 1120 l 1
 396 1120 l 1
 275 910 l 1
EndSplineSet
EndChar

StartChar: uni1EB6
Encoding: 7862 7862 6
Width: 648
Flags: W
LayerCount: 2
Fore
SplineSet
607 0 m 1
 513 237 l 1
 135 237 l 1
 41 0 l 1
 19 0 l 1
 309 730 l 1
 339 730 l 1
 629 0 l 1
 607 0 l 1
143 257 m 1
 505 257 l 1
 325 711 l 1
 323 711 l 1
 143 257 l 1
294 -115 m 1
 354 -115 l 1
 354 -175 l 1
 294 -175 l 1
 294 -115 l 1
218 838 m 0
 188 860 171 889 165 925 c 1
 185 925 l 1
 191 895 207 871 232 852 c 0
 257 834 288 825 324 825 c 0
 360 825 391 834 416 852 c 0
 441 871 457 895 463 925 c 1
 483 925 l 1
 477 889 460 860 430 838 c 0
 402 816 366 805 324 805 c 0
 282 805 246 816 218 838 c 0
EndSplineSet
EndChar

StartChar: uni1EB0
Encoding: 7856 7856 7
Width: 648
Flags: W
LayerCount: 2
Fore
SplineSet
607 0 m 1
 513 237 l 1
 135 237 l 1
 41 0 l 1
 19 0 l 1
 309 730 l 1
 339 730 l 1
 629 0 l 1
 607 0 l 1
143 257 m 1
 505 257 l 1
 325 711 l 1
 323 711 l 1
 143 257 l 1
218 838 m 0
 188 860 171 889 165 925 c 1
 185 925 l 1
 191 895 207 871 232 852 c 0
 257 834 288 825 324 825 c 0
 360 825 391 834 416 852 c 0
 441 871 457 895 463 925 c 1
 483 925 l 1
 477 889 460 860 430 838 c 0
 402 816 366 805 324 805 c 0
 282 805 246 816 218 838 c 0
252 1120 m 1
 275 1120 l 1
 396 910 l 1
 373 910 l 1
 252 1120 l 1
EndSplineSet
EndChar

StartChar: uni1EB2
Encoding: 7858 7858 8
Width: 648
Flags: W
LayerCount: 2
Fore
SplineSet
607 0 m 1
 513 237 l 1
 135 237 l 1
 41 0 l 1
 19 0 l 1
 309 730 l 1
 339 730 l 1
 629 0 l 1
 607 0 l 1
143 257 m 1
 505 257 l 1
 325 711 l 1
 323 711 l 1
 143 257 l 1
218 838 m 0
 188 860 171 889 165 925 c 1
 185 925 l 1
 191 895 207 871 232 852 c 0
 257 834 288 825 324 825 c 0
 360 825 391 834 416 852 c 0
 441 871 457 895 463 925 c 1
 483 925 l 1
 477 889 460 860 430 838 c 0
 402 816 366 805 324 805 c 0
 282 805 246 816 218 838 c 0
422 956 m 0
 426 974 428 990 428 1003 c 0
 428 1023 421 1037 406 1044 c 0
 392 1051 365 1055 324 1055 c 0
 284 1055 244 1050 205 1040 c 1
 200 1059 l 1
 242 1070 283 1075 324 1075 c 0
 370 1075 402 1070 420 1059 c 0
 439 1048 448 1030 448 1003 c 0
 448 990 446 976 444 959 c 0
 440 942 437 928 432 915 c 1
 410 915 l 1
 415 925 419 939 422 956 c 0
EndSplineSet
EndChar

StartChar: uni1EB4
Encoding: 7860 7860 9
Width: 648
Flags: W
LayerCount: 2
Fore
SplineSet
607 0 m 1
 513 237 l 1
 135 237 l 1
 41 0 l 1
 19 0 l 1
 309 730 l 1
 339 730 l 1
 629 0 l 1
 607 0 l 1
143 257 m 1
 505 257 l 1
 325 711 l 1
 323 711 l 1
 143 257 l 1
218 838 m 0
 188 860 171 889 165 925 c 1
 185 925 l 1
 191 895 207 871 232 852 c 0
 257 834 288 825 324 825 c 0
 360 825 391 834 416 852 c 0
 441 871 457 895 463 925 c 1
 483 925 l 1
 477 889 460 860 430 838 c 0
 402 816 366 805 324 805 c 0
 282 805 246 816 218 838 c 0
318 1037 m 0
 275 1069 244 1085 223 1085 c 0
 198 1085 185 1055 185 995 c 1
 165 995 l 1
 165 1032 170 1059 179 1078 c 0
 188 1096 203 1105 223 1105 c 0
 248 1105 284 1088 330 1053 c 0
 373 1021 405 1005 425 1005 c 0
 450 1005 463 1035 463 1095 c 1
 483 1095 l 1
 483 1022 464 985 425 985 c 0
 401 985 365 1002 318 1037 c 0
EndSplineSet
EndChar

StartChar: Acircumflex
Encoding: 194 194 10
Width: 648
Flags: W
LayerCount: 2
Fore
SplineSet
607 0 m 1
 513 237 l 1
 135 237 l 1
 41 0 l 1
 19 0 l 1
 309 730 l 1
 339 730 l 1
 629 0 l 1
 607 0 l 1
143 257 m 1
 505 257 l 1
 325 711 l 1
 323 711 l 1
 143 257 l 1
309 980 m 1
 339 980 l 1
 496 770 l 1
 471 770 l 1
 325 965 l 1
 323 965 l 1
 177 770 l 1
 152 770 l 1
 309 980 l 1
EndSplineSet
EndChar

StartChar: uni1EA4
Encoding: 7844 7844 11
Width: 648
Flags: W
LayerCount: 2
Fore
SplineSet
607 0 m 1
 513 237 l 1
 135 237 l 1
 41 0 l 1
 19 0 l 1
 309 730 l 1
 339 730 l 1
 629 0 l 1
 607 0 l 1
143 257 m 1
 505 257 l 1
 325 711 l 1
 323 711 l 1
 143 257 l 1
309 980 m 1
 339 980 l 1
 496 770 l 1
 471 770 l 1
 325 965 l 1
 323 965 l 1
 177 770 l 1
 152 770 l 1
 309 980 l 1
419 950 m 1
 396 950 l 1
 517 1160 l 1
 540 1160 l 1
 419 950 l 1
EndSplineSet
EndChar

StartChar: uni1EAC
Encoding: 7852 7852 12
Width: 648
Flags: W
LayerCount: 2
Fore
SplineSet
607 0 m 1
 513 237 l 1
 135 237 l 1
 41 0 l 1
 19 0 l 1
 309 730 l 1
 339 730 l 1
 629 0 l 1
 607 0 l 1
143 257 m 1
 505 257 l 1
 325 711 l 1
 323 711 l 1
 143 257 l 1
294 -115 m 1
 354 -115 l 1
 354 -175 l 1
 294 -175 l 1
 294 -115 l 1
309 980 m 1
 339 980 l 1
 496 770 l 1
 471 770 l 1
 325 965 l 1
 323 965 l 1
 177 770 l 1
 152 770 l 1
 309 980 l 1
EndSplineSet
EndChar

StartChar: uni1EA6
Encoding: 7846 7846 13
Width: 648
Flags: W
LayerCount: 2
Fore
SplineSet
607 0 m 1
 513 237 l 1
 135 237 l 1
 41 0 l 1
 19 0 l 1
 309 730 l 1
 339 730 l 1
 629 0 l 1
 607 0 l 1
143 257 m 1
 505 257 l 1
 325 711 l 1
 323 711 l 1
 143 257 l 1
309 980 m 1
 339 980 l 1
 496 770 l 1
 471 770 l 1
 325 965 l 1
 323 965 l 1
 177 770 l 1
 152 770 l 1
 309 980 l 1
108 1160 m 1
 131 1160 l 1
 252 950 l 1
 229 950 l 1
 108 1160 l 1
EndSplineSet
EndChar

StartChar: uni1EA8
Encoding: 7848 7848 14
Width: 648
Flags: W
LayerCount: 2
Fore
SplineSet
607 0 m 1
 513 237 l 1
 135 237 l 1
 41 0 l 1
 19 0 l 1
 309 730 l 1
 339 730 l 1
 629 0 l 1
 607 0 l 1
143 257 m 1
 505 257 l 1
 325 711 l 1
 323 711 l 1
 143 257 l 1
309 980 m 1
 339 980 l 1
 496 770 l 1
 471 770 l 1
 325 965 l 1
 323 965 l 1
 177 770 l 1
 152 770 l 1
 309 980 l 1
456 986 m 0
 460 1004 462 1020 462 1033 c 0
 462 1053 455 1067 440 1074 c 0
 426 1081 399 1085 358 1085 c 0
 318 1085 278 1080 239 1070 c 1
 234 1089 l 1
 276 1100 317 1105 358 1105 c 0
 404 1105 436 1100 454 1089 c 0
 473 1078 482 1060 482 1033 c 0
 482 1020 480 1006 478 989 c 0
 474 972 471 958 466 945 c 1
 444 945 l 1
 449 955 453 969 456 986 c 0
EndSplineSet
EndChar

StartChar: uni1EAA
Encoding: 7850 7850 15
Width: 648
Flags: W
LayerCount: 2
Fore
SplineSet
607 0 m 1
 513 237 l 1
 135 237 l 1
 41 0 l 1
 19 0 l 1
 309 730 l 1
 339 730 l 1
 629 0 l 1
 607 0 l 1
143 257 m 1
 505 257 l 1
 325 711 l 1
 323 711 l 1
 143 257 l 1
309 980 m 1
 339 980 l 1
 496 770 l 1
 471 770 l 1
 325 965 l 1
 323 965 l 1
 177 770 l 1
 152 770 l 1
 309 980 l 1
318 1037 m 0
 275 1069 244 1085 223 1085 c 0
 198 1085 185 1055 185 995 c 1
 165 995 l 1
 165 1032 170 1059 179 1078 c 0
 188 1096 203 1105 223 1105 c 0
 248 1105 284 1088 330 1053 c 0
 373 1021 405 1005 425 1005 c 0
 450 1005 463 1035 463 1095 c 1
 483 1095 l 1
 483 1022 464 985 425 985 c 0
 401 985 365 1002 318 1037 c 0
EndSplineSet
EndChar

StartChar: uni0200
Encoding: 512 512 16
Width: 648
Flags: W
LayerCount: 2
Fore
SplineSet
607 0 m 1
 513 237 l 1
 135 237 l 1
 41 0 l 1
 19 0 l 1
 309 730 l 1
 339 730 l 1
 629 0 l 1
 607 0 l 1
143 257 m 1
 505 257 l 1
 325 711 l 1
 323 711 l 1
 143 257 l 1
153 980 m 1
 176 980 l 1
 297 770 l 1
 274 770 l 1
 153 980 l 1
333 980 m 1
 356 980 l 1
 477 770 l 1
 454 770 l 1
 333 980 l 1
EndSplineSet
EndChar

StartChar: Adieresis
Encoding: 196 196 17
Width: 648
Flags: W
LayerCount: 2
Fore
SplineSet
607 0 m 1
 513 237 l 1
 135 237 l 1
 41 0 l 1
 19 0 l 1
 309 730 l 1
 339 730 l 1
 629 0 l 1
 607 0 l 1
143 257 m 1
 505 257 l 1
 325 711 l 1
 323 711 l 1
 143 257 l 1
174 905 m 1
 234 905 l 1
 234 845 l 1
 174 845 l 1
 174 905 l 1
414 905 m 1
 474 905 l 1
 474 845 l 1
 414 845 l 1
 414 905 l 1
EndSplineSet
EndChar

StartChar: uni1EA0
Encoding: 7840 7840 18
Width: 648
Flags: W
LayerCount: 2
Fore
SplineSet
607 0 m 1
 513 237 l 1
 135 237 l 1
 41 0 l 1
 19 0 l 1
 309 730 l 1
 339 730 l 1
 629 0 l 1
 607 0 l 1
143 257 m 1
 505 257 l 1
 325 711 l 1
 323 711 l 1
 143 257 l 1
294 -115 m 1
 354 -115 l 1
 354 -175 l 1
 294 -175 l 1
 294 -115 l 1
EndSplineSet
EndChar

StartChar: Agrave
Encoding: 192 192 19
Width: 648
Flags: W
LayerCount: 2
Fore
SplineSet
607 0 m 1
 513 237 l 1
 135 237 l 1
 41 0 l 1
 19 0 l 1
 309 730 l 1
 339 730 l 1
 629 0 l 1
 607 0 l 1
143 257 m 1
 505 257 l 1
 325 711 l 1
 323 711 l 1
 143 257 l 1
252 980 m 1
 275 980 l 1
 396 770 l 1
 373 770 l 1
 252 980 l 1
EndSplineSet
EndChar

StartChar: uni1EA2
Encoding: 7842 7842 20
Width: 648
Flags: W
LayerCount: 2
Fore
SplineSet
607 0 m 1
 513 237 l 1
 135 237 l 1
 41 0 l 1
 19 0 l 1
 309 730 l 1
 339 730 l 1
 629 0 l 1
 607 0 l 1
143 257 m 1
 505 257 l 1
 325 711 l 1
 323 711 l 1
 143 257 l 1
422 856 m 0
 426 874 428 890 428 903 c 0
 428 923 421 937 406 944 c 0
 392 951 365 955 324 955 c 0
 284 955 244 950 205 940 c 1
 200 959 l 1
 242 970 283 975 324 975 c 0
 370 975 402 970 420 959 c 0
 439 948 448 930 448 903 c 0
 448 890 446 876 444 859 c 0
 440 842 437 828 432 815 c 1
 410 815 l 1
 415 825 419 839 422 856 c 0
EndSplineSet
EndChar

StartChar: uni0202
Encoding: 514 514 21
Width: 648
Flags: W
LayerCount: 2
Fore
SplineSet
607 0 m 1
 513 237 l 1
 135 237 l 1
 41 0 l 1
 19 0 l 1
 309 730 l 1
 339 730 l 1
 629 0 l 1
 607 0 l 1
143 257 m 1
 505 257 l 1
 325 711 l 1
 323 711 l 1
 143 257 l 1
430 912 m 0
 460 890 477 861 483 825 c 1
 463 825 l 1
 457 855 441 879 416 898 c 0
 391 916 360 925 324 925 c 0
 288 925 257 916 232 898 c 0
 207 879 191 855 185 825 c 1
 165 825 l 1
 171 861 188 890 218 912 c 0
 246 934 282 945 324 945 c 0
 366 945 402 934 430 912 c 0
EndSplineSet
EndChar

StartChar: Amacron
Encoding: 256 256 22
Width: 648
Flags: W
LayerCount: 2
Fore
SplineSet
607 0 m 1
 513 237 l 1
 135 237 l 1
 41 0 l 1
 19 0 l 1
 309 730 l 1
 339 730 l 1
 629 0 l 1
 607 0 l 1
143 257 m 1
 505 257 l 1
 325 711 l 1
 323 711 l 1
 143 257 l 1
157 885 m 1
 491 885 l 1
 491 865 l 1
 157 865 l 1
 157 885 l 1
EndSplineSet
EndChar

StartChar: Aogonek
Encoding: 260 260 23
Width: 648
Flags: W
LayerCount: 2
Fore
SplineSet
716 -199 m 1
 686 -213 652 -220 615 -220 c 0
 566 -220 532 -211 514 -194 c 0
 496 -177 487 -157 487 -135 c 0
 487 -110 497 -85 518 -60 c 0
 538 -35 567 -13 604 8 c 1
 513 237 l 1
 135 237 l 1
 41 0 l 1
 19 0 l 1
 309 730 l 1
 339 730 l 1
 629 0 l 1
 590 -21 560 -44 538 -66 c 0
 518 -90 507 -112 507 -135 c 0
 507 -160 518 -177 538 -186 c 0
 560 -195 585 -200 615 -200 c 0
 650 -200 681 -194 708 -181 c 1
 716 -199 l 1
143 257 m 1
 505 257 l 1
 325 711 l 1
 323 711 l 1
 143 257 l 1
EndSplineSet
EndChar

StartChar: Aring
Encoding: 197 197 24
Width: 648
Flags: W
LayerCount: 2
Fore
SplineSet
513 237 m 1
 135 237 l 1
 41 0 l 1
 19 0 l 1
 306 721 l 1
 275 726 250 740 230 763 c 0
 209 786 199 814 199 845 c 0
 199 880 211 909 236 934 c 0
 260 958 289 970 324 970 c 0
 359 970 388 958 412 934 c 0
 437 909 449 880 449 845 c 0
 449 814 439 786 418 763 c 0
 398 740 373 726 342 721 c 1
 629 0 l 1
 607 0 l 1
 513 237 l 1
250 771 m 0
 271 750 295 740 324 740 c 0
 353 740 378 750 398 771 c 0
 419 792 429 816 429 845 c 0
 429 874 419 899 398 920 c 0
 378 940 353 950 324 950 c 0
 295 950 271 940 250 920 c 0
 229 899 219 874 219 845 c 0
 219 816 229 792 250 771 c 0
143 257 m 1
 505 257 l 1
 325 711 l 1
 323 711 l 1
 143 257 l 1
EndSplineSet
EndChar

StartChar: Aringacute
Encoding: 506 506 25
Width: 648
Flags: W
LayerCount: 2
Fore
SplineSet
513 237 m 1
 135 237 l 1
 41 0 l 1
 19 0 l 1
 306 721 l 1
 275 726 250 740 230 763 c 0
 209 786 199 814 199 845 c 0
 199 866 204 886 214 904 c 0
 224 922 237 937 254 949 c 1
 373 1155 l 1
 396 1155 l 1
 286 964 l 1
 298 968 311 970 324 970 c 0
 359 970 388 958 412 934 c 0
 437 909 449 880 449 845 c 0
 449 814 439 786 418 763 c 0
 398 740 373 726 342 721 c 1
 629 0 l 1
 607 0 l 1
 513 237 l 1
250 771 m 0
 271 750 295 740 324 740 c 0
 353 740 378 750 398 771 c 0
 419 792 429 816 429 845 c 0
 429 874 419 899 398 920 c 0
 378 940 353 950 324 950 c 0
 295 950 271 940 250 920 c 0
 229 899 219 874 219 845 c 0
 219 816 229 792 250 771 c 0
143 257 m 1
 505 257 l 1
 325 711 l 1
 323 711 l 1
 143 257 l 1
EndSplineSet
EndChar

StartChar: Atilde
Encoding: 195 195 26
Width: 648
Flags: W
LayerCount: 2
Fore
SplineSet
607 0 m 1
 513 237 l 1
 135 237 l 1
 41 0 l 1
 19 0 l 1
 309 730 l 1
 339 730 l 1
 629 0 l 1
 607 0 l 1
143 257 m 1
 505 257 l 1
 325 711 l 1
 323 711 l 1
 143 257 l 1
318 867 m 0
 275 899 244 915 223 915 c 0
 198 915 185 885 185 825 c 1
 165 825 l 1
 165 862 170 889 179 908 c 0
 188 926 203 935 223 935 c 0
 248 935 284 918 330 883 c 0
 373 851 405 835 425 835 c 0
 450 835 463 865 463 925 c 1
 483 925 l 1
 483 852 464 815 425 815 c 0
 401 815 365 832 318 867 c 0
EndSplineSet
EndChar

StartChar: AE
Encoding: 198 198 27
Width: 804
Flags: W
LayerCount: 2
Fore
SplineSet
733 710 m 1
 433 710 l 1
 433 400 l 1
 713 400 l 1
 713 380 l 1
 433 380 l 1
 433 20 l 1
 733 20 l 1
 733 0 l 1
 413 0 l 1
 413 237 l 1
 159 237 l 1
 42 0 l 1
 19 0 l 1
 381 730 l 1
 733 730 l 1
 733 710 l 1
169 257 m 1
 413 257 l 1
 413 710 l 1
 393 710 l 1
 169 257 l 1
EndSplineSet
EndChar

StartChar: AEacute
Encoding: 508 508 28
Width: 804
Flags: W
LayerCount: 2
Fore
SplineSet
733 710 m 1
 433 710 l 1
 433 400 l 1
 713 400 l 1
 713 380 l 1
 433 380 l 1
 433 20 l 1
 733 20 l 1
 733 0 l 1
 413 0 l 1
 413 237 l 1
 159 237 l 1
 42 0 l 1
 19 0 l 1
 381 730 l 1
 733 730 l 1
 733 710 l 1
169 257 m 1
 413 257 l 1
 413 710 l 1
 393 710 l 1
 169 257 l 1
391 770 m 1
 368 770 l 1
 489 980 l 1
 512 980 l 1
 391 770 l 1
EndSplineSet
EndChar

StartChar: B
Encoding: 66 66 29
Width: 613
Flags: W
LayerCount: 2
Fore
SplineSet
530 328 m 0
 560 296 575 254 575 200 c 0
 575 131 550 81 502 48 c 0
 452 16 377 0 275 0 c 2
 95 0 l 1
 95 730 l 1
 275 730 l 2
 448 730 535 672 535 555 c 0
 535 468 487 414 391 392 c 1
 391 390 l 1
 454 379 500 358 530 328 c 0
115 710 m 1
 115 400 l 1
 275 400 l 2
 356 400 417 413 456 438 c 0
 495 463 515 502 515 555 c 0
 515 608 495 647 456 672 c 0
 417 697 356 710 275 710 c 2
 115 710 l 1
488 64 m 0
 532 92 555 138 555 200 c 0
 555 262 532 308 488 336 c 0
 442 366 372 380 275 380 c 2
 115 380 l 1
 115 20 l 1
 275 20 l 2
 372 20 442 34 488 64 c 0
EndSplineSet
EndChar

StartChar: C
Encoding: 67 67 30
Width: 684
Flags: W
LayerCount: 2
Fore
SplineSet
216 36 m 0
 162 68 120 111 91 168 c 0
 62 225 47 290 47 365 c 0
 47 440 62 505 91 562 c 0
 120 619 162 662 216 694 c 0
 269 724 332 740 403 740 c 0
 488 740 562 718 627 675 c 1
 616 658 l 1
 555 699 484 720 403 720 c 0
 336 720 277 706 226 676 c 0
 175 648 136 606 108 552 c 0
 81 499 67 436 67 365 c 0
 67 294 81 231 108 178 c 0
 135 124 174 82 225 54 c 0
 276 24 335 10 403 10 c 0
 484 10 555 31 616 72 c 1
 627 55 l 1
 562 12 488 -10 403 -10 c 0
 332 -10 269 6 216 36 c 0
EndSplineSet
EndChar

StartChar: Cacute
Encoding: 262 262 31
Width: 684
Flags: W
LayerCount: 2
Fore
SplineSet
216 36 m 0
 162 68 120 111 91 168 c 0
 62 225 47 290 47 365 c 0
 47 440 62 505 91 562 c 0
 120 619 162 662 216 694 c 0
 269 724 332 740 403 740 c 0
 488 740 562 718 627 675 c 1
 616 658 l 1
 555 699 484 720 403 720 c 0
 336 720 277 706 226 676 c 0
 175 648 136 606 108 552 c 0
 81 499 67 436 67 365 c 0
 67 294 81 231 108 178 c 0
 135 124 174 82 225 54 c 0
 276 24 335 10 403 10 c 0
 484 10 555 31 616 72 c 1
 627 55 l 1
 562 12 488 -10 403 -10 c 0
 332 -10 269 6 216 36 c 0
331 770 m 1
 308 770 l 1
 429 980 l 1
 452 980 l 1
 331 770 l 1
EndSplineSet
EndChar

StartChar: Ccaron
Encoding: 268 268 32
Width: 684
Flags: W
LayerCount: 2
Fore
SplineSet
216 36 m 0
 162 68 120 111 91 168 c 0
 62 225 47 290 47 365 c 0
 47 440 62 505 91 562 c 0
 120 619 162 662 216 694 c 0
 269 724 332 740 403 740 c 0
 488 740 562 718 627 675 c 1
 616 658 l 1
 555 699 484 720 403 720 c 0
 336 720 277 706 226 676 c 0
 175 648 136 606 108 552 c 0
 81 499 67 436 67 365 c 0
 67 294 81 231 108 178 c 0
 135 124 174 82 225 54 c 0
 276 24 335 10 403 10 c 0
 484 10 555 31 616 72 c 1
 627 55 l 1
 562 12 488 -10 403 -10 c 0
 332 -10 269 6 216 36 c 0
208 980 m 1
 233 980 l 1
 379 785 l 1
 381 785 l 1
 527 980 l 1
 552 980 l 1
 395 770 l 1
 365 770 l 1
 208 980 l 1
EndSplineSet
EndChar

StartChar: Ccedilla
Encoding: 199 199 33
Width: 684
Flags: W
LayerCount: 2
Fore
SplineSet
627 55 m 1
 562 12 488 -10 405 -10 c 1
 464 -50 494 -92 494 -136 c 0
 494 -158 485 -178 467 -195 c 0
 449 -212 415 -221 366 -221 c 0
 329 -221 295 -214 265 -200 c 1
 273 -182 l 1
 300 -195 331 -201 366 -201 c 0
 396 -201 422 -196 442 -187 c 0
 464 -178 474 -161 474 -136 c 0
 474 -115 465 -93 446 -72 c 0
 427 -50 400 -29 365 -8 c 1
 301 -3 245 16 197 48 c 0
 149 80 112 123 86 178 c 0
 60 233 47 295 47 365 c 0
 47 440 62 505 91 562 c 0
 120 619 162 662 216 694 c 0
 269 724 332 740 403 740 c 0
 488 740 562 718 627 675 c 1
 616 658 l 1
 555 699 484 720 403 720 c 0
 336 720 277 706 226 676 c 0
 175 648 136 606 108 552 c 0
 81 499 67 436 67 365 c 0
 67 294 81 231 108 178 c 0
 135 124 174 82 225 54 c 0
 276 24 335 10 403 10 c 0
 484 10 555 31 616 72 c 1
 627 55 l 1
EndSplineSet
EndChar

StartChar: Ccircumflex
Encoding: 264 264 34
Width: 684
Flags: W
LayerCount: 2
Fore
SplineSet
216 36 m 0
 162 68 120 111 91 168 c 0
 62 225 47 290 47 365 c 0
 47 440 62 505 91 562 c 0
 120 619 162 662 216 694 c 0
 269 724 332 740 403 740 c 0
 488 740 562 718 627 675 c 1
 616 658 l 1
 555 699 484 720 403 720 c 0
 336 720 277 706 226 676 c 0
 175 648 136 606 108 552 c 0
 81 499 67 436 67 365 c 0
 67 294 81 231 108 178 c 0
 135 124 174 82 225 54 c 0
 276 24 335 10 403 10 c 0
 484 10 555 31 616 72 c 1
 627 55 l 1
 562 12 488 -10 403 -10 c 0
 332 -10 269 6 216 36 c 0
365 980 m 1
 395 980 l 1
 552 770 l 1
 527 770 l 1
 381 965 l 1
 379 965 l 1
 233 770 l 1
 208 770 l 1
 365 980 l 1
EndSplineSet
EndChar

StartChar: Cdotaccent
Encoding: 266 266 35
Width: 684
Flags: W
LayerCount: 2
Fore
SplineSet
216 36 m 0
 162 68 120 111 91 168 c 0
 62 225 47 290 47 365 c 0
 47 440 62 505 91 562 c 0
 120 619 162 662 216 694 c 0
 269 724 332 740 403 740 c 0
 488 740 562 718 627 675 c 1
 616 658 l 1
 555 699 484 720 403 720 c 0
 336 720 277 706 226 676 c 0
 175 648 136 606 108 552 c 0
 81 499 67 436 67 365 c 0
 67 294 81 231 108 178 c 0
 135 124 174 82 225 54 c 0
 276 24 335 10 403 10 c 0
 484 10 555 31 616 72 c 1
 627 55 l 1
 562 12 488 -10 403 -10 c 0
 332 -10 269 6 216 36 c 0
350 905 m 1
 410 905 l 1
 410 845 l 1
 350 845 l 1
 350 905 l 1
EndSplineSet
EndChar

StartChar: D
Encoding: 68 68 36
Width: 672
Flags: W
LayerCount: 2
Fore
SplineSet
255 730 m 2
 376 730 468 699 531 637 c 0
 594 575 625 484 625 365 c 0
 625 246 594 155 531 93 c 0
 468 31 376 0 255 0 c 2
 95 0 l 1
 95 730 l 1
 255 730 l 2
517 107 m 0
 576 165 605 251 605 365 c 0
 605 479 576 565 517 623 c 0
 458 681 371 710 255 710 c 2
 115 710 l 1
 115 20 l 1
 255 20 l 2
 371 20 458 49 517 107 c 0
EndSplineSet
EndChar

StartChar: uni01C4
Encoding: 452 452 37
Width: 1254
Flags: W
LayerCount: 2
Fore
SplineSet
255 730 m 2
 376 730 468 699 531 637 c 0
 594 575 625 484 625 365 c 0
 625 246 594 155 531 93 c 0
 468 31 376 0 255 0 c 2
 95 0 l 1
 95 730 l 1
 255 730 l 2
517 107 m 0
 576 165 605 251 605 365 c 0
 605 479 576 565 517 623 c 0
 458 681 371 710 255 710 c 2
 115 710 l 1
 115 20 l 1
 255 20 l 2
 371 20 458 49 517 107 c 0
698 20 m 1
 1152 708 l 1
 1152 710 l 1
 698 710 l 1
 698 730 l 1
 1178 730 l 1
 1178 710 l 1
 724 22 l 1
 724 20 l 1
 1178 20 l 1
 1178 0 l 1
 698 0 l 1
 698 20 l 1
766 980 m 1
 791 980 l 1
 937 785 l 1
 939 785 l 1
 1085 980 l 1
 1110 980 l 1
 953 770 l 1
 923 770 l 1
 766 980 l 1
EndSplineSet
EndChar

StartChar: Eth
Encoding: 208 208 38
Width: 718
Flags: W
LayerCount: 2
Fore
SplineSet
577 637 m 0
 640 575 671 484 671 365 c 0
 671 246 640 155 577 93 c 0
 514 31 422 0 301 0 c 2
 141 0 l 1
 141 355 l 1
 31 355 l 1
 31 375 l 1
 141 375 l 1
 141 730 l 1
 301 730 l 2
 422 730 514 699 577 637 c 0
563 107 m 0
 622 165 651 251 651 365 c 0
 651 479 622 565 563 623 c 0
 504 681 417 710 301 710 c 2
 161 710 l 1
 161 375 l 1
 441 375 l 1
 441 355 l 1
 161 355 l 1
 161 20 l 1
 301 20 l 2
 417 20 504 49 563 107 c 0
EndSplineSet
EndChar

StartChar: Dcaron
Encoding: 270 270 39
Width: 672
Flags: W
LayerCount: 2
Fore
SplineSet
255 730 m 2
 376 730 468 699 531 637 c 0
 594 575 625 484 625 365 c 0
 625 246 594 155 531 93 c 0
 468 31 376 0 255 0 c 2
 95 0 l 1
 95 730 l 1
 255 730 l 2
517 107 m 0
 576 165 605 251 605 365 c 0
 605 479 576 565 517 623 c 0
 458 681 371 710 255 710 c 2
 115 710 l 1
 115 20 l 1
 255 20 l 2
 371 20 458 49 517 107 c 0
164 980 m 1
 189 980 l 1
 335 785 l 1
 337 785 l 1
 483 980 l 1
 508 980 l 1
 351 770 l 1
 321 770 l 1
 164 980 l 1
EndSplineSet
EndChar

StartChar: Dcroat
Encoding: 272 272 40
Width: 718
Flags: W
LayerCount: 2
Fore
SplineSet
577 637 m 0
 640 575 671 484 671 365 c 0
 671 246 640 155 577 93 c 0
 514 31 422 0 301 0 c 2
 141 0 l 1
 141 355 l 1
 31 355 l 1
 31 375 l 1
 141 375 l 1
 141 730 l 1
 301 730 l 2
 422 730 514 699 577 637 c 0
563 107 m 0
 622 165 651 251 651 365 c 0
 651 479 622 565 563 623 c 0
 504 681 417 710 301 710 c 2
 161 710 l 1
 161 375 l 1
 441 375 l 1
 441 355 l 1
 161 355 l 1
 161 20 l 1
 301 20 l 2
 417 20 504 49 563 107 c 0
EndSplineSet
EndChar

StartChar: uni01C5
Encoding: 453 453 41
Width: 1134
Flags: W
LayerCount: 2
Fore
SplineSet
255 730 m 2
 376 730 468 699 531 637 c 0
 594 575 625 484 625 365 c 0
 625 246 594 155 531 93 c 0
 468 31 376 0 255 0 c 2
 95 0 l 1
 95 730 l 1
 255 730 l 2
517 107 m 0
 576 165 605 251 605 365 c 0
 605 479 576 565 517 623 c 0
 458 681 371 710 255 710 c 2
 115 710 l 1
 115 20 l 1
 255 20 l 2
 371 20 458 49 517 107 c 0
713 20 m 1
 1057 498 l 1
 1057 500 l 1
 713 500 l 1
 713 520 l 1
 1083 520 l 1
 1083 500 l 1
 739 22 l 1
 739 20 l 1
 1083 20 l 1
 1083 0 l 1
 713 0 l 1
 713 20 l 1
726 770 m 1
 751 770 l 1
 897 575 l 1
 899 575 l 1
 1045 770 l 1
 1070 770 l 1
 913 560 l 1
 883 560 l 1
 726 770 l 1
EndSplineSet
EndChar

StartChar: E
Encoding: 69 69 42
Width: 586
Flags: W
LayerCount: 2
Fore
SplineSet
95 730 m 1
 515 730 l 1
 515 710 l 1
 115 710 l 1
 115 400 l 1
 495 400 l 1
 495 380 l 1
 115 380 l 1
 115 20 l 1
 515 20 l 1
 515 0 l 1
 95 0 l 1
 95 730 l 1
EndSplineSet
EndChar

StartChar: Eacute
Encoding: 201 201 43
Width: 586
Flags: W
LayerCount: 2
Fore
SplineSet
95 730 m 1
 515 730 l 1
 515 710 l 1
 115 710 l 1
 115 400 l 1
 495 400 l 1
 495 380 l 1
 115 380 l 1
 115 20 l 1
 515 20 l 1
 515 0 l 1
 95 0 l 1
 95 730 l 1
261 770 m 1
 238 770 l 1
 359 980 l 1
 382 980 l 1
 261 770 l 1
EndSplineSet
EndChar

StartChar: Ebreve
Encoding: 276 276 44
Width: 586
Flags: W
LayerCount: 2
Fore
SplineSet
95 730 m 1
 515 730 l 1
 515 710 l 1
 115 710 l 1
 115 400 l 1
 495 400 l 1
 495 380 l 1
 115 380 l 1
 115 20 l 1
 515 20 l 1
 515 0 l 1
 95 0 l 1
 95 730 l 1
204 838 m 0
 174 860 157 889 151 925 c 1
 171 925 l 1
 177 895 193 871 218 852 c 0
 243 834 274 825 310 825 c 0
 346 825 377 834 402 852 c 0
 427 871 443 895 449 925 c 1
 469 925 l 1
 463 889 446 860 416 838 c 0
 388 816 352 805 310 805 c 0
 268 805 232 816 204 838 c 0
EndSplineSet
EndChar

StartChar: Ecaron
Encoding: 282 282 45
Width: 586
Flags: W
LayerCount: 2
Fore
SplineSet
95 730 m 1
 515 730 l 1
 515 710 l 1
 115 710 l 1
 115 400 l 1
 495 400 l 1
 495 380 l 1
 115 380 l 1
 115 20 l 1
 515 20 l 1
 515 0 l 1
 95 0 l 1
 95 730 l 1
138 980 m 1
 163 980 l 1
 309 785 l 1
 311 785 l 1
 457 980 l 1
 482 980 l 1
 325 770 l 1
 295 770 l 1
 138 980 l 1
EndSplineSet
EndChar

StartChar: Ecircumflex
Encoding: 202 202 46
Width: 586
Flags: W
LayerCount: 2
Fore
SplineSet
95 730 m 1
 515 730 l 1
 515 710 l 1
 115 710 l 1
 115 400 l 1
 495 400 l 1
 495 380 l 1
 115 380 l 1
 115 20 l 1
 515 20 l 1
 515 0 l 1
 95 0 l 1
 95 730 l 1
295 980 m 1
 325 980 l 1
 482 770 l 1
 457 770 l 1
 311 965 l 1
 309 965 l 1
 163 770 l 1
 138 770 l 1
 295 980 l 1
EndSplineSet
EndChar

StartChar: uni1EBE
Encoding: 7870 7870 47
Width: 586
Flags: W
LayerCount: 2
Fore
SplineSet
95 730 m 1
 515 730 l 1
 515 710 l 1
 115 710 l 1
 115 400 l 1
 495 400 l 1
 495 380 l 1
 115 380 l 1
 115 20 l 1
 515 20 l 1
 515 0 l 1
 95 0 l 1
 95 730 l 1
295 980 m 1
 325 980 l 1
 482 770 l 1
 457 770 l 1
 311 965 l 1
 309 965 l 1
 163 770 l 1
 138 770 l 1
 295 980 l 1
405 950 m 1
 382 950 l 1
 503 1160 l 1
 526 1160 l 1
 405 950 l 1
EndSplineSet
EndChar

StartChar: uni1EC6
Encoding: 7878 7878 48
Width: 586
Flags: W
LayerCount: 2
Fore
SplineSet
95 730 m 1
 515 730 l 1
 515 710 l 1
 115 710 l 1
 115 400 l 1
 495 400 l 1
 495 380 l 1
 115 380 l 1
 115 20 l 1
 515 20 l 1
 515 0 l 1
 95 0 l 1
 95 730 l 1
280 -115 m 1
 340 -115 l 1
 340 -175 l 1
 280 -175 l 1
 280 -115 l 1
295 980 m 1
 325 980 l 1
 482 770 l 1
 457 770 l 1
 311 965 l 1
 309 965 l 1
 163 770 l 1
 138 770 l 1
 295 980 l 1
EndSplineSet
EndChar

StartChar: uni1EC0
Encoding: 7872 7872 49
Width: 586
Flags: W
LayerCount: 2
Fore
SplineSet
95 730 m 1
 515 730 l 1
 515 710 l 1
 115 710 l 1
 115 400 l 1
 495 400 l 1
 495 380 l 1
 115 380 l 1
 115 20 l 1
 515 20 l 1
 515 0 l 1
 95 0 l 1
 95 730 l 1
295 980 m 1
 325 980 l 1
 482 770 l 1
 457 770 l 1
 311 965 l 1
 309 965 l 1
 163 770 l 1
 138 770 l 1
 295 980 l 1
94 1160 m 1
 117 1160 l 1
 238 950 l 1
 215 950 l 1
 94 1160 l 1
EndSplineSet
EndChar

StartChar: uni1EC2
Encoding: 7874 7874 50
Width: 586
Flags: W
LayerCount: 2
Fore
SplineSet
95 730 m 1
 515 730 l 1
 515 710 l 1
 115 710 l 1
 115 400 l 1
 495 400 l 1
 495 380 l 1
 115 380 l 1
 115 20 l 1
 515 20 l 1
 515 0 l 1
 95 0 l 1
 95 730 l 1
295 980 m 1
 325 980 l 1
 482 770 l 1
 457 770 l 1
 311 965 l 1
 309 965 l 1
 163 770 l 1
 138 770 l 1
 295 980 l 1
442 986 m 0
 446 1004 448 1020 448 1033 c 0
 448 1053 441 1067 426 1074 c 0
 412 1081 385 1085 344 1085 c 0
 304 1085 264 1080 225 1070 c 1
 220 1089 l 1
 262 1100 303 1105 344 1105 c 0
 390 1105 422 1100 440 1089 c 0
 459 1078 468 1060 468 1033 c 0
 468 1020 466 1006 464 989 c 0
 460 972 457 958 452 945 c 1
 430 945 l 1
 435 955 439 969 442 986 c 0
EndSplineSet
EndChar

StartChar: uni1EC4
Encoding: 7876 7876 51
Width: 586
Flags: W
LayerCount: 2
Fore
SplineSet
95 730 m 1
 515 730 l 1
 515 710 l 1
 115 710 l 1
 115 400 l 1
 495 400 l 1
 495 380 l 1
 115 380 l 1
 115 20 l 1
 515 20 l 1
 515 0 l 1
 95 0 l 1
 95 730 l 1
295 980 m 1
 325 980 l 1
 482 770 l 1
 457 770 l 1
 311 965 l 1
 309 965 l 1
 163 770 l 1
 138 770 l 1
 295 980 l 1
304 1037 m 0
 261 1069 230 1085 209 1085 c 0
 184 1085 171 1055 171 995 c 1
 151 995 l 1
 151 1032 156 1059 165 1078 c 0
 174 1096 189 1105 209 1105 c 0
 234 1105 270 1088 316 1053 c 0
 359 1021 391 1005 411 1005 c 0
 436 1005 449 1035 449 1095 c 1
 469 1095 l 1
 469 1022 450 985 411 985 c 0
 387 985 351 1002 304 1037 c 0
EndSplineSet
EndChar

StartChar: uni0204
Encoding: 516 516 52
Width: 586
Flags: W
LayerCount: 2
Fore
SplineSet
95 730 m 1
 515 730 l 1
 515 710 l 1
 115 710 l 1
 115 400 l 1
 495 400 l 1
 495 380 l 1
 115 380 l 1
 115 20 l 1
 515 20 l 1
 515 0 l 1
 95 0 l 1
 95 730 l 1
139 980 m 1
 162 980 l 1
 283 770 l 1
 260 770 l 1
 139 980 l 1
319 980 m 1
 342 980 l 1
 463 770 l 1
 440 770 l 1
 319 980 l 1
EndSplineSet
EndChar

StartChar: Edieresis
Encoding: 203 203 53
Width: 586
Flags: W
LayerCount: 2
Fore
SplineSet
95 730 m 1
 515 730 l 1
 515 710 l 1
 115 710 l 1
 115 400 l 1
 495 400 l 1
 495 380 l 1
 115 380 l 1
 115 20 l 1
 515 20 l 1
 515 0 l 1
 95 0 l 1
 95 730 l 1
160 905 m 1
 220 905 l 1
 220 845 l 1
 160 845 l 1
 160 905 l 1
400 905 m 1
 460 905 l 1
 460 845 l 1
 400 845 l 1
 400 905 l 1
EndSplineSet
EndChar

StartChar: Edotaccent
Encoding: 278 278 54
Width: 586
Flags: W
LayerCount: 2
Fore
SplineSet
95 730 m 1
 515 730 l 1
 515 710 l 1
 115 710 l 1
 115 400 l 1
 495 400 l 1
 495 380 l 1
 115 380 l 1
 115 20 l 1
 515 20 l 1
 515 0 l 1
 95 0 l 1
 95 730 l 1
280 905 m 1
 340 905 l 1
 340 845 l 1
 280 845 l 1
 280 905 l 1
EndSplineSet
EndChar

StartChar: uni1EB8
Encoding: 7864 7864 55
Width: 586
Flags: W
LayerCount: 2
Fore
SplineSet
95 730 m 1
 515 730 l 1
 515 710 l 1
 115 710 l 1
 115 400 l 1
 495 400 l 1
 495 380 l 1
 115 380 l 1
 115 20 l 1
 515 20 l 1
 515 0 l 1
 95 0 l 1
 95 730 l 1
280 -115 m 1
 340 -115 l 1
 340 -175 l 1
 280 -175 l 1
 280 -115 l 1
EndSplineSet
EndChar

StartChar: Egrave
Encoding: 200 200 56
Width: 586
Flags: W
LayerCount: 2
Fore
SplineSet
95 730 m 1
 515 730 l 1
 515 710 l 1
 115 710 l 1
 115 400 l 1
 495 400 l 1
 495 380 l 1
 115 380 l 1
 115 20 l 1
 515 20 l 1
 515 0 l 1
 95 0 l 1
 95 730 l 1
238 980 m 1
 261 980 l 1
 382 770 l 1
 359 770 l 1
 238 980 l 1
EndSplineSet
EndChar

StartChar: uni1EBA
Encoding: 7866 7866 57
Width: 586
Flags: W
LayerCount: 2
Fore
SplineSet
95 730 m 1
 515 730 l 1
 515 710 l 1
 115 710 l 1
 115 400 l 1
 495 400 l 1
 495 380 l 1
 115 380 l 1
 115 20 l 1
 515 20 l 1
 515 0 l 1
 95 0 l 1
 95 730 l 1
408 856 m 0
 412 874 414 890 414 903 c 0
 414 923 407 937 392 944 c 0
 378 951 351 955 310 955 c 0
 270 955 230 950 191 940 c 1
 186 959 l 1
 228 970 269 975 310 975 c 0
 356 975 388 970 406 959 c 0
 425 948 434 930 434 903 c 0
 434 890 432 876 430 859 c 0
 426 842 423 828 418 815 c 1
 396 815 l 1
 401 825 405 839 408 856 c 0
EndSplineSet
EndChar

StartChar: uni0206
Encoding: 518 518 58
Width: 586
Flags: W
LayerCount: 2
Fore
SplineSet
95 730 m 1
 515 730 l 1
 515 710 l 1
 115 710 l 1
 115 400 l 1
 495 400 l 1
 495 380 l 1
 115 380 l 1
 115 20 l 1
 515 20 l 1
 515 0 l 1
 95 0 l 1
 95 730 l 1
416 912 m 0
 446 890 463 861 469 825 c 1
 449 825 l 1
 443 855 427 879 402 898 c 0
 377 916 346 925 310 925 c 0
 274 925 243 916 218 898 c 0
 193 879 177 855 171 825 c 1
 151 825 l 1
 157 861 174 890 204 912 c 0
 232 934 268 945 310 945 c 0
 352 945 388 934 416 912 c 0
EndSplineSet
EndChar

StartChar: Emacron
Encoding: 274 274 59
Width: 586
Flags: W
LayerCount: 2
Fore
SplineSet
95 730 m 1
 515 730 l 1
 515 710 l 1
 115 710 l 1
 115 400 l 1
 495 400 l 1
 495 380 l 1
 115 380 l 1
 115 20 l 1
 515 20 l 1
 515 0 l 1
 95 0 l 1
 95 730 l 1
143 885 m 1
 477 885 l 1
 477 865 l 1
 143 865 l 1
 143 885 l 1
EndSplineSet
EndChar

StartChar: Eogonek
Encoding: 280 280 60
Width: 586
Flags: W
LayerCount: 2
Fore
SplineSet
602 -199 m 1
 572 -213 538 -220 501 -220 c 0
 452 -220 418 -211 400 -194 c 0
 382 -177 373 -157 373 -135 c 0
 373 -112 382 -88 400 -65 c 0
 417 -42 443 -20 476 0 c 1
 95 0 l 1
 95 730 l 1
 515 730 l 1
 515 710 l 1
 115 710 l 1
 115 400 l 1
 495 400 l 1
 495 380 l 1
 115 380 l 1
 115 20 l 1
 515 20 l 1
 515 0 l 1
 476 -21 446 -44 424 -66 c 0
 404 -90 393 -112 393 -135 c 0
 393 -160 404 -177 424 -186 c 0
 446 -195 471 -200 501 -200 c 0
 536 -200 567 -194 594 -181 c 1
 602 -199 l 1
EndSplineSet
EndChar

StartChar: uni1EBC
Encoding: 7868 7868 61
Width: 586
Flags: W
LayerCount: 2
Fore
SplineSet
95 730 m 1
 515 730 l 1
 515 710 l 1
 115 710 l 1
 115 400 l 1
 495 400 l 1
 495 380 l 1
 115 380 l 1
 115 20 l 1
 515 20 l 1
 515 0 l 1
 95 0 l 1
 95 730 l 1
304 867 m 0
 261 899 230 915 209 915 c 0
 184 915 171 885 171 825 c 1
 151 825 l 1
 151 862 156 889 165 908 c 0
 174 926 189 935 209 935 c 0
 234 935 270 918 316 883 c 0
 359 851 391 835 411 835 c 0
 436 835 449 865 449 925 c 1
 469 925 l 1
 469 852 450 815 411 815 c 0
 387 815 351 832 304 867 c 0
EndSplineSet
EndChar

StartChar: F
Encoding: 70 70 62
Width: 567
Flags: W
LayerCount: 2
Fore
SplineSet
95 730 m 1
 515 730 l 1
 515 710 l 1
 115 710 l 1
 115 400 l 1
 495 400 l 1
 495 380 l 1
 115 380 l 1
 115 0 l 1
 95 0 l 1
 95 730 l 1
EndSplineSet
EndChar

StartChar: G
Encoding: 71 71 63
Width: 778
Flags: W
LayerCount: 2
Fore
SplineSet
697 400 m 1
 697 44 l 1
 662 27 621 14 572 4 c 0
 524 -5 477 -10 431 -10 c 0
 352 -10 283 5 226 35 c 0
 168 65 124 108 93 164 c 0
 62 221 47 288 47 365 c 0
 47 442 62 509 93 566 c 0
 124 622 168 665 226 695 c 0
 283 725 352 740 431 740 c 0
 522 740 602 720 670 680 c 1
 660 663 l 1
 595 701 518 720 431 720 c 0
 356 720 291 706 236 678 c 0
 181 650 140 609 110 556 c 0
 82 503 67 439 67 365 c 0
 67 291 82 227 110 174 c 0
 140 121 181 80 236 52 c 0
 291 24 356 10 431 10 c 0
 473 10 516 14 560 22 c 0
 605 31 644 42 677 57 c 1
 677 380 l 1
 356 380 l 1
 356 400 l 1
 697 400 l 1
EndSplineSet
EndChar

StartChar: Gbreve
Encoding: 286 286 64
Width: 778
Flags: W
LayerCount: 2
Fore
SplineSet
697 400 m 1
 697 44 l 1
 662 27 621 14 572 4 c 0
 524 -5 477 -10 431 -10 c 0
 352 -10 283 5 226 35 c 0
 168 65 124 108 93 164 c 0
 62 221 47 288 47 365 c 0
 47 442 62 509 93 566 c 0
 124 622 168 665 226 695 c 0
 283 725 352 740 431 740 c 0
 522 740 602 720 670 680 c 1
 660 663 l 1
 595 701 518 720 431 720 c 0
 356 720 291 706 236 678 c 0
 181 650 140 609 110 556 c 0
 82 503 67 439 67 365 c 0
 67 291 82 227 110 174 c 0
 140 121 181 80 236 52 c 0
 291 24 356 10 431 10 c 0
 473 10 516 14 560 22 c 0
 605 31 644 42 677 57 c 1
 677 380 l 1
 356 380 l 1
 356 400 l 1
 697 400 l 1
304 838 m 0
 274 860 257 889 251 925 c 1
 271 925 l 1
 277 895 293 871 318 852 c 0
 343 834 374 825 410 825 c 0
 446 825 477 834 502 852 c 0
 527 871 543 895 549 925 c 1
 569 925 l 1
 563 889 546 860 516 838 c 0
 488 816 452 805 410 805 c 0
 368 805 332 816 304 838 c 0
EndSplineSet
EndChar

StartChar: Gcaron
Encoding: 486 486 65
Width: 778
Flags: W
LayerCount: 2
Fore
SplineSet
697 400 m 1
 697 44 l 1
 662 27 621 14 572 4 c 0
 524 -5 477 -10 431 -10 c 0
 352 -10 283 5 226 35 c 0
 168 65 124 108 93 164 c 0
 62 221 47 288 47 365 c 0
 47 442 62 509 93 566 c 0
 124 622 168 665 226 695 c 0
 283 725 352 740 431 740 c 0
 522 740 602 720 670 680 c 1
 660 663 l 1
 595 701 518 720 431 720 c 0
 356 720 291 706 236 678 c 0
 181 650 140 609 110 556 c 0
 82 503 67 439 67 365 c 0
 67 291 82 227 110 174 c 0
 140 121 181 80 236 52 c 0
 291 24 356 10 431 10 c 0
 473 10 516 14 560 22 c 0
 605 31 644 42 677 57 c 1
 677 380 l 1
 356 380 l 1
 356 400 l 1
 697 400 l 1
238 980 m 1
 263 980 l 1
 409 785 l 1
 411 785 l 1
 557 980 l 1
 582 980 l 1
 425 770 l 1
 395 770 l 1
 238 980 l 1
EndSplineSet
EndChar

StartChar: Gcircumflex
Encoding: 284 284 66
Width: 778
Flags: W
LayerCount: 2
Fore
SplineSet
697 400 m 1
 697 44 l 1
 662 27 621 14 572 4 c 0
 524 -5 477 -10 431 -10 c 0
 352 -10 283 5 226 35 c 0
 168 65 124 108 93 164 c 0
 62 221 47 288 47 365 c 0
 47 442 62 509 93 566 c 0
 124 622 168 665 226 695 c 0
 283 725 352 740 431 740 c 0
 522 740 602 720 670 680 c 1
 660 663 l 1
 595 701 518 720 431 720 c 0
 356 720 291 706 236 678 c 0
 181 650 140 609 110 556 c 0
 82 503 67 439 67 365 c 0
 67 291 82 227 110 174 c 0
 140 121 181 80 236 52 c 0
 291 24 356 10 431 10 c 0
 473 10 516 14 560 22 c 0
 605 31 644 42 677 57 c 1
 677 380 l 1
 356 380 l 1
 356 400 l 1
 697 400 l 1
395 980 m 1
 425 980 l 1
 582 770 l 1
 557 770 l 1
 411 965 l 1
 409 965 l 1
 263 770 l 1
 238 770 l 1
 395 980 l 1
EndSplineSet
EndChar

StartChar: uni0122
Encoding: 290 290 67
Width: 778
Flags: W
LayerCount: 2
Fore
SplineSet
697 400 m 1
 697 44 l 1
 662 27 621 14 572 4 c 0
 524 -5 477 -10 431 -10 c 0
 352 -10 283 5 226 35 c 0
 168 65 124 108 93 164 c 0
 62 221 47 288 47 365 c 0
 47 442 62 509 93 566 c 0
 124 622 168 665 226 695 c 0
 283 725 352 740 431 740 c 0
 522 740 602 720 670 680 c 1
 660 663 l 1
 595 701 518 720 431 720 c 0
 356 720 291 706 236 678 c 0
 181 650 140 609 110 556 c 0
 82 503 67 439 67 365 c 0
 67 291 82 227 110 174 c 0
 140 121 181 80 236 52 c 0
 291 24 356 10 431 10 c 0
 473 10 516 14 560 22 c 0
 605 31 644 42 677 57 c 1
 677 380 l 1
 356 380 l 1
 356 400 l 1
 697 400 l 1
361 -250 m 1
 338 -250 l 1
 459 -40 l 1
 482 -40 l 1
 361 -250 l 1
EndSplineSet
EndChar

StartChar: Gdotaccent
Encoding: 288 288 68
Width: 778
Flags: W
LayerCount: 2
Fore
SplineSet
697 400 m 1
 697 44 l 1
 662 27 621 14 572 4 c 0
 524 -5 477 -10 431 -10 c 0
 352 -10 283 5 226 35 c 0
 168 65 124 108 93 164 c 0
 62 221 47 288 47 365 c 0
 47 442 62 509 93 566 c 0
 124 622 168 665 226 695 c 0
 283 725 352 740 431 740 c 0
 522 740 602 720 670 680 c 1
 660 663 l 1
 595 701 518 720 431 720 c 0
 356 720 291 706 236 678 c 0
 181 650 140 609 110 556 c 0
 82 503 67 439 67 365 c 0
 67 291 82 227 110 174 c 0
 140 121 181 80 236 52 c 0
 291 24 356 10 431 10 c 0
 473 10 516 14 560 22 c 0
 605 31 644 42 677 57 c 1
 677 380 l 1
 356 380 l 1
 356 400 l 1
 697 400 l 1
380 905 m 1
 440 905 l 1
 440 845 l 1
 380 845 l 1
 380 905 l 1
EndSplineSet
EndChar

StartChar: H
Encoding: 72 72 69
Width: 700
Flags: W
LayerCount: 2
Fore
SplineSet
585 730 m 1
 605 730 l 1
 605 0 l 1
 585 0 l 1
 585 380 l 1
 115 380 l 1
 115 0 l 1
 95 0 l 1
 95 730 l 1
 115 730 l 1
 115 400 l 1
 585 400 l 1
 585 730 l 1
EndSplineSet
EndChar

StartChar: Hbar
Encoding: 294 294 70
Width: 760
Flags: W
LayerCount: 2
Fore
SplineSet
730 606 m 1
 730 586 l 1
 635 586 l 1
 635 0 l 1
 615 0 l 1
 615 380 l 1
 145 380 l 1
 145 0 l 1
 125 0 l 1
 125 586 l 1
 30 586 l 1
 30 606 l 1
 125 606 l 1
 125 730 l 1
 145 730 l 1
 145 606 l 1
 615 606 l 1
 615 730 l 1
 635 730 l 1
 635 606 l 1
 730 606 l 1
615 400 m 1
 615 586 l 1
 145 586 l 1
 145 400 l 1
 615 400 l 1
EndSplineSet
EndChar

StartChar: Hcircumflex
Encoding: 292 292 71
Width: 700
Flags: W
LayerCount: 2
Fore
SplineSet
585 730 m 1
 605 730 l 1
 605 0 l 1
 585 0 l 1
 585 380 l 1
 115 380 l 1
 115 0 l 1
 95 0 l 1
 95 730 l 1
 115 730 l 1
 115 400 l 1
 585 400 l 1
 585 730 l 1
335 980 m 1
 365 980 l 1
 522 770 l 1
 497 770 l 1
 351 965 l 1
 349 965 l 1
 203 770 l 1
 178 770 l 1
 335 980 l 1
EndSplineSet
EndChar

StartChar: I
Encoding: 73 73 72
Width: 230
Flags: W
LayerCount: 2
Fore
SplineSet
105 730 m 1
 125 730 l 1
 125 0 l 1
 105 0 l 1
 105 730 l 1
EndSplineSet
EndChar

StartChar: Iacute
Encoding: 205 205 73
Width: 230
Flags: W
LayerCount: 2
Fore
SplineSet
105 730 m 1
 125 730 l 1
 125 0 l 1
 105 0 l 1
 105 730 l 1
66 770 m 1
 43 770 l 1
 164 980 l 1
 187 980 l 1
 66 770 l 1
EndSplineSet
EndChar

StartChar: Ibreve
Encoding: 300 300 74
Width: 230
Flags: W
LayerCount: 2
Fore
SplineSet
105 730 m 1
 125 730 l 1
 125 0 l 1
 105 0 l 1
 105 730 l 1
8 838 m 0
 -20 860 -38 889 -44 925 c 1
 -24 925 l 1
 -18 895 -2 871 23 852 c 0
 48 834 79 825 115 825 c 0
 151 825 182 834 207 852 c 0
 232 871 248 895 254 925 c 1
 274 925 l 1
 268 889 250 860 222 838 c 0
 192 816 157 805 115 805 c 0
 73 805 38 816 8 838 c 0
EndSplineSet
EndChar

StartChar: Icircumflex
Encoding: 206 206 75
Width: 230
Flags: W
LayerCount: 2
Fore
SplineSet
105 730 m 1
 125 730 l 1
 125 0 l 1
 105 0 l 1
 105 730 l 1
100 980 m 1
 130 980 l 1
 287 770 l 1
 262 770 l 1
 116 965 l 1
 114 965 l 1
 -32 770 l 1
 -57 770 l 1
 100 980 l 1
EndSplineSet
EndChar

StartChar: uni0208
Encoding: 520 520 76
Width: 230
Flags: W
LayerCount: 2
Fore
SplineSet
105 730 m 1
 125 730 l 1
 125 0 l 1
 105 0 l 1
 105 730 l 1
-56 980 m 1
 -33 980 l 1
 88 770 l 1
 65 770 l 1
 -56 980 l 1
124 980 m 1
 147 980 l 1
 268 770 l 1
 245 770 l 1
 124 980 l 1
EndSplineSet
EndChar

StartChar: Idieresis
Encoding: 207 207 77
Width: 230
Flags: W
LayerCount: 2
Fore
SplineSet
105 730 m 1
 125 730 l 1
 125 0 l 1
 105 0 l 1
 105 730 l 1
-35 905 m 1
 25 905 l 1
 25 845 l 1
 -35 845 l 1
 -35 905 l 1
205 905 m 1
 265 905 l 1
 265 845 l 1
 205 845 l 1
 205 905 l 1
EndSplineSet
EndChar

StartChar: Idotaccent
Encoding: 304 304 78
Width: 230
Flags: W
LayerCount: 2
Fore
SplineSet
105 730 m 1
 125 730 l 1
 125 0 l 1
 105 0 l 1
 105 730 l 1
85 905 m 1
 145 905 l 1
 145 845 l 1
 85 845 l 1
 85 905 l 1
EndSplineSet
EndChar

StartChar: uni1ECA
Encoding: 7882 7882 79
Width: 230
Flags: W
LayerCount: 2
Fore
SplineSet
105 730 m 1
 125 730 l 1
 125 0 l 1
 105 0 l 1
 105 730 l 1
85 -115 m 1
 145 -115 l 1
 145 -175 l 1
 85 -175 l 1
 85 -115 l 1
EndSplineSet
EndChar

StartChar: Igrave
Encoding: 204 204 80
Width: 230
Flags: W
LayerCount: 2
Fore
SplineSet
105 730 m 1
 125 730 l 1
 125 0 l 1
 105 0 l 1
 105 730 l 1
43 980 m 1
 66 980 l 1
 187 770 l 1
 164 770 l 1
 43 980 l 1
EndSplineSet
EndChar

StartChar: uni1EC8
Encoding: 7880 7880 81
Width: 230
Flags: W
LayerCount: 2
Fore
SplineSet
105 730 m 1
 125 730 l 1
 125 0 l 1
 105 0 l 1
 105 730 l 1
214 856 m 0
 217 874 219 890 219 903 c 0
 219 923 212 937 198 944 c 0
 183 951 156 955 115 955 c 0
 75 955 35 950 -4 940 c 1
 -9 959 l 1
 33 970 74 975 115 975 c 0
 161 975 193 970 212 959 c 0
 230 948 239 930 239 903 c 0
 239 890 238 876 234 859 c 0
 232 842 228 828 223 815 c 1
 201 815 l 1
 206 825 210 839 214 856 c 0
EndSplineSet
EndChar

StartChar: uni020A
Encoding: 522 522 82
Width: 230
Flags: W
LayerCount: 2
Fore
SplineSet
105 730 m 1
 125 730 l 1
 125 0 l 1
 105 0 l 1
 105 730 l 1
222 912 m 0
 250 890 268 861 274 825 c 1
 254 825 l 1
 248 855 232 879 207 898 c 0
 182 916 151 925 115 925 c 0
 79 925 48 916 23 898 c 0
 -2 879 -18 855 -24 825 c 1
 -44 825 l 1
 -38 861 -20 890 8 912 c 0
 38 934 73 945 115 945 c 0
 157 945 192 934 222 912 c 0
EndSplineSet
EndChar

StartChar: Imacron
Encoding: 298 298 83
Width: 230
Flags: W
LayerCount: 2
Fore
SplineSet
105 730 m 1
 125 730 l 1
 125 0 l 1
 105 0 l 1
 105 730 l 1
-52 885 m 1
 282 885 l 1
 282 865 l 1
 -52 865 l 1
 -52 885 l 1
EndSplineSet
EndChar

StartChar: Iogonek
Encoding: 302 302 84
Width: 230
Flags: W
LayerCount: 2
Fore
SplineSet
212 -199 m 1
 182 -213 148 -220 111 -220 c 0
 62 -220 28 -211 10 -194 c 0
 -8 -177 -17 -157 -17 -135 c 0
 -17 -109 -6 -84 15 -58 c 0
 36 -34 66 -10 105 11 c 1
 105 730 l 1
 125 730 l 1
 125 0 l 1
 86 -21 56 -44 34 -66 c 0
 14 -90 3 -112 3 -135 c 0
 3 -160 14 -177 34 -186 c 0
 56 -195 81 -200 111 -200 c 0
 146 -200 177 -194 204 -181 c 1
 212 -199 l 1
EndSplineSet
EndChar

StartChar: Itilde
Encoding: 296 296 85
Width: 230
Flags: W
LayerCount: 2
Fore
SplineSet
105 730 m 1
 125 730 l 1
 125 0 l 1
 105 0 l 1
 105 730 l 1
109 867 m 0
 66 899 35 915 14 915 c 0
 -11 915 -24 885 -24 825 c 1
 -44 825 l 1
 -44 862 -39 889 -30 908 c 0
 -21 926 -6 935 14 935 c 0
 39 935 75 918 121 883 c 0
 164 851 196 835 216 835 c 0
 241 835 254 865 254 925 c 1
 274 925 l 1
 274 852 255 815 216 815 c 0
 192 815 156 832 109 867 c 0
EndSplineSet
EndChar

StartChar: J
Encoding: 74 74 86
Width: 549
Flags: W
LayerCount: 2
Fore
SplineSet
109 6 m 0
 72 17 41 31 14 50 c 1
 26 66 l 1
 51 49 81 35 116 25 c 0
 151 15 186 10 223 10 c 0
 298 10 354 32 390 76 c 0
 426 120 444 188 444 280 c 2
 444 730 l 1
 464 730 l 1
 464 280 l 2
 464 183 444 110 404 62 c 0
 365 14 304 -10 223 -10 c 0
 184 -10 146 -5 109 6 c 0
EndSplineSet
EndChar

StartChar: Jcircumflex
Encoding: 308 308 87
Width: 549
Flags: W
LayerCount: 2
Fore
SplineSet
109 6 m 0
 72 17 41 31 14 50 c 1
 26 66 l 1
 51 49 81 35 116 25 c 0
 151 15 186 10 223 10 c 0
 298 10 354 32 390 76 c 0
 426 120 444 188 444 280 c 2
 444 730 l 1
 464 730 l 1
 464 280 l 2
 464 183 444 110 404 62 c 0
 365 14 304 -10 223 -10 c 0
 184 -10 146 -5 109 6 c 0
260 980 m 1
 290 980 l 1
 447 770 l 1
 422 770 l 1
 276 965 l 1
 274 965 l 1
 128 770 l 1
 103 770 l 1
 260 980 l 1
EndSplineSet
EndChar

StartChar: K
Encoding: 75 75 88
Width: 604
Flags: W
LayerCount: 2
Fore
SplineSet
95 730 m 1
 115 730 l 1
 115 404 l 1
 117 404 l 1
 532 730 l 1
 565 730 l 1
 130 390 l 1
 575 0 l 1
 545 0 l 1
 117 376 l 1
 115 376 l 1
 115 0 l 1
 95 0 l 1
 95 730 l 1
EndSplineSet
EndChar

StartChar: uni0136
Encoding: 310 310 89
Width: 604
Flags: W
LayerCount: 2
Fore
SplineSet
95 730 m 1
 115 730 l 1
 115 404 l 1
 117 404 l 1
 532 730 l 1
 565 730 l 1
 130 390 l 1
 575 0 l 1
 545 0 l 1
 117 376 l 1
 115 376 l 1
 115 0 l 1
 95 0 l 1
 95 730 l 1
231 -250 m 1
 208 -250 l 1
 329 -40 l 1
 352 -40 l 1
 231 -250 l 1
EndSplineSet
EndChar

StartChar: L
Encoding: 76 76 90
Width: 583
Flags: W
LayerCount: 2
Fore
SplineSet
95 730 m 1
 115 730 l 1
 115 20 l 1
 535 20 l 1
 535 0 l 1
 95 0 l 1
 95 730 l 1
EndSplineSet
EndChar

StartChar: uni01C7
Encoding: 455 455 91
Width: 1152
Flags: W
LayerCount: 2
Fore
SplineSet
95 730 m 1
 115 730 l 1
 115 20 l 1
 535 20 l 1
 535 0 l 1
 95 0 l 1
 95 730 l 1
712 6 m 0
 675 17 644 31 617 50 c 1
 629 66 l 1
 654 49 684 35 719 25 c 0
 754 15 789 10 826 10 c 0
 901 10 957 32 993 76 c 0
 1029 120 1047 188 1047 280 c 2
 1047 730 l 1
 1067 730 l 1
 1067 280 l 2
 1067 183 1047 110 1008 62 c 0
 968 14 907 -10 826 -10 c 0
 787 -10 749 -5 712 6 c 0
EndSplineSet
EndChar

StartChar: Lacute
Encoding: 313 313 92
Width: 583
Flags: W
LayerCount: 2
Fore
SplineSet
95 730 m 1
 115 730 l 1
 115 20 l 1
 535 20 l 1
 535 0 l 1
 95 0 l 1
 95 730 l 1
243 770 m 1
 220 770 l 1
 341 980 l 1
 364 980 l 1
 243 770 l 1
EndSplineSet
EndChar

StartChar: Lcaron
Encoding: 317 317 93
Width: 597
Flags: W
LayerCount: 2
Fore
SplineSet
95 730 m 1
 115 730 l 1
 115 20 l 1
 535 20 l 1
 535 0 l 1
 95 0 l 1
 95 730 l 1
517 770 m 1
 539 770 l 1
 430 470 l 1
 408 470 l 1
 517 770 l 1
EndSplineSet
EndChar

StartChar: uni013B
Encoding: 315 315 94
Width: 583
Flags: W
LayerCount: 2
Fore
SplineSet
95 730 m 1
 115 730 l 1
 115 20 l 1
 535 20 l 1
 535 0 l 1
 95 0 l 1
 95 730 l 1
243 -250 m 1
 220 -250 l 1
 341 -40 l 1
 364 -40 l 1
 243 -250 l 1
EndSplineSet
EndChar

StartChar: Ldot
Encoding: 319 319 95
Width: 613
Flags: W
LayerCount: 2
Fore
SplineSet
95 730 m 1
 115 730 l 1
 115 20 l 1
 535 20 l 1
 535 0 l 1
 95 0 l 1
 95 730 l 1
435 405 m 1
 495 405 l 1
 495 345 l 1
 435 345 l 1
 435 405 l 1
EndSplineSet
EndChar

StartChar: uni01C8
Encoding: 456 456 96
Width: 881
Flags: W
LayerCount: 2
Fore
SplineSet
95 730 m 1
 115 730 l 1
 115 20 l 1
 535 20 l 1
 535 0 l 1
 95 0 l 1
 95 730 l 1
727 730 m 1
 787 730 l 1
 787 670 l 1
 727 670 l 1
 727 730 l 1
660 -192 m 0
 692 -181 715 -160 728 -132 c 0
 741 -102 747 -59 747 0 c 2
 747 520 l 1
 767 520 l 1
 767 0 l 2
 767 -62 760 -109 745 -142 c 0
 730 -174 705 -197 669 -210 c 0
 633 -223 581 -230 512 -230 c 1
 512 -210 l 1
 577 -210 626 -204 660 -192 c 0
EndSplineSet
EndChar

StartChar: Lslash
Encoding: 321 321 97
Width: 665
Flags: W
LayerCount: 2
Fore
SplineSet
197 20 m 1
 617 20 l 1
 617 0 l 1
 177 0 l 1
 177 350 l 1
 26 281 l 1
 18 299 l 1
 177 371 l 1
 177 730 l 1
 197 730 l 1
 197 380 l 1
 348 449 l 1
 356 431 l 1
 197 359 l 1
 197 20 l 1
EndSplineSet
EndChar

StartChar: M
Encoding: 77 77 98
Width: 850
Flags: W
LayerCount: 2
Fore
SplineSet
95 730 m 1
 126 730 l 1
 424 174 l 1
 426 174 l 1
 724 730 l 1
 755 730 l 1
 755 0 l 1
 735 0 l 1
 735 709 l 1
 733 709 l 1
 437 155 l 1
 413 155 l 1
 117 709 l 1
 115 709 l 1
 115 0 l 1
 95 0 l 1
 95 730 l 1
EndSplineSet
EndChar

StartChar: N
Encoding: 78 78 99
Width: 710
Flags: W
LayerCount: 2
Fore
SplineSet
95 730 m 1
 127 730 l 1
 593 21 l 1
 595 21 l 1
 595 730 l 1
 615 730 l 1
 615 0 l 1
 583 0 l 1
 117 709 l 1
 115 709 l 1
 115 0 l 1
 95 0 l 1
 95 730 l 1
EndSplineSet
EndChar

StartChar: uni01CA
Encoding: 458 458 100
Width: 1259
Flags: W
LayerCount: 2
Fore
SplineSet
95 730 m 1
 127 730 l 1
 593 21 l 1
 595 21 l 1
 595 730 l 1
 615 730 l 1
 615 0 l 1
 583 0 l 1
 117 709 l 1
 115 709 l 1
 115 0 l 1
 95 0 l 1
 95 730 l 1
819 6 m 0
 782 17 751 31 724 50 c 1
 736 66 l 1
 761 49 791 35 826 25 c 0
 861 15 896 10 933 10 c 0
 1008 10 1064 32 1100 76 c 0
 1136 120 1154 188 1154 280 c 2
 1154 730 l 1
 1174 730 l 1
 1174 280 l 2
 1174 183 1154 110 1114 62 c 0
 1075 14 1014 -10 933 -10 c 0
 894 -10 856 -5 819 6 c 0
EndSplineSet
EndChar

StartChar: Nacute
Encoding: 323 323 101
Width: 710
Flags: W
LayerCount: 2
Fore
SplineSet
95 730 m 1
 127 730 l 1
 593 21 l 1
 595 21 l 1
 595 730 l 1
 615 730 l 1
 615 0 l 1
 583 0 l 1
 117 709 l 1
 115 709 l 1
 115 0 l 1
 95 0 l 1
 95 730 l 1
306 770 m 1
 283 770 l 1
 404 980 l 1
 427 980 l 1
 306 770 l 1
EndSplineSet
EndChar

StartChar: Ncaron
Encoding: 327 327 102
Width: 710
Flags: W
LayerCount: 2
Fore
SplineSet
95 730 m 1
 127 730 l 1
 593 21 l 1
 595 21 l 1
 595 730 l 1
 615 730 l 1
 615 0 l 1
 583 0 l 1
 117 709 l 1
 115 709 l 1
 115 0 l 1
 95 0 l 1
 95 730 l 1
183 980 m 1
 208 980 l 1
 354 785 l 1
 356 785 l 1
 502 980 l 1
 527 980 l 1
 370 770 l 1
 340 770 l 1
 183 980 l 1
EndSplineSet
EndChar

StartChar: uni0145
Encoding: 325 325 103
Width: 710
Flags: W
LayerCount: 2
Fore
SplineSet
95 730 m 1
 127 730 l 1
 593 21 l 1
 595 21 l 1
 595 730 l 1
 615 730 l 1
 615 0 l 1
 583 0 l 1
 117 709 l 1
 115 709 l 1
 115 0 l 1
 95 0 l 1
 95 730 l 1
306 -250 m 1
 283 -250 l 1
 404 -40 l 1
 427 -40 l 1
 306 -250 l 1
EndSplineSet
EndChar

StartChar: Eng
Encoding: 330 330 104
Width: 710
Flags: W
LayerCount: 2
Fore
SplineSet
615 730 m 1
 615 -61 l 2
 615 -112 604 -150 582 -174 c 0
 559 -199 524 -211 475 -211 c 0
 448 -211 422 -206 395 -196 c 1
 402 -177 l 1
 425 -186 449 -191 475 -191 c 0
 518 -191 548 -181 567 -160 c 0
 586 -140 595 -107 595 -61 c 2
 595 -18 l 1
 117 709 l 1
 115 709 l 1
 115 0 l 1
 95 0 l 1
 95 730 l 1
 127 730 l 1
 593 21 l 1
 595 21 l 1
 595 730 l 1
 615 730 l 1
EndSplineSet
EndChar

StartChar: uni01CB
Encoding: 459 459 105
Width: 1008
Flags: W
LayerCount: 2
Fore
SplineSet
95 730 m 1
 127 730 l 1
 593 21 l 1
 595 21 l 1
 595 730 l 1
 615 730 l 1
 615 0 l 1
 583 0 l 1
 117 709 l 1
 115 709 l 1
 115 0 l 1
 95 0 l 1
 95 730 l 1
854 730 m 1
 914 730 l 1
 914 670 l 1
 854 670 l 1
 854 730 l 1
786 -192 m 0
 820 -181 842 -160 855 -132 c 0
 868 -102 874 -59 874 0 c 2
 874 520 l 1
 894 520 l 1
 894 0 l 2
 894 -62 887 -109 872 -142 c 0
 857 -174 832 -197 796 -210 c 0
 760 -223 708 -230 639 -230 c 1
 639 -210 l 1
 704 -210 754 -204 786 -192 c 0
EndSplineSet
EndChar

StartChar: Ntilde
Encoding: 209 209 106
Width: 710
Flags: W
LayerCount: 2
Fore
SplineSet
95 730 m 1
 127 730 l 1
 593 21 l 1
 595 21 l 1
 595 730 l 1
 615 730 l 1
 615 0 l 1
 583 0 l 1
 117 709 l 1
 115 709 l 1
 115 0 l 1
 95 0 l 1
 95 730 l 1
349 867 m 0
 306 899 275 915 254 915 c 0
 229 915 216 885 216 825 c 1
 196 825 l 1
 196 862 201 889 210 908 c 0
 219 926 234 935 254 935 c 0
 279 935 315 918 361 883 c 0
 404 851 436 835 456 835 c 0
 481 835 494 865 494 925 c 1
 514 925 l 1
 514 852 495 815 456 815 c 0
 432 815 396 832 349 867 c 0
EndSplineSet
EndChar

StartChar: O
Encoding: 79 79 107
Width: 794
Flags: W
LayerCount: 2
Fore
SplineSet
214 37 m 0
 162 68 120 112 91 170 c 0
 62 226 47 292 47 365 c 0
 47 438 62 504 91 560 c 0
 120 618 162 662 214 693 c 0
 268 724 328 740 397 740 c 0
 466 740 526 724 580 693 c 0
 632 662 674 618 703 560 c 0
 732 504 747 438 747 365 c 0
 747 292 732 226 703 170 c 0
 674 112 632 68 580 37 c 0
 526 6 466 -10 397 -10 c 0
 328 -10 268 6 214 37 c 0
570 54 m 0
 619 84 658 126 686 180 c 0
 713 233 727 295 727 365 c 0
 727 435 713 497 686 550 c 0
 658 604 619 646 570 676 c 0
 520 705 462 720 397 720 c 0
 332 720 274 705 224 676 c 0
 175 646 136 604 108 550 c 0
 81 497 67 435 67 365 c 0
 67 295 81 233 108 180 c 0
 136 126 175 84 224 54 c 0
 274 25 332 10 397 10 c 0
 462 10 520 25 570 54 c 0
EndSplineSet
EndChar

StartChar: Oacute
Encoding: 211 211 108
Width: 794
Flags: W
LayerCount: 2
Fore
SplineSet
214 37 m 0
 162 68 120 112 91 170 c 0
 62 226 47 292 47 365 c 0
 47 438 62 504 91 560 c 0
 120 618 162 662 214 693 c 0
 268 724 328 740 397 740 c 0
 466 740 526 724 580 693 c 0
 632 662 674 618 703 560 c 0
 732 504 747 438 747 365 c 0
 747 292 732 226 703 170 c 0
 674 112 632 68 580 37 c 0
 526 6 466 -10 397 -10 c 0
 328 -10 268 6 214 37 c 0
570 54 m 0
 619 84 658 126 686 180 c 0
 713 233 727 295 727 365 c 0
 727 435 713 497 686 550 c 0
 658 604 619 646 570 676 c 0
 520 705 462 720 397 720 c 0
 332 720 274 705 224 676 c 0
 175 646 136 604 108 550 c 0
 81 497 67 435 67 365 c 0
 67 295 81 233 108 180 c 0
 136 126 175 84 224 54 c 0
 274 25 332 10 397 10 c 0
 462 10 520 25 570 54 c 0
348 770 m 1
 325 770 l 1
 446 980 l 1
 469 980 l 1
 348 770 l 1
EndSplineSet
EndChar

StartChar: Obreve
Encoding: 334 334 109
Width: 794
Flags: W
LayerCount: 2
Fore
SplineSet
214 37 m 0
 162 68 120 112 91 170 c 0
 62 226 47 292 47 365 c 0
 47 438 62 504 91 560 c 0
 120 618 162 662 214 693 c 0
 268 724 328 740 397 740 c 0
 466 740 526 724 580 693 c 0
 632 662 674 618 703 560 c 0
 732 504 747 438 747 365 c 0
 747 292 732 226 703 170 c 0
 674 112 632 68 580 37 c 0
 526 6 466 -10 397 -10 c 0
 328 -10 268 6 214 37 c 0
570 54 m 0
 619 84 658 126 686 180 c 0
 713 233 727 295 727 365 c 0
 727 435 713 497 686 550 c 0
 658 604 619 646 570 676 c 0
 520 705 462 720 397 720 c 0
 332 720 274 705 224 676 c 0
 175 646 136 604 108 550 c 0
 81 497 67 435 67 365 c 0
 67 295 81 233 108 180 c 0
 136 126 175 84 224 54 c 0
 274 25 332 10 397 10 c 0
 462 10 520 25 570 54 c 0
290 838 m 0
 262 860 244 889 238 925 c 1
 258 925 l 1
 264 895 280 871 305 852 c 0
 330 834 361 825 397 825 c 0
 433 825 464 834 489 852 c 0
 514 871 530 895 536 925 c 1
 556 925 l 1
 550 889 532 860 504 838 c 0
 474 816 439 805 397 805 c 0
 355 805 320 816 290 838 c 0
EndSplineSet
EndChar

StartChar: Ocircumflex
Encoding: 212 212 110
Width: 794
Flags: W
LayerCount: 2
Fore
SplineSet
214 37 m 0
 162 68 120 112 91 170 c 0
 62 226 47 292 47 365 c 0
 47 438 62 504 91 560 c 0
 120 618 162 662 214 693 c 0
 268 724 328 740 397 740 c 0
 466 740 526 724 580 693 c 0
 632 662 674 618 703 560 c 0
 732 504 747 438 747 365 c 0
 747 292 732 226 703 170 c 0
 674 112 632 68 580 37 c 0
 526 6 466 -10 397 -10 c 0
 328 -10 268 6 214 37 c 0
570 54 m 0
 619 84 658 126 686 180 c 0
 713 233 727 295 727 365 c 0
 727 435 713 497 686 550 c 0
 658 604 619 646 570 676 c 0
 520 705 462 720 397 720 c 0
 332 720 274 705 224 676 c 0
 175 646 136 604 108 550 c 0
 81 497 67 435 67 365 c 0
 67 295 81 233 108 180 c 0
 136 126 175 84 224 54 c 0
 274 25 332 10 397 10 c 0
 462 10 520 25 570 54 c 0
382 980 m 1
 412 980 l 1
 569 770 l 1
 544 770 l 1
 398 965 l 1
 396 965 l 1
 250 770 l 1
 225 770 l 1
 382 980 l 1
EndSplineSet
EndChar

StartChar: uni1ED0
Encoding: 7888 7888 111
Width: 794
Flags: W
LayerCount: 2
Fore
SplineSet
214 37 m 0
 162 68 120 112 91 170 c 0
 62 226 47 292 47 365 c 0
 47 438 62 504 91 560 c 0
 120 618 162 662 214 693 c 0
 268 724 328 740 397 740 c 0
 466 740 526 724 580 693 c 0
 632 662 674 618 703 560 c 0
 732 504 747 438 747 365 c 0
 747 292 732 226 703 170 c 0
 674 112 632 68 580 37 c 0
 526 6 466 -10 397 -10 c 0
 328 -10 268 6 214 37 c 0
570 54 m 0
 619 84 658 126 686 180 c 0
 713 233 727 295 727 365 c 0
 727 435 713 497 686 550 c 0
 658 604 619 646 570 676 c 0
 520 705 462 720 397 720 c 0
 332 720 274 705 224 676 c 0
 175 646 136 604 108 550 c 0
 81 497 67 435 67 365 c 0
 67 295 81 233 108 180 c 0
 136 126 175 84 224 54 c 0
 274 25 332 10 397 10 c 0
 462 10 520 25 570 54 c 0
382 980 m 1
 412 980 l 1
 569 770 l 1
 544 770 l 1
 398 965 l 1
 396 965 l 1
 250 770 l 1
 225 770 l 1
 382 980 l 1
492 950 m 1
 469 950 l 1
 590 1160 l 1
 613 1160 l 1
 492 950 l 1
EndSplineSet
EndChar

StartChar: uni1ED8
Encoding: 7896 7896 112
Width: 794
Flags: W
LayerCount: 2
Fore
SplineSet
214 37 m 0
 162 68 120 112 91 170 c 0
 62 226 47 292 47 365 c 0
 47 438 62 504 91 560 c 0
 120 618 162 662 214 693 c 0
 268 724 328 740 397 740 c 0
 466 740 526 724 580 693 c 0
 632 662 674 618 703 560 c 0
 732 504 747 438 747 365 c 0
 747 292 732 226 703 170 c 0
 674 112 632 68 580 37 c 0
 526 6 466 -10 397 -10 c 0
 328 -10 268 6 214 37 c 0
570 54 m 0
 619 84 658 126 686 180 c 0
 713 233 727 295 727 365 c 0
 727 435 713 497 686 550 c 0
 658 604 619 646 570 676 c 0
 520 705 462 720 397 720 c 0
 332 720 274 705 224 676 c 0
 175 646 136 604 108 550 c 0
 81 497 67 435 67 365 c 0
 67 295 81 233 108 180 c 0
 136 126 175 84 224 54 c 0
 274 25 332 10 397 10 c 0
 462 10 520 25 570 54 c 0
367 -115 m 1
 427 -115 l 1
 427 -175 l 1
 367 -175 l 1
 367 -115 l 1
382 980 m 1
 412 980 l 1
 569 770 l 1
 544 770 l 1
 398 965 l 1
 396 965 l 1
 250 770 l 1
 225 770 l 1
 382 980 l 1
EndSplineSet
EndChar

StartChar: uni1ED2
Encoding: 7890 7890 113
Width: 794
Flags: W
LayerCount: 2
Fore
SplineSet
214 37 m 0
 162 68 120 112 91 170 c 0
 62 226 47 292 47 365 c 0
 47 438 62 504 91 560 c 0
 120 618 162 662 214 693 c 0
 268 724 328 740 397 740 c 0
 466 740 526 724 580 693 c 0
 632 662 674 618 703 560 c 0
 732 504 747 438 747 365 c 0
 747 292 732 226 703 170 c 0
 674 112 632 68 580 37 c 0
 526 6 466 -10 397 -10 c 0
 328 -10 268 6 214 37 c 0
570 54 m 0
 619 84 658 126 686 180 c 0
 713 233 727 295 727 365 c 0
 727 435 713 497 686 550 c 0
 658 604 619 646 570 676 c 0
 520 705 462 720 397 720 c 0
 332 720 274 705 224 676 c 0
 175 646 136 604 108 550 c 0
 81 497 67 435 67 365 c 0
 67 295 81 233 108 180 c 0
 136 126 175 84 224 54 c 0
 274 25 332 10 397 10 c 0
 462 10 520 25 570 54 c 0
382 980 m 1
 412 980 l 1
 569 770 l 1
 544 770 l 1
 398 965 l 1
 396 965 l 1
 250 770 l 1
 225 770 l 1
 382 980 l 1
181 1160 m 1
 204 1160 l 1
 325 950 l 1
 302 950 l 1
 181 1160 l 1
EndSplineSet
EndChar

StartChar: uni1ED4
Encoding: 7892 7892 114
Width: 794
Flags: W
LayerCount: 2
Fore
SplineSet
214 37 m 0
 162 68 120 112 91 170 c 0
 62 226 47 292 47 365 c 0
 47 438 62 504 91 560 c 0
 120 618 162 662 214 693 c 0
 268 724 328 740 397 740 c 0
 466 740 526 724 580 693 c 0
 632 662 674 618 703 560 c 0
 732 504 747 438 747 365 c 0
 747 292 732 226 703 170 c 0
 674 112 632 68 580 37 c 0
 526 6 466 -10 397 -10 c 0
 328 -10 268 6 214 37 c 0
570 54 m 0
 619 84 658 126 686 180 c 0
 713 233 727 295 727 365 c 0
 727 435 713 497 686 550 c 0
 658 604 619 646 570 676 c 0
 520 705 462 720 397 720 c 0
 332 720 274 705 224 676 c 0
 175 646 136 604 108 550 c 0
 81 497 67 435 67 365 c 0
 67 295 81 233 108 180 c 0
 136 126 175 84 224 54 c 0
 274 25 332 10 397 10 c 0
 462 10 520 25 570 54 c 0
382 980 m 1
 412 980 l 1
 569 770 l 1
 544 770 l 1
 398 965 l 1
 396 965 l 1
 250 770 l 1
 225 770 l 1
 382 980 l 1
530 986 m 0
 533 1004 535 1020 535 1033 c 0
 535 1053 528 1067 514 1074 c 0
 499 1081 472 1085 431 1085 c 0
 391 1085 351 1080 312 1070 c 1
 307 1089 l 1
 349 1100 390 1105 431 1105 c 0
 477 1105 509 1100 528 1089 c 0
 546 1078 555 1060 555 1033 c 0
 555 1020 554 1006 550 989 c 0
 548 972 544 958 539 945 c 1
 517 945 l 1
 522 955 526 969 530 986 c 0
EndSplineSet
EndChar

StartChar: uni1ED6
Encoding: 7894 7894 115
Width: 794
Flags: W
LayerCount: 2
Fore
SplineSet
214 37 m 0
 162 68 120 112 91 170 c 0
 62 226 47 292 47 365 c 0
 47 438 62 504 91 560 c 0
 120 618 162 662 214 693 c 0
 268 724 328 740 397 740 c 0
 466 740 526 724 580 693 c 0
 632 662 674 618 703 560 c 0
 732 504 747 438 747 365 c 0
 747 292 732 226 703 170 c 0
 674 112 632 68 580 37 c 0
 526 6 466 -10 397 -10 c 0
 328 -10 268 6 214 37 c 0
570 54 m 0
 619 84 658 126 686 180 c 0
 713 233 727 295 727 365 c 0
 727 435 713 497 686 550 c 0
 658 604 619 646 570 676 c 0
 520 705 462 720 397 720 c 0
 332 720 274 705 224 676 c 0
 175 646 136 604 108 550 c 0
 81 497 67 435 67 365 c 0
 67 295 81 233 108 180 c 0
 136 126 175 84 224 54 c 0
 274 25 332 10 397 10 c 0
 462 10 520 25 570 54 c 0
382 980 m 1
 412 980 l 1
 569 770 l 1
 544 770 l 1
 398 965 l 1
 396 965 l 1
 250 770 l 1
 225 770 l 1
 382 980 l 1
391 1037 m 0
 348 1069 317 1085 296 1085 c 0
 271 1085 258 1055 258 995 c 1
 238 995 l 1
 238 1032 243 1059 252 1078 c 0
 261 1096 276 1105 296 1105 c 0
 321 1105 357 1088 403 1053 c 0
 446 1021 478 1005 498 1005 c 0
 523 1005 536 1035 536 1095 c 1
 556 1095 l 1
 556 1022 537 985 498 985 c 0
 474 985 438 1002 391 1037 c 0
EndSplineSet
EndChar

StartChar: uni020C
Encoding: 524 524 116
Width: 794
Flags: W
LayerCount: 2
Fore
SplineSet
214 37 m 0
 162 68 120 112 91 170 c 0
 62 226 47 292 47 365 c 0
 47 438 62 504 91 560 c 0
 120 618 162 662 214 693 c 0
 268 724 328 740 397 740 c 0
 466 740 526 724 580 693 c 0
 632 662 674 618 703 560 c 0
 732 504 747 438 747 365 c 0
 747 292 732 226 703 170 c 0
 674 112 632 68 580 37 c 0
 526 6 466 -10 397 -10 c 0
 328 -10 268 6 214 37 c 0
570 54 m 0
 619 84 658 126 686 180 c 0
 713 233 727 295 727 365 c 0
 727 435 713 497 686 550 c 0
 658 604 619 646 570 676 c 0
 520 705 462 720 397 720 c 0
 332 720 274 705 224 676 c 0
 175 646 136 604 108 550 c 0
 81 497 67 435 67 365 c 0
 67 295 81 233 108 180 c 0
 136 126 175 84 224 54 c 0
 274 25 332 10 397 10 c 0
 462 10 520 25 570 54 c 0
226 980 m 1
 249 980 l 1
 370 770 l 1
 347 770 l 1
 226 980 l 1
406 980 m 1
 429 980 l 1
 550 770 l 1
 527 770 l 1
 406 980 l 1
EndSplineSet
EndChar

StartChar: Odieresis
Encoding: 214 214 117
Width: 794
Flags: W
LayerCount: 2
Fore
SplineSet
214 37 m 0
 162 68 120 112 91 170 c 0
 62 226 47 292 47 365 c 0
 47 438 62 504 91 560 c 0
 120 618 162 662 214 693 c 0
 268 724 328 740 397 740 c 0
 466 740 526 724 580 693 c 0
 632 662 674 618 703 560 c 0
 732 504 747 438 747 365 c 0
 747 292 732 226 703 170 c 0
 674 112 632 68 580 37 c 0
 526 6 466 -10 397 -10 c 0
 328 -10 268 6 214 37 c 0
570 54 m 0
 619 84 658 126 686 180 c 0
 713 233 727 295 727 365 c 0
 727 435 713 497 686 550 c 0
 658 604 619 646 570 676 c 0
 520 705 462 720 397 720 c 0
 332 720 274 705 224 676 c 0
 175 646 136 604 108 550 c 0
 81 497 67 435 67 365 c 0
 67 295 81 233 108 180 c 0
 136 126 175 84 224 54 c 0
 274 25 332 10 397 10 c 0
 462 10 520 25 570 54 c 0
247 905 m 1
 307 905 l 1
 307 845 l 1
 247 845 l 1
 247 905 l 1
487 905 m 1
 547 905 l 1
 547 845 l 1
 487 845 l 1
 487 905 l 1
EndSplineSet
EndChar

StartChar: uni022A
Encoding: 554 554 118
Width: 794
Flags: W
LayerCount: 2
Fore
SplineSet
214 37 m 0
 162 68 120 112 91 170 c 0
 62 226 47 292 47 365 c 0
 47 438 62 504 91 560 c 0
 120 618 162 662 214 693 c 0
 268 724 328 740 397 740 c 0
 466 740 526 724 580 693 c 0
 632 662 674 618 703 560 c 0
 732 504 747 438 747 365 c 0
 747 292 732 226 703 170 c 0
 674 112 632 68 580 37 c 0
 526 6 466 -10 397 -10 c 0
 328 -10 268 6 214 37 c 0
570 54 m 0
 619 84 658 126 686 180 c 0
 713 233 727 295 727 365 c 0
 727 435 713 497 686 550 c 0
 658 604 619 646 570 676 c 0
 520 705 462 720 397 720 c 0
 332 720 274 705 224 676 c 0
 175 646 136 604 108 550 c 0
 81 497 67 435 67 365 c 0
 67 295 81 233 108 180 c 0
 136 126 175 84 224 54 c 0
 274 25 332 10 397 10 c 0
 462 10 520 25 570 54 c 0
247 905 m 1
 307 905 l 1
 307 845 l 1
 247 845 l 1
 247 905 l 1
487 905 m 1
 547 905 l 1
 547 845 l 1
 487 845 l 1
 487 905 l 1
230 1060 m 1
 564 1060 l 1
 564 1040 l 1
 230 1040 l 1
 230 1060 l 1
EndSplineSet
EndChar

StartChar: uni0230
Encoding: 560 560 119
Width: 794
Flags: W
LayerCount: 2
Fore
SplineSet
214 37 m 0
 162 68 120 112 91 170 c 0
 62 226 47 292 47 365 c 0
 47 438 62 504 91 560 c 0
 120 618 162 662 214 693 c 0
 268 724 328 740 397 740 c 0
 466 740 526 724 580 693 c 0
 632 662 674 618 703 560 c 0
 732 504 747 438 747 365 c 0
 747 292 732 226 703 170 c 0
 674 112 632 68 580 37 c 0
 526 6 466 -10 397 -10 c 0
 328 -10 268 6 214 37 c 0
570 54 m 0
 619 84 658 126 686 180 c 0
 713 233 727 295 727 365 c 0
 727 435 713 497 686 550 c 0
 658 604 619 646 570 676 c 0
 520 705 462 720 397 720 c 0
 332 720 274 705 224 676 c 0
 175 646 136 604 108 550 c 0
 81 497 67 435 67 365 c 0
 67 295 81 233 108 180 c 0
 136 126 175 84 224 54 c 0
 274 25 332 10 397 10 c 0
 462 10 520 25 570 54 c 0
367 905 m 1
 427 905 l 1
 427 845 l 1
 367 845 l 1
 367 905 l 1
230 1060 m 1
 564 1060 l 1
 564 1040 l 1
 230 1040 l 1
 230 1060 l 1
EndSplineSet
EndChar

StartChar: uni1ECC
Encoding: 7884 7884 120
Width: 794
Flags: W
LayerCount: 2
Fore
SplineSet
214 37 m 0
 162 68 120 112 91 170 c 0
 62 226 47 292 47 365 c 0
 47 438 62 504 91 560 c 0
 120 618 162 662 214 693 c 0
 268 724 328 740 397 740 c 0
 466 740 526 724 580 693 c 0
 632 662 674 618 703 560 c 0
 732 504 747 438 747 365 c 0
 747 292 732 226 703 170 c 0
 674 112 632 68 580 37 c 0
 526 6 466 -10 397 -10 c 0
 328 -10 268 6 214 37 c 0
570 54 m 0
 619 84 658 126 686 180 c 0
 713 233 727 295 727 365 c 0
 727 435 713 497 686 550 c 0
 658 604 619 646 570 676 c 0
 520 705 462 720 397 720 c 0
 332 720 274 705 224 676 c 0
 175 646 136 604 108 550 c 0
 81 497 67 435 67 365 c 0
 67 295 81 233 108 180 c 0
 136 126 175 84 224 54 c 0
 274 25 332 10 397 10 c 0
 462 10 520 25 570 54 c 0
367 -115 m 1
 427 -115 l 1
 427 -175 l 1
 367 -175 l 1
 367 -115 l 1
EndSplineSet
EndChar

StartChar: Ograve
Encoding: 210 210 121
Width: 794
Flags: W
LayerCount: 2
Fore
SplineSet
214 37 m 0
 162 68 120 112 91 170 c 0
 62 226 47 292 47 365 c 0
 47 438 62 504 91 560 c 0
 120 618 162 662 214 693 c 0
 268 724 328 740 397 740 c 0
 466 740 526 724 580 693 c 0
 632 662 674 618 703 560 c 0
 732 504 747 438 747 365 c 0
 747 292 732 226 703 170 c 0
 674 112 632 68 580 37 c 0
 526 6 466 -10 397 -10 c 0
 328 -10 268 6 214 37 c 0
570 54 m 0
 619 84 658 126 686 180 c 0
 713 233 727 295 727 365 c 0
 727 435 713 497 686 550 c 0
 658 604 619 646 570 676 c 0
 520 705 462 720 397 720 c 0
 332 720 274 705 224 676 c 0
 175 646 136 604 108 550 c 0
 81 497 67 435 67 365 c 0
 67 295 81 233 108 180 c 0
 136 126 175 84 224 54 c 0
 274 25 332 10 397 10 c 0
 462 10 520 25 570 54 c 0
325 980 m 1
 348 980 l 1
 469 770 l 1
 446 770 l 1
 325 980 l 1
EndSplineSet
EndChar

StartChar: uni1ECE
Encoding: 7886 7886 122
Width: 794
Flags: W
LayerCount: 2
Fore
SplineSet
214 37 m 0
 162 68 120 112 91 170 c 0
 62 226 47 292 47 365 c 0
 47 438 62 504 91 560 c 0
 120 618 162 662 214 693 c 0
 268 724 328 740 397 740 c 0
 466 740 526 724 580 693 c 0
 632 662 674 618 703 560 c 0
 732 504 747 438 747 365 c 0
 747 292 732 226 703 170 c 0
 674 112 632 68 580 37 c 0
 526 6 466 -10 397 -10 c 0
 328 -10 268 6 214 37 c 0
570 54 m 0
 619 84 658 126 686 180 c 0
 713 233 727 295 727 365 c 0
 727 435 713 497 686 550 c 0
 658 604 619 646 570 676 c 0
 520 705 462 720 397 720 c 0
 332 720 274 705 224 676 c 0
 175 646 136 604 108 550 c 0
 81 497 67 435 67 365 c 0
 67 295 81 233 108 180 c 0
 136 126 175 84 224 54 c 0
 274 25 332 10 397 10 c 0
 462 10 520 25 570 54 c 0
496 856 m 0
 499 874 501 890 501 903 c 0
 501 923 494 937 480 944 c 0
 465 951 438 955 397 955 c 0
 357 955 317 950 278 940 c 1
 273 959 l 1
 315 970 356 975 397 975 c 0
 443 975 475 970 494 959 c 0
 512 948 521 930 521 903 c 0
 521 890 520 876 516 859 c 0
 514 842 510 828 505 815 c 1
 483 815 l 1
 488 825 492 839 496 856 c 0
EndSplineSet
EndChar

StartChar: Ohorn
Encoding: 416 416 123
Width: 804
Flags: W
LayerCount: 2
Fore
SplineSet
716 530 m 0
 737 481 747 426 747 365 c 0
 747 292 732 226 703 170 c 0
 674 112 632 68 580 37 c 0
 526 6 466 -10 397 -10 c 0
 328 -10 268 6 214 37 c 0
 162 68 120 112 91 170 c 0
 62 226 47 292 47 365 c 0
 47 438 62 504 91 560 c 0
 120 618 162 662 214 693 c 0
 268 724 328 740 397 740 c 0
 468 740 531 723 586 689 c 0
 605 680 624 675 644 675 c 0
 687 675 709 701 709 753 c 0
 709 768 707 784 704 802 c 0
 701 818 697 833 692 845 c 1
 713 845 l 1
 724 813 729 782 729 753 c 0
 729 722 722 698 707 680 c 0
 692 664 671 655 644 655 c 0
 638 655 633 655 630 656 c 1
 667 622 696 580 716 530 c 0
570 54 m 0
 619 84 658 126 686 180 c 0
 713 233 727 295 727 365 c 0
 727 435 713 497 686 550 c 0
 658 604 619 646 570 676 c 0
 520 705 462 720 397 720 c 0
 332 720 274 705 224 676 c 0
 175 646 136 604 108 550 c 0
 81 497 67 435 67 365 c 0
 67 295 81 233 108 180 c 0
 136 126 175 84 224 54 c 0
 274 25 332 10 397 10 c 0
 462 10 520 25 570 54 c 0
EndSplineSet
EndChar

StartChar: uni1EDA
Encoding: 7898 7898 124
Width: 804
Flags: W
LayerCount: 2
Fore
SplineSet
716 530 m 0
 737 481 747 426 747 365 c 0
 747 292 732 226 703 170 c 0
 674 112 632 68 580 37 c 0
 526 6 466 -10 397 -10 c 0
 328 -10 268 6 214 37 c 0
 162 68 120 112 91 170 c 0
 62 226 47 292 47 365 c 0
 47 438 62 504 91 560 c 0
 120 618 162 662 214 693 c 0
 268 724 328 740 397 740 c 0
 468 740 531 723 586 689 c 0
 605 680 624 675 644 675 c 0
 687 675 709 701 709 753 c 0
 709 768 707 784 704 802 c 0
 701 818 697 833 692 845 c 1
 713 845 l 1
 724 813 729 782 729 753 c 0
 729 722 722 698 707 680 c 0
 692 664 671 655 644 655 c 0
 638 655 633 655 630 656 c 1
 667 622 696 580 716 530 c 0
570 54 m 0
 619 84 658 126 686 180 c 0
 713 233 727 295 727 365 c 0
 727 435 713 497 686 550 c 0
 658 604 619 646 570 676 c 0
 520 705 462 720 397 720 c 0
 332 720 274 705 224 676 c 0
 175 646 136 604 108 550 c 0
 81 497 67 435 67 365 c 0
 67 295 81 233 108 180 c 0
 136 126 175 84 224 54 c 0
 274 25 332 10 397 10 c 0
 462 10 520 25 570 54 c 0
348 770 m 1
 325 770 l 1
 446 980 l 1
 469 980 l 1
 348 770 l 1
EndSplineSet
EndChar

StartChar: uni1EE2
Encoding: 7906 7906 125
Width: 804
Flags: W
LayerCount: 2
Fore
SplineSet
716 530 m 0
 737 481 747 426 747 365 c 0
 747 292 732 226 703 170 c 0
 674 112 632 68 580 37 c 0
 526 6 466 -10 397 -10 c 0
 328 -10 268 6 214 37 c 0
 162 68 120 112 91 170 c 0
 62 226 47 292 47 365 c 0
 47 438 62 504 91 560 c 0
 120 618 162 662 214 693 c 0
 268 724 328 740 397 740 c 0
 468 740 531 723 586 689 c 0
 605 680 624 675 644 675 c 0
 687 675 709 701 709 753 c 0
 709 768 707 784 704 802 c 0
 701 818 697 833 692 845 c 1
 713 845 l 1
 724 813 729 782 729 753 c 0
 729 722 722 698 707 680 c 0
 692 664 671 655 644 655 c 0
 638 655 633 655 630 656 c 1
 667 622 696 580 716 530 c 0
570 54 m 0
 619 84 658 126 686 180 c 0
 713 233 727 295 727 365 c 0
 727 435 713 497 686 550 c 0
 658 604 619 646 570 676 c 0
 520 705 462 720 397 720 c 0
 332 720 274 705 224 676 c 0
 175 646 136 604 108 550 c 0
 81 497 67 435 67 365 c 0
 67 295 81 233 108 180 c 0
 136 126 175 84 224 54 c 0
 274 25 332 10 397 10 c 0
 462 10 520 25 570 54 c 0
367 -115 m 1
 427 -115 l 1
 427 -175 l 1
 367 -175 l 1
 367 -115 l 1
EndSplineSet
EndChar

StartChar: uni1EDC
Encoding: 7900 7900 126
Width: 804
Flags: W
LayerCount: 2
Fore
SplineSet
716 530 m 0
 737 481 747 426 747 365 c 0
 747 292 732 226 703 170 c 0
 674 112 632 68 580 37 c 0
 526 6 466 -10 397 -10 c 0
 328 -10 268 6 214 37 c 0
 162 68 120 112 91 170 c 0
 62 226 47 292 47 365 c 0
 47 438 62 504 91 560 c 0
 120 618 162 662 214 693 c 0
 268 724 328 740 397 740 c 0
 468 740 531 723 586 689 c 0
 605 680 624 675 644 675 c 0
 687 675 709 701 709 753 c 0
 709 768 707 784 704 802 c 0
 701 818 697 833 692 845 c 1
 713 845 l 1
 724 813 729 782 729 753 c 0
 729 722 722 698 707 680 c 0
 692 664 671 655 644 655 c 0
 638 655 633 655 630 656 c 1
 667 622 696 580 716 530 c 0
570 54 m 0
 619 84 658 126 686 180 c 0
 713 233 727 295 727 365 c 0
 727 435 713 497 686 550 c 0
 658 604 619 646 570 676 c 0
 520 705 462 720 397 720 c 0
 332 720 274 705 224 676 c 0
 175 646 136 604 108 550 c 0
 81 497 67 435 67 365 c 0
 67 295 81 233 108 180 c 0
 136 126 175 84 224 54 c 0
 274 25 332 10 397 10 c 0
 462 10 520 25 570 54 c 0
325 980 m 1
 348 980 l 1
 469 770 l 1
 446 770 l 1
 325 980 l 1
EndSplineSet
EndChar

StartChar: uni1EDE
Encoding: 7902 7902 127
Width: 804
Flags: W
LayerCount: 2
Fore
SplineSet
716 530 m 0
 737 481 747 426 747 365 c 0
 747 292 732 226 703 170 c 0
 674 112 632 68 580 37 c 0
 526 6 466 -10 397 -10 c 0
 328 -10 268 6 214 37 c 0
 162 68 120 112 91 170 c 0
 62 226 47 292 47 365 c 0
 47 438 62 504 91 560 c 0
 120 618 162 662 214 693 c 0
 268 724 328 740 397 740 c 0
 468 740 531 723 586 689 c 0
 605 680 624 675 644 675 c 0
 687 675 709 701 709 753 c 0
 709 768 707 784 704 802 c 0
 701 818 697 833 692 845 c 1
 713 845 l 1
 724 813 729 782 729 753 c 0
 729 722 722 698 707 680 c 0
 692 664 671 655 644 655 c 0
 638 655 633 655 630 656 c 1
 667 622 696 580 716 530 c 0
570 54 m 0
 619 84 658 126 686 180 c 0
 713 233 727 295 727 365 c 0
 727 435 713 497 686 550 c 0
 658 604 619 646 570 676 c 0
 520 705 462 720 397 720 c 0
 332 720 274 705 224 676 c 0
 175 646 136 604 108 550 c 0
 81 497 67 435 67 365 c 0
 67 295 81 233 108 180 c 0
 136 126 175 84 224 54 c 0
 274 25 332 10 397 10 c 0
 462 10 520 25 570 54 c 0
496 856 m 0
 499 874 501 890 501 903 c 0
 501 923 494 937 480 944 c 0
 465 951 438 955 397 955 c 0
 357 955 317 950 278 940 c 1
 273 959 l 1
 315 970 356 975 397 975 c 0
 443 975 475 970 494 959 c 0
 512 948 521 930 521 903 c 0
 521 890 520 876 516 859 c 0
 514 842 510 828 505 815 c 1
 483 815 l 1
 488 825 492 839 496 856 c 0
EndSplineSet
EndChar

StartChar: uni1EE0
Encoding: 7904 7904 128
Width: 804
Flags: W
LayerCount: 2
Fore
SplineSet
716 530 m 0
 737 481 747 426 747 365 c 0
 747 292 732 226 703 170 c 0
 674 112 632 68 580 37 c 0
 526 6 466 -10 397 -10 c 0
 328 -10 268 6 214 37 c 0
 162 68 120 112 91 170 c 0
 62 226 47 292 47 365 c 0
 47 438 62 504 91 560 c 0
 120 618 162 662 214 693 c 0
 268 724 328 740 397 740 c 0
 468 740 531 723 586 689 c 0
 605 680 624 675 644 675 c 0
 687 675 709 701 709 753 c 0
 709 768 707 784 704 802 c 0
 701 818 697 833 692 845 c 1
 713 845 l 1
 724 813 729 782 729 753 c 0
 729 722 722 698 707 680 c 0
 692 664 671 655 644 655 c 0
 638 655 633 655 630 656 c 1
 667 622 696 580 716 530 c 0
570 54 m 0
 619 84 658 126 686 180 c 0
 713 233 727 295 727 365 c 0
 727 435 713 497 686 550 c 0
 658 604 619 646 570 676 c 0
 520 705 462 720 397 720 c 0
 332 720 274 705 224 676 c 0
 175 646 136 604 108 550 c 0
 81 497 67 435 67 365 c 0
 67 295 81 233 108 180 c 0
 136 126 175 84 224 54 c 0
 274 25 332 10 397 10 c 0
 462 10 520 25 570 54 c 0
391 867 m 0
 348 899 317 915 296 915 c 0
 271 915 258 885 258 825 c 1
 238 825 l 1
 238 862 243 889 252 908 c 0
 261 926 276 935 296 935 c 0
 321 935 357 918 403 883 c 0
 446 851 478 835 498 835 c 0
 523 835 536 865 536 925 c 1
 556 925 l 1
 556 852 537 815 498 815 c 0
 474 815 438 832 391 867 c 0
EndSplineSet
EndChar

StartChar: Ohungarumlaut
Encoding: 336 336 129
Width: 794
Flags: W
LayerCount: 2
Fore
SplineSet
214 37 m 0
 162 68 120 112 91 170 c 0
 62 226 47 292 47 365 c 0
 47 438 62 504 91 560 c 0
 120 618 162 662 214 693 c 0
 268 724 328 740 397 740 c 0
 466 740 526 724 580 693 c 0
 632 662 674 618 703 560 c 0
 732 504 747 438 747 365 c 0
 747 292 732 226 703 170 c 0
 674 112 632 68 580 37 c 0
 526 6 466 -10 397 -10 c 0
 328 -10 268 6 214 37 c 0
570 54 m 0
 619 84 658 126 686 180 c 0
 713 233 727 295 727 365 c 0
 727 435 713 497 686 550 c 0
 658 604 619 646 570 676 c 0
 520 705 462 720 397 720 c 0
 332 720 274 705 224 676 c 0
 175 646 136 604 108 550 c 0
 81 497 67 435 67 365 c 0
 67 295 81 233 108 180 c 0
 136 126 175 84 224 54 c 0
 274 25 332 10 397 10 c 0
 462 10 520 25 570 54 c 0
268 770 m 1
 245 770 l 1
 366 980 l 1
 389 980 l 1
 268 770 l 1
448 770 m 1
 425 770 l 1
 546 980 l 1
 569 980 l 1
 448 770 l 1
EndSplineSet
EndChar

StartChar: uni020E
Encoding: 526 526 130
Width: 794
Flags: W
LayerCount: 2
Fore
SplineSet
214 37 m 0
 162 68 120 112 91 170 c 0
 62 226 47 292 47 365 c 0
 47 438 62 504 91 560 c 0
 120 618 162 662 214 693 c 0
 268 724 328 740 397 740 c 0
 466 740 526 724 580 693 c 0
 632 662 674 618 703 560 c 0
 732 504 747 438 747 365 c 0
 747 292 732 226 703 170 c 0
 674 112 632 68 580 37 c 0
 526 6 466 -10 397 -10 c 0
 328 -10 268 6 214 37 c 0
570 54 m 0
 619 84 658 126 686 180 c 0
 713 233 727 295 727 365 c 0
 727 435 713 497 686 550 c 0
 658 604 619 646 570 676 c 0
 520 705 462 720 397 720 c 0
 332 720 274 705 224 676 c 0
 175 646 136 604 108 550 c 0
 81 497 67 435 67 365 c 0
 67 295 81 233 108 180 c 0
 136 126 175 84 224 54 c 0
 274 25 332 10 397 10 c 0
 462 10 520 25 570 54 c 0
504 912 m 0
 532 890 550 861 556 825 c 1
 536 825 l 1
 530 855 514 879 489 898 c 0
 464 916 433 925 397 925 c 0
 361 925 330 916 305 898 c 0
 280 879 264 855 258 825 c 1
 238 825 l 1
 244 861 262 890 290 912 c 0
 320 934 355 945 397 945 c 0
 439 945 474 934 504 912 c 0
EndSplineSet
EndChar

StartChar: Omacron
Encoding: 332 332 131
Width: 794
Flags: W
LayerCount: 2
Fore
SplineSet
214 37 m 0
 162 68 120 112 91 170 c 0
 62 226 47 292 47 365 c 0
 47 438 62 504 91 560 c 0
 120 618 162 662 214 693 c 0
 268 724 328 740 397 740 c 0
 466 740 526 724 580 693 c 0
 632 662 674 618 703 560 c 0
 732 504 747 438 747 365 c 0
 747 292 732 226 703 170 c 0
 674 112 632 68 580 37 c 0
 526 6 466 -10 397 -10 c 0
 328 -10 268 6 214 37 c 0
570 54 m 0
 619 84 658 126 686 180 c 0
 713 233 727 295 727 365 c 0
 727 435 713 497 686 550 c 0
 658 604 619 646 570 676 c 0
 520 705 462 720 397 720 c 0
 332 720 274 705 224 676 c 0
 175 646 136 604 108 550 c 0
 81 497 67 435 67 365 c 0
 67 295 81 233 108 180 c 0
 136 126 175 84 224 54 c 0
 274 25 332 10 397 10 c 0
 462 10 520 25 570 54 c 0
230 885 m 1
 564 885 l 1
 564 865 l 1
 230 865 l 1
 230 885 l 1
EndSplineSet
EndChar

StartChar: uni01EA
Encoding: 490 490 132
Width: 794
Flags: W
LayerCount: 2
Fore
SplineSet
352 -71 m 0
 333 -92 324 -114 324 -135 c 0
 324 -160 334 -177 356 -186 c 0
 376 -195 402 -200 432 -200 c 0
 467 -200 498 -194 525 -181 c 1
 533 -199 l 1
 503 -213 469 -220 432 -220 c 0
 383 -220 349 -211 331 -194 c 0
 313 -177 304 -157 304 -135 c 0
 304 -113 312 -91 327 -70 c 0
 342 -49 364 -29 392 -10 c 1
 324 -9 264 7 212 38 c 0
 159 70 119 114 90 171 c 0
 61 228 47 292 47 365 c 0
 47 438 62 504 91 560 c 0
 120 618 162 662 214 693 c 0
 268 724 328 740 397 740 c 0
 466 740 526 724 580 693 c 0
 632 662 674 618 703 560 c 0
 732 504 747 438 747 365 c 0
 747 296 734 234 708 179 c 0
 681 124 644 81 596 48 c 0
 549 15 494 -4 431 -9 c 1
 396 -29 370 -50 352 -71 c 0
108 180 m 0
 136 126 175 84 224 54 c 0
 274 25 332 10 397 10 c 0
 462 10 520 25 570 54 c 0
 619 84 658 126 686 180 c 0
 713 233 727 295 727 365 c 0
 727 435 713 497 686 550 c 0
 658 604 619 646 570 676 c 0
 520 705 462 720 397 720 c 0
 332 720 274 705 224 676 c 0
 175 646 136 604 108 550 c 0
 81 497 67 435 67 365 c 0
 67 295 81 233 108 180 c 0
EndSplineSet
EndChar

StartChar: Oslash
Encoding: 216 216 133
Width: 794
Flags: W
LayerCount: 2
Fore
SplineSet
716 532 m 0
 737 482 747 426 747 365 c 0
 747 292 732 226 703 170 c 0
 674 112 632 68 580 37 c 0
 526 6 466 -10 397 -10 c 0
 314 -10 242 13 181 59 c 1
 125 -16 l 1
 109 -4 l 1
 166 72 l 1
 128 105 99 147 78 198 c 0
 57 248 47 304 47 365 c 0
 47 438 62 504 91 560 c 0
 120 618 162 662 214 693 c 0
 268 724 328 740 397 740 c 0
 480 740 552 717 613 671 c 1
 669 746 l 1
 685 734 l 1
 628 658 l 1
 666 625 695 583 716 532 c 0
96 207 m 0
 115 160 143 120 178 88 c 1
 601 655 l 1
 544 698 476 720 397 720 c 0
 332 720 274 705 224 676 c 0
 175 646 136 604 108 550 c 0
 81 497 67 435 67 365 c 0
 67 307 77 254 96 207 c 0
570 54 m 0
 619 84 658 126 686 180 c 0
 713 233 727 295 727 365 c 0
 727 423 717 476 698 523 c 0
 679 570 651 610 616 642 c 1
 193 75 l 1
 250 32 318 10 397 10 c 0
 462 10 520 25 570 54 c 0
EndSplineSet
EndChar

StartChar: Oslashacute
Encoding: 510 510 134
Width: 794
Flags: W
LayerCount: 2
Fore
SplineSet
716 532 m 0
 737 482 747 426 747 365 c 0
 747 292 732 226 703 170 c 0
 674 112 632 68 580 37 c 0
 526 6 466 -10 397 -10 c 0
 314 -10 242 13 181 59 c 1
 125 -16 l 1
 109 -4 l 1
 166 72 l 1
 128 105 99 147 78 198 c 0
 57 248 47 304 47 365 c 0
 47 438 62 504 91 560 c 0
 120 618 162 662 214 693 c 0
 268 724 328 740 397 740 c 0
 480 740 552 717 613 671 c 1
 669 746 l 1
 685 734 l 1
 628 658 l 1
 666 625 695 583 716 532 c 0
96 207 m 0
 115 160 143 120 178 88 c 1
 601 655 l 1
 544 698 476 720 397 720 c 0
 332 720 274 705 224 676 c 0
 175 646 136 604 108 550 c 0
 81 497 67 435 67 365 c 0
 67 307 77 254 96 207 c 0
570 54 m 0
 619 84 658 126 686 180 c 0
 713 233 727 295 727 365 c 0
 727 423 717 476 698 523 c 0
 679 570 651 610 616 642 c 1
 193 75 l 1
 250 32 318 10 397 10 c 0
 462 10 520 25 570 54 c 0
348 770 m 1
 325 770 l 1
 446 980 l 1
 469 980 l 1
 348 770 l 1
EndSplineSet
EndChar

StartChar: Otilde
Encoding: 213 213 135
Width: 794
Flags: W
LayerCount: 2
Fore
SplineSet
214 37 m 0
 162 68 120 112 91 170 c 0
 62 226 47 292 47 365 c 0
 47 438 62 504 91 560 c 0
 120 618 162 662 214 693 c 0
 268 724 328 740 397 740 c 0
 466 740 526 724 580 693 c 0
 632 662 674 618 703 560 c 0
 732 504 747 438 747 365 c 0
 747 292 732 226 703 170 c 0
 674 112 632 68 580 37 c 0
 526 6 466 -10 397 -10 c 0
 328 -10 268 6 214 37 c 0
570 54 m 0
 619 84 658 126 686 180 c 0
 713 233 727 295 727 365 c 0
 727 435 713 497 686 550 c 0
 658 604 619 646 570 676 c 0
 520 705 462 720 397 720 c 0
 332 720 274 705 224 676 c 0
 175 646 136 604 108 550 c 0
 81 497 67 435 67 365 c 0
 67 295 81 233 108 180 c 0
 136 126 175 84 224 54 c 0
 274 25 332 10 397 10 c 0
 462 10 520 25 570 54 c 0
391 867 m 0
 348 899 317 915 296 915 c 0
 271 915 258 885 258 825 c 1
 238 825 l 1
 238 862 243 889 252 908 c 0
 261 926 276 935 296 935 c 0
 321 935 357 918 403 883 c 0
 446 851 478 835 498 835 c 0
 523 835 536 865 536 925 c 1
 556 925 l 1
 556 852 537 815 498 815 c 0
 474 815 438 832 391 867 c 0
EndSplineSet
EndChar

StartChar: uni022C
Encoding: 556 556 136
Width: 794
Flags: W
LayerCount: 2
Fore
SplineSet
214 37 m 0
 162 68 120 112 91 170 c 0
 62 226 47 292 47 365 c 0
 47 438 62 504 91 560 c 0
 120 618 162 662 214 693 c 0
 268 724 328 740 397 740 c 0
 466 740 526 724 580 693 c 0
 632 662 674 618 703 560 c 0
 732 504 747 438 747 365 c 0
 747 292 732 226 703 170 c 0
 674 112 632 68 580 37 c 0
 526 6 466 -10 397 -10 c 0
 328 -10 268 6 214 37 c 0
570 54 m 0
 619 84 658 126 686 180 c 0
 713 233 727 295 727 365 c 0
 727 435 713 497 686 550 c 0
 658 604 619 646 570 676 c 0
 520 705 462 720 397 720 c 0
 332 720 274 705 224 676 c 0
 175 646 136 604 108 550 c 0
 81 497 67 435 67 365 c 0
 67 295 81 233 108 180 c 0
 136 126 175 84 224 54 c 0
 274 25 332 10 397 10 c 0
 462 10 520 25 570 54 c 0
391 867 m 0
 348 899 317 915 296 915 c 0
 271 915 258 885 258 825 c 1
 238 825 l 1
 238 862 243 889 252 908 c 0
 261 926 276 935 296 935 c 0
 321 935 357 918 403 883 c 0
 446 851 478 835 498 835 c 0
 523 835 536 865 536 925 c 1
 556 925 l 1
 556 852 537 815 498 815 c 0
 474 815 438 832 391 867 c 0
230 1090 m 1
 564 1090 l 1
 564 1070 l 1
 230 1070 l 1
 230 1090 l 1
EndSplineSet
EndChar

StartChar: OE
Encoding: 338 338 137
Width: 977
Flags: W
LayerCount: 2
Fore
SplineSet
506 710 m 1
 506 400 l 1
 886 400 l 1
 886 380 l 1
 506 380 l 1
 506 20 l 1
 906 20 l 1
 906 0 l 1
 486 0 l 1
 455 -7 425 -10 397 -10 c 0
 328 -10 268 6 214 37 c 0
 162 68 120 112 91 170 c 0
 62 226 47 292 47 365 c 0
 47 438 62 504 91 560 c 0
 120 618 162 662 214 693 c 0
 268 724 328 740 397 740 c 0
 425 740 455 737 486 730 c 1
 906 730 l 1
 906 710 l 1
 506 710 l 1
108 180 m 0
 136 126 175 84 224 54 c 0
 274 25 332 10 397 10 c 0
 430 10 459 13 486 20 c 1
 486 710 l 1
 459 717 430 720 397 720 c 0
 332 720 274 705 224 676 c 0
 175 646 136 604 108 550 c 0
 81 497 67 435 67 365 c 0
 67 295 81 233 108 180 c 0
EndSplineSet
EndChar

StartChar: P
Encoding: 80 80 138
Width: 564
Flags: W
LayerCount: 2
Fore
SplineSet
466 680 m 0
 512 647 535 593 535 520 c 0
 535 447 512 393 466 360 c 0
 419 327 346 310 245 310 c 2
 115 310 l 1
 115 0 l 1
 95 0 l 1
 95 730 l 1
 245 730 l 2
 346 730 419 713 466 680 c 0
452 374 m 0
 494 404 515 453 515 520 c 0
 515 587 494 636 452 666 c 0
 409 695 340 710 245 710 c 2
 115 710 l 1
 115 330 l 1
 245 330 l 2
 340 330 409 345 452 374 c 0
EndSplineSet
EndChar

StartChar: Thorn
Encoding: 222 222 139
Width: 564
Flags: W
LayerCount: 2
Fore
SplineSet
466 535 m 0
 512 502 535 448 535 375 c 0
 535 302 512 248 466 215 c 0
 419 182 346 165 245 165 c 2
 115 165 l 1
 115 0 l 1
 95 0 l 1
 95 730 l 1
 115 730 l 1
 115 585 l 1
 245 585 l 2
 346 585 419 568 466 535 c 0
452 230 m 0
 494 259 515 308 515 375 c 0
 515 442 494 491 452 520 c 0
 409 550 340 565 245 565 c 2
 115 565 l 1
 115 185 l 1
 245 185 l 2
 340 185 409 200 452 230 c 0
EndSplineSet
EndChar

StartChar: Q
Encoding: 81 81 140
Width: 808
Flags: W
LayerCount: 2
Fore
SplineSet
397 -10 m 0
 328 -10 268 6 214 37 c 0
 162 68 120 112 91 170 c 0
 62 226 47 292 47 365 c 0
 47 438 62 504 91 560 c 0
 120 618 162 662 214 693 c 0
 268 724 328 740 397 740 c 0
 466 740 526 724 580 693 c 0
 632 662 674 618 703 560 c 0
 732 504 747 438 747 365 c 0
 747 274 725 197 680 133 c 0
 636 69 576 26 501 5 c 1
 501 3 l 1
 614 -10 701 -45 761 -102 c 1
 747 -116 l 1
 673 -45 556 -10 397 -10 c 0
570 54 m 0
 619 84 658 126 686 180 c 0
 713 233 727 295 727 365 c 0
 727 435 713 497 686 550 c 0
 658 604 619 646 570 676 c 0
 520 705 462 720 397 720 c 0
 332 720 274 705 224 676 c 0
 175 646 136 604 108 550 c 0
 81 497 67 435 67 365 c 0
 67 295 81 233 108 180 c 0
 136 126 175 84 224 54 c 0
 274 25 332 10 397 10 c 0
 462 10 520 25 570 54 c 0
EndSplineSet
EndChar

StartChar: R
Encoding: 82 82 141
Width: 593
Flags: W
LayerCount: 2
Fore
SplineSet
206 350 m 1
 115 350 l 1
 115 0 l 1
 95 0 l 1
 95 730 l 1
 265 730 l 2
 360 730 428 715 471 685 c 0
 514 655 535 607 535 540 c 0
 535 473 514 425 471 395 c 0
 428 365 360 350 265 350 c 2
 234 350 l 1
 555 0 l 1
 527 0 l 1
 206 350 l 1
115 370 m 1
 265 370 l 2
 354 370 418 383 457 410 c 0
 496 437 515 480 515 540 c 0
 515 600 496 643 457 670 c 0
 418 697 354 710 265 710 c 2
 115 710 l 1
 115 370 l 1
EndSplineSet
EndChar

StartChar: Racute
Encoding: 340 340 142
Width: 593
Flags: W
LayerCount: 2
Fore
SplineSet
206 350 m 1
 115 350 l 1
 115 0 l 1
 95 0 l 1
 95 730 l 1
 265 730 l 2
 360 730 428 715 471 685 c 0
 514 655 535 607 535 540 c 0
 535 473 514 425 471 395 c 0
 428 365 360 350 265 350 c 2
 234 350 l 1
 555 0 l 1
 527 0 l 1
 206 350 l 1
115 370 m 1
 265 370 l 2
 354 370 418 383 457 410 c 0
 496 437 515 480 515 540 c 0
 515 600 496 643 457 670 c 0
 418 697 354 710 265 710 c 2
 115 710 l 1
 115 370 l 1
241 770 m 1
 218 770 l 1
 339 980 l 1
 362 980 l 1
 241 770 l 1
EndSplineSet
EndChar

StartChar: Rcaron
Encoding: 344 344 143
Width: 593
Flags: W
LayerCount: 2
Fore
SplineSet
206 350 m 1
 115 350 l 1
 115 0 l 1
 95 0 l 1
 95 730 l 1
 265 730 l 2
 360 730 428 715 471 685 c 0
 514 655 535 607 535 540 c 0
 535 473 514 425 471 395 c 0
 428 365 360 350 265 350 c 2
 234 350 l 1
 555 0 l 1
 527 0 l 1
 206 350 l 1
115 370 m 1
 265 370 l 2
 354 370 418 383 457 410 c 0
 496 437 515 480 515 540 c 0
 515 600 496 643 457 670 c 0
 418 697 354 710 265 710 c 2
 115 710 l 1
 115 370 l 1
118 980 m 1
 143 980 l 1
 289 785 l 1
 291 785 l 1
 437 980 l 1
 462 980 l 1
 305 770 l 1
 275 770 l 1
 118 980 l 1
EndSplineSet
EndChar

StartChar: uni0156
Encoding: 342 342 144
Width: 593
Flags: W
LayerCount: 2
Fore
SplineSet
206 350 m 1
 115 350 l 1
 115 0 l 1
 95 0 l 1
 95 730 l 1
 265 730 l 2
 360 730 428 715 471 685 c 0
 514 655 535 607 535 540 c 0
 535 473 514 425 471 395 c 0
 428 365 360 350 265 350 c 2
 234 350 l 1
 555 0 l 1
 527 0 l 1
 206 350 l 1
115 370 m 1
 265 370 l 2
 354 370 418 383 457 410 c 0
 496 437 515 480 515 540 c 0
 515 600 496 643 457 670 c 0
 418 697 354 710 265 710 c 2
 115 710 l 1
 115 370 l 1
241 -250 m 1
 218 -250 l 1
 339 -40 l 1
 362 -40 l 1
 241 -250 l 1
EndSplineSet
EndChar

StartChar: uni0210
Encoding: 528 528 145
Width: 593
Flags: W
LayerCount: 2
Fore
SplineSet
206 350 m 1
 115 350 l 1
 115 0 l 1
 95 0 l 1
 95 730 l 1
 265 730 l 2
 360 730 428 715 471 685 c 0
 514 655 535 607 535 540 c 0
 535 473 514 425 471 395 c 0
 428 365 360 350 265 350 c 2
 234 350 l 1
 555 0 l 1
 527 0 l 1
 206 350 l 1
115 370 m 1
 265 370 l 2
 354 370 418 383 457 410 c 0
 496 437 515 480 515 540 c 0
 515 600 496 643 457 670 c 0
 418 697 354 710 265 710 c 2
 115 710 l 1
 115 370 l 1
119 980 m 1
 142 980 l 1
 263 770 l 1
 240 770 l 1
 119 980 l 1
299 980 m 1
 322 980 l 1
 443 770 l 1
 420 770 l 1
 299 980 l 1
EndSplineSet
EndChar

StartChar: uni0212
Encoding: 530 530 146
Width: 593
Flags: W
LayerCount: 2
Fore
SplineSet
206 350 m 1
 115 350 l 1
 115 0 l 1
 95 0 l 1
 95 730 l 1
 265 730 l 2
 360 730 428 715 471 685 c 0
 514 655 535 607 535 540 c 0
 535 473 514 425 471 395 c 0
 428 365 360 350 265 350 c 2
 234 350 l 1
 555 0 l 1
 527 0 l 1
 206 350 l 1
115 370 m 1
 265 370 l 2
 354 370 418 383 457 410 c 0
 496 437 515 480 515 540 c 0
 515 600 496 643 457 670 c 0
 418 697 354 710 265 710 c 2
 115 710 l 1
 115 370 l 1
396 912 m 0
 426 890 443 861 449 825 c 1
 429 825 l 1
 423 855 407 879 382 898 c 0
 357 916 326 925 290 925 c 0
 254 925 223 916 198 898 c 0
 173 879 157 855 151 825 c 1
 131 825 l 1
 137 861 154 890 184 912 c 0
 212 934 248 945 290 945 c 0
 332 945 368 934 396 912 c 0
EndSplineSet
EndChar

StartChar: S
Encoding: 83 83 147
Width: 597
Flags: W
LayerCount: 2
Fore
SplineSet
173 5 m 0
 134 15 99 29 66 48 c 1
 77 66 l 1
 108 48 142 34 178 24 c 0
 216 15 254 10 293 10 c 0
 362 10 415 25 454 56 c 0
 493 86 512 128 512 183 c 0
 512 222 502 252 482 276 c 0
 463 298 439 316 410 328 c 0
 381 341 342 354 292 368 c 0
 243 382 203 395 174 408 c 0
 144 421 119 439 98 464 c 0
 77 488 67 520 67 561 c 0
 67 616 87 660 127 692 c 0
 167 724 222 740 293 740 c 0
 332 740 372 735 414 726 c 0
 456 717 490 705 515 690 c 1
 504 672 l 1
 481 686 449 698 410 706 c 0
 370 716 331 720 293 720 c 0
 228 720 178 706 142 678 c 0
 105 650 87 611 86 561 c 0
 86 526 95 497 114 475 c 0
 133 453 156 436 184 424 c 0
 212 413 250 400 298 387 c 0
 348 373 388 359 420 346 c 0
 450 333 477 313 498 287 c 0
 520 261 531 226 531 183 c 0
 532 122 511 75 468 41 c 0
 426 7 368 -10 293 -10 c 0
 252 -10 212 -5 173 5 c 0
EndSplineSet
EndChar

StartChar: Sacute
Encoding: 346 346 148
Width: 597
Flags: W
LayerCount: 2
Fore
SplineSet
173 5 m 0
 134 15 99 29 66 48 c 1
 77 66 l 1
 108 48 142 34 178 24 c 0
 216 15 254 10 293 10 c 0
 362 10 415 25 454 56 c 0
 493 86 512 128 512 183 c 0
 512 222 502 252 482 276 c 0
 463 298 439 316 410 328 c 0
 381 341 342 354 292 368 c 0
 243 382 203 395 174 408 c 0
 144 421 119 439 98 464 c 0
 77 488 67 520 67 561 c 0
 67 616 87 660 127 692 c 0
 167 724 222 740 293 740 c 0
 332 740 372 735 414 726 c 0
 456 717 490 705 515 690 c 1
 504 672 l 1
 481 686 449 698 410 706 c 0
 370 716 331 720 293 720 c 0
 228 720 178 706 142 678 c 0
 105 650 87 611 86 561 c 0
 86 526 95 497 114 475 c 0
 133 453 156 436 184 424 c 0
 212 413 250 400 298 387 c 0
 348 373 388 359 420 346 c 0
 450 333 477 313 498 287 c 0
 520 261 531 226 531 183 c 0
 532 122 511 75 468 41 c 0
 426 7 368 -10 293 -10 c 0
 252 -10 212 -5 173 5 c 0
247 770 m 1
 224 770 l 1
 345 980 l 1
 368 980 l 1
 247 770 l 1
EndSplineSet
EndChar

StartChar: Scaron
Encoding: 352 352 149
Width: 597
Flags: W
LayerCount: 2
Fore
SplineSet
173 5 m 0
 134 15 99 29 66 48 c 1
 77 66 l 1
 108 48 142 34 178 24 c 0
 216 15 254 10 293 10 c 0
 362 10 415 25 454 56 c 0
 493 86 512 128 512 183 c 0
 512 222 502 252 482 276 c 0
 463 298 439 316 410 328 c 0
 381 341 342 354 292 368 c 0
 243 382 203 395 174 408 c 0
 144 421 119 439 98 464 c 0
 77 488 67 520 67 561 c 0
 67 616 87 660 127 692 c 0
 167 724 222 740 293 740 c 0
 332 740 372 735 414 726 c 0
 456 717 490 705 515 690 c 1
 504 672 l 1
 481 686 449 698 410 706 c 0
 370 716 331 720 293 720 c 0
 228 720 178 706 142 678 c 0
 105 650 87 611 86 561 c 0
 86 526 95 497 114 475 c 0
 133 453 156 436 184 424 c 0
 212 413 250 400 298 387 c 0
 348 373 388 359 420 346 c 0
 450 333 477 313 498 287 c 0
 520 261 531 226 531 183 c 0
 532 122 511 75 468 41 c 0
 426 7 368 -10 293 -10 c 0
 252 -10 212 -5 173 5 c 0
124 980 m 1
 149 980 l 1
 295 785 l 1
 297 785 l 1
 443 980 l 1
 468 980 l 1
 311 770 l 1
 281 770 l 1
 124 980 l 1
EndSplineSet
EndChar

StartChar: Scedilla
Encoding: 350 350 150
Width: 597
Flags: W
LayerCount: 2
Fore
SplineSet
478 49 m 0
 441 16 390 -4 325 -9 c 1
 354 -28 377 -49 392 -70 c 0
 408 -92 416 -114 416 -136 c 0
 416 -158 407 -178 389 -195 c 0
 371 -212 337 -221 288 -221 c 0
 251 -221 217 -214 187 -200 c 1
 195 -182 l 1
 222 -195 253 -201 288 -201 c 0
 318 -201 344 -196 364 -187 c 0
 386 -178 396 -161 396 -136 c 0
 396 -94 361 -52 290 -10 c 1
 249 -9 209 -4 170 6 c 0
 132 15 97 29 66 48 c 1
 77 66 l 1
 108 48 142 34 178 24 c 0
 216 15 254 10 293 10 c 0
 362 10 415 25 454 56 c 0
 493 86 512 128 512 183 c 0
 512 222 502 252 482 276 c 0
 463 298 439 316 410 328 c 0
 381 341 342 354 292 368 c 0
 243 382 203 395 174 408 c 0
 144 421 119 439 98 464 c 0
 77 488 67 520 67 561 c 0
 67 616 87 660 127 692 c 0
 167 724 222 740 293 740 c 0
 332 740 372 735 414 726 c 0
 456 717 490 705 515 690 c 1
 504 672 l 1
 481 686 449 698 410 706 c 0
 370 716 331 720 293 720 c 0
 228 720 178 706 142 678 c 0
 105 650 87 611 86 561 c 0
 86 526 95 497 114 475 c 0
 133 453 156 436 184 424 c 0
 212 413 250 400 298 387 c 0
 348 373 388 359 420 346 c 0
 450 333 477 313 498 287 c 0
 520 261 531 226 531 183 c 0
 532 127 514 82 478 49 c 0
EndSplineSet
EndChar

StartChar: Scircumflex
Encoding: 348 348 151
Width: 597
Flags: W
LayerCount: 2
Fore
SplineSet
173 5 m 0
 134 15 99 29 66 48 c 1
 77 66 l 1
 108 48 142 34 178 24 c 0
 216 15 254 10 293 10 c 0
 362 10 415 25 454 56 c 0
 493 86 512 128 512 183 c 0
 512 222 502 252 482 276 c 0
 463 298 439 316 410 328 c 0
 381 341 342 354 292 368 c 0
 243 382 203 395 174 408 c 0
 144 421 119 439 98 464 c 0
 77 488 67 520 67 561 c 0
 67 616 87 660 127 692 c 0
 167 724 222 740 293 740 c 0
 332 740 372 735 414 726 c 0
 456 717 490 705 515 690 c 1
 504 672 l 1
 481 686 449 698 410 706 c 0
 370 716 331 720 293 720 c 0
 228 720 178 706 142 678 c 0
 105 650 87 611 86 561 c 0
 86 526 95 497 114 475 c 0
 133 453 156 436 184 424 c 0
 212 413 250 400 298 387 c 0
 348 373 388 359 420 346 c 0
 450 333 477 313 498 287 c 0
 520 261 531 226 531 183 c 0
 532 122 511 75 468 41 c 0
 426 7 368 -10 293 -10 c 0
 252 -10 212 -5 173 5 c 0
281 980 m 1
 311 980 l 1
 468 770 l 1
 443 770 l 1
 297 965 l 1
 295 965 l 1
 149 770 l 1
 124 770 l 1
 281 980 l 1
EndSplineSet
EndChar

StartChar: uni0218
Encoding: 536 536 152
Width: 597
Flags: W
LayerCount: 2
Fore
SplineSet
173 5 m 0
 134 15 99 29 66 48 c 1
 77 66 l 1
 108 48 142 34 178 24 c 0
 216 15 254 10 293 10 c 0
 362 10 415 25 454 56 c 0
 493 86 512 128 512 183 c 0
 512 222 502 252 482 276 c 0
 463 298 439 316 410 328 c 0
 381 341 342 354 292 368 c 0
 243 382 203 395 174 408 c 0
 144 421 119 439 98 464 c 0
 77 488 67 520 67 561 c 0
 67 616 87 660 127 692 c 0
 167 724 222 740 293 740 c 0
 332 740 372 735 414 726 c 0
 456 717 490 705 515 690 c 1
 504 672 l 1
 481 686 449 698 410 706 c 0
 370 716 331 720 293 720 c 0
 228 720 178 706 142 678 c 0
 105 650 87 611 86 561 c 0
 86 526 95 497 114 475 c 0
 133 453 156 436 184 424 c 0
 212 413 250 400 298 387 c 0
 348 373 388 359 420 346 c 0
 450 333 477 313 498 287 c 0
 520 261 531 226 531 183 c 0
 532 122 511 75 468 41 c 0
 426 7 368 -10 293 -10 c 0
 252 -10 212 -5 173 5 c 0
247 -250 m 1
 224 -250 l 1
 345 -40 l 1
 368 -40 l 1
 247 -250 l 1
EndSplineSet
EndChar

StartChar: uni1E9E
Encoding: 7838 7838 153
Width: 642
Flags: W
LayerCount: 2
Fore
SplineSet
241 7 m 1
 247 26 l 1
 283 15 323 10 366 10 c 0
 441 10 498 24 536 54 c 0
 576 82 595 125 595 180 c 0
 595 235 576 278 537 306 c 0
 498 336 442 350 369 350 c 2
 349 350 l 1
 349 379 l 1
 508 572 l 1
 507 622 491 659 460 684 c 0
 429 708 384 720 323 720 c 0
 252 720 199 703 166 668 c 0
 132 633 115 579 115 505 c 2
 115 0 l 1
 95 0 l 1
 95 505 l 2
 95 584 114 643 151 682 c 0
 188 721 246 740 323 740 c 0
 460 740 528 682 528 565 c 1
 369 372 l 1
 369 370 l 1
 448 370 508 354 551 321 c 0
 594 288 615 241 615 180 c 0
 615 119 594 72 550 39 c 0
 508 6 446 -10 366 -10 c 0
 321 -10 280 -4 241 7 c 1
EndSplineSet
EndChar

StartChar: uni018F
Encoding: 399 399 154
Width: 752
Flags: W
LayerCount: 2
Fore
SplineSet
612 643 m 0
 674 578 705 486 705 365 c 0
 705 287 692 220 666 164 c 0
 640 107 602 64 552 34 c 0
 503 5 444 -10 375 -10 c 0
 306 -10 247 5 198 34 c 0
 148 64 110 107 84 164 c 0
 58 220 45 287 45 365 c 2
 45 368 l 1
 685 368 l 1
 684 483 655 570 596 630 c 0
 538 690 454 720 345 720 c 0
 299 720 253 715 208 704 c 0
 163 693 121 678 84 658 c 1
 75 676 l 1
 113 696 156 712 203 723 c 0
 250 734 298 740 345 740 c 0
 461 740 550 708 612 643 c 0
600 98 m 0
 654 158 682 241 685 348 c 1
 65 348 l 1
 68 241 96 158 150 98 c 0
 205 40 280 10 375 10 c 0
 470 10 545 40 600 98 c 0
EndSplineSet
EndChar

StartChar: T
Encoding: 84 84 155
Width: 616
Flags: W
LayerCount: 2
Fore
SplineSet
298 710 m 1
 28 710 l 1
 28 730 l 1
 588 730 l 1
 588 710 l 1
 318 710 l 1
 318 0 l 1
 298 0 l 1
 298 710 l 1
EndSplineSet
EndChar

StartChar: Tbar
Encoding: 358 358 156
Width: 672
Flags: W
LayerCount: 2
Fore
SplineSet
616 710 m 1
 346 710 l 1
 346 325 l 1
 546 325 l 1
 546 305 l 1
 346 305 l 1
 346 0 l 1
 326 0 l 1
 326 305 l 1
 126 305 l 1
 126 325 l 1
 326 325 l 1
 326 710 l 1
 56 710 l 1
 56 730 l 1
 616 730 l 1
 616 710 l 1
EndSplineSet
EndChar

StartChar: Tcaron
Encoding: 356 356 157
Width: 616
Flags: W
LayerCount: 2
Fore
SplineSet
298 710 m 1
 28 710 l 1
 28 730 l 1
 588 730 l 1
 588 710 l 1
 318 710 l 1
 318 0 l 1
 298 0 l 1
 298 710 l 1
136 980 m 1
 161 980 l 1
 307 785 l 1
 309 785 l 1
 455 980 l 1
 480 980 l 1
 323 770 l 1
 293 770 l 1
 136 980 l 1
EndSplineSet
EndChar

StartChar: uni0162
Encoding: 354 354 158
Width: 616
Flags: W
LayerCount: 2
Fore
SplineSet
318 710 m 1
 318 11 l 1
 357 -10 387 -34 408 -58 c 0
 429 -84 440 -109 440 -135 c 0
 440 -157 431 -177 413 -194 c 0
 395 -211 361 -220 312 -220 c 0
 275 -220 241 -213 211 -199 c 1
 219 -181 l 1
 246 -194 277 -200 312 -200 c 0
 342 -200 368 -195 388 -186 c 0
 410 -177 420 -160 420 -135 c 0
 420 -112 410 -90 388 -66 c 0
 368 -44 337 -21 298 0 c 1
 298 710 l 1
 28 710 l 1
 28 730 l 1
 588 730 l 1
 588 710 l 1
 318 710 l 1
EndSplineSet
EndChar

StartChar: uni021A
Encoding: 538 538 159
Width: 616
Flags: W
LayerCount: 2
Fore
SplineSet
298 710 m 1
 28 710 l 1
 28 730 l 1
 588 730 l 1
 588 710 l 1
 318 710 l 1
 318 0 l 1
 298 0 l 1
 298 710 l 1
259 -250 m 1
 236 -250 l 1
 357 -40 l 1
 380 -40 l 1
 259 -250 l 1
EndSplineSet
EndChar

StartChar: U
Encoding: 85 85 160
Width: 690
Flags: W
LayerCount: 2
Fore
SplineSet
150 60 m 0
 107 108 85 177 85 270 c 2
 85 730 l 1
 105 730 l 1
 105 270 l 2
 105 97 185 10 345 10 c 0
 505 10 585 97 585 270 c 2
 585 730 l 1
 605 730 l 1
 605 270 l 2
 605 177 583 108 540 60 c 0
 496 14 431 -10 345 -10 c 0
 259 -10 194 14 150 60 c 0
EndSplineSet
EndChar

StartChar: Uacute
Encoding: 218 218 161
Width: 690
Flags: W
LayerCount: 2
Fore
SplineSet
150 60 m 0
 107 108 85 177 85 270 c 2
 85 730 l 1
 105 730 l 1
 105 270 l 2
 105 97 185 10 345 10 c 0
 505 10 585 97 585 270 c 2
 585 730 l 1
 605 730 l 1
 605 270 l 2
 605 177 583 108 540 60 c 0
 496 14 431 -10 345 -10 c 0
 259 -10 194 14 150 60 c 0
296 770 m 1
 273 770 l 1
 394 980 l 1
 417 980 l 1
 296 770 l 1
EndSplineSet
EndChar

StartChar: Ubreve
Encoding: 364 364 162
Width: 690
Flags: W
LayerCount: 2
Fore
SplineSet
150 60 m 0
 107 108 85 177 85 270 c 2
 85 730 l 1
 105 730 l 1
 105 270 l 2
 105 97 185 10 345 10 c 0
 505 10 585 97 585 270 c 2
 585 730 l 1
 605 730 l 1
 605 270 l 2
 605 177 583 108 540 60 c 0
 496 14 431 -10 345 -10 c 0
 259 -10 194 14 150 60 c 0
238 838 m 0
 210 860 192 889 186 925 c 1
 206 925 l 1
 212 895 228 871 253 852 c 0
 278 834 309 825 345 825 c 0
 381 825 412 834 437 852 c 0
 462 871 478 895 484 925 c 1
 504 925 l 1
 498 889 480 860 452 838 c 0
 422 816 387 805 345 805 c 0
 303 805 268 816 238 838 c 0
EndSplineSet
EndChar

StartChar: Ucircumflex
Encoding: 219 219 163
Width: 690
Flags: W
LayerCount: 2
Fore
SplineSet
150 60 m 0
 107 108 85 177 85 270 c 2
 85 730 l 1
 105 730 l 1
 105 270 l 2
 105 97 185 10 345 10 c 0
 505 10 585 97 585 270 c 2
 585 730 l 1
 605 730 l 1
 605 270 l 2
 605 177 583 108 540 60 c 0
 496 14 431 -10 345 -10 c 0
 259 -10 194 14 150 60 c 0
330 980 m 1
 360 980 l 1
 517 770 l 1
 492 770 l 1
 346 965 l 1
 344 965 l 1
 198 770 l 1
 173 770 l 1
 330 980 l 1
EndSplineSet
EndChar

StartChar: uni0214
Encoding: 532 532 164
Width: 690
Flags: W
LayerCount: 2
Fore
SplineSet
150 60 m 0
 107 108 85 177 85 270 c 2
 85 730 l 1
 105 730 l 1
 105 270 l 2
 105 97 185 10 345 10 c 0
 505 10 585 97 585 270 c 2
 585 730 l 1
 605 730 l 1
 605 270 l 2
 605 177 583 108 540 60 c 0
 496 14 431 -10 345 -10 c 0
 259 -10 194 14 150 60 c 0
174 980 m 1
 197 980 l 1
 318 770 l 1
 295 770 l 1
 174 980 l 1
354 980 m 1
 377 980 l 1
 498 770 l 1
 475 770 l 1
 354 980 l 1
EndSplineSet
EndChar

StartChar: Udieresis
Encoding: 220 220 165
Width: 690
Flags: W
LayerCount: 2
Fore
SplineSet
150 60 m 0
 107 108 85 177 85 270 c 2
 85 730 l 1
 105 730 l 1
 105 270 l 2
 105 97 185 10 345 10 c 0
 505 10 585 97 585 270 c 2
 585 730 l 1
 605 730 l 1
 605 270 l 2
 605 177 583 108 540 60 c 0
 496 14 431 -10 345 -10 c 0
 259 -10 194 14 150 60 c 0
195 905 m 1
 255 905 l 1
 255 845 l 1
 195 845 l 1
 195 905 l 1
435 905 m 1
 495 905 l 1
 495 845 l 1
 435 845 l 1
 435 905 l 1
EndSplineSet
EndChar

StartChar: uni1EE4
Encoding: 7908 7908 166
Width: 690
Flags: W
LayerCount: 2
Fore
SplineSet
150 60 m 0
 107 108 85 177 85 270 c 2
 85 730 l 1
 105 730 l 1
 105 270 l 2
 105 97 185 10 345 10 c 0
 505 10 585 97 585 270 c 2
 585 730 l 1
 605 730 l 1
 605 270 l 2
 605 177 583 108 540 60 c 0
 496 14 431 -10 345 -10 c 0
 259 -10 194 14 150 60 c 0
315 -115 m 1
 375 -115 l 1
 375 -175 l 1
 315 -175 l 1
 315 -115 l 1
EndSplineSet
EndChar

StartChar: Ugrave
Encoding: 217 217 167
Width: 690
Flags: W
LayerCount: 2
Fore
SplineSet
150 60 m 0
 107 108 85 177 85 270 c 2
 85 730 l 1
 105 730 l 1
 105 270 l 2
 105 97 185 10 345 10 c 0
 505 10 585 97 585 270 c 2
 585 730 l 1
 605 730 l 1
 605 270 l 2
 605 177 583 108 540 60 c 0
 496 14 431 -10 345 -10 c 0
 259 -10 194 14 150 60 c 0
273 980 m 1
 296 980 l 1
 417 770 l 1
 394 770 l 1
 273 980 l 1
EndSplineSet
EndChar

StartChar: uni1EE6
Encoding: 7910 7910 168
Width: 690
Flags: W
LayerCount: 2
Fore
SplineSet
150 60 m 0
 107 108 85 177 85 270 c 2
 85 730 l 1
 105 730 l 1
 105 270 l 2
 105 97 185 10 345 10 c 0
 505 10 585 97 585 270 c 2
 585 730 l 1
 605 730 l 1
 605 270 l 2
 605 177 583 108 540 60 c 0
 496 14 431 -10 345 -10 c 0
 259 -10 194 14 150 60 c 0
444 856 m 0
 447 874 449 890 449 903 c 0
 449 923 442 937 428 944 c 0
 413 951 386 955 345 955 c 0
 305 955 265 950 226 940 c 1
 221 959 l 1
 263 970 304 975 345 975 c 0
 391 975 423 970 442 959 c 0
 460 948 469 930 469 903 c 0
 469 890 468 876 464 859 c 0
 462 842 458 828 453 815 c 1
 431 815 l 1
 436 825 440 839 444 856 c 0
EndSplineSet
EndChar

StartChar: Uhorn
Encoding: 431 431 169
Width: 730
Flags: W
LayerCount: 2
Fore
SplineSet
750 753 m 0
 750 722 743 698 728 680 c 0
 713 664 692 655 665 655 c 0
 646 655 626 659 605 668 c 1
 605 270 l 2
 605 177 583 108 540 60 c 0
 496 14 431 -10 345 -10 c 0
 259 -10 194 14 150 60 c 0
 107 108 85 177 85 270 c 2
 85 730 l 1
 105 730 l 1
 105 270 l 2
 105 97 185 10 345 10 c 0
 505 10 585 97 585 270 c 2
 585 730 l 1
 605 730 l 1
 605 690 l 1
 625 680 645 675 665 675 c 0
 708 675 730 701 730 753 c 0
 730 768 728 784 725 802 c 0
 722 818 718 833 713 845 c 1
 734 845 l 1
 745 813 750 782 750 753 c 0
EndSplineSet
EndChar

StartChar: uni1EE8
Encoding: 7912 7912 170
Width: 730
Flags: W
LayerCount: 2
Fore
SplineSet
750 753 m 0
 750 722 743 698 728 680 c 0
 713 664 692 655 665 655 c 0
 646 655 626 659 605 668 c 1
 605 270 l 2
 605 177 583 108 540 60 c 0
 496 14 431 -10 345 -10 c 0
 259 -10 194 14 150 60 c 0
 107 108 85 177 85 270 c 2
 85 730 l 1
 105 730 l 1
 105 270 l 2
 105 97 185 10 345 10 c 0
 505 10 585 97 585 270 c 2
 585 730 l 1
 605 730 l 1
 605 690 l 1
 625 680 645 675 665 675 c 0
 708 675 730 701 730 753 c 0
 730 768 728 784 725 802 c 0
 722 818 718 833 713 845 c 1
 734 845 l 1
 745 813 750 782 750 753 c 0
296 770 m 1
 273 770 l 1
 394 980 l 1
 417 980 l 1
 296 770 l 1
EndSplineSet
EndChar

StartChar: uni1EF0
Encoding: 7920 7920 171
Width: 730
Flags: W
LayerCount: 2
Fore
SplineSet
750 753 m 0
 750 722 743 698 728 680 c 0
 713 664 692 655 665 655 c 0
 646 655 626 659 605 668 c 1
 605 270 l 2
 605 177 583 108 540 60 c 0
 496 14 431 -10 345 -10 c 0
 259 -10 194 14 150 60 c 0
 107 108 85 177 85 270 c 2
 85 730 l 1
 105 730 l 1
 105 270 l 2
 105 97 185 10 345 10 c 0
 505 10 585 97 585 270 c 2
 585 730 l 1
 605 730 l 1
 605 690 l 1
 625 680 645 675 665 675 c 0
 708 675 730 701 730 753 c 0
 730 768 728 784 725 802 c 0
 722 818 718 833 713 845 c 1
 734 845 l 1
 745 813 750 782 750 753 c 0
315 -115 m 1
 375 -115 l 1
 375 -175 l 1
 315 -175 l 1
 315 -115 l 1
EndSplineSet
EndChar

StartChar: uni1EEA
Encoding: 7914 7914 172
Width: 730
Flags: W
LayerCount: 2
Fore
SplineSet
750 753 m 0
 750 722 743 698 728 680 c 0
 713 664 692 655 665 655 c 0
 646 655 626 659 605 668 c 1
 605 270 l 2
 605 177 583 108 540 60 c 0
 496 14 431 -10 345 -10 c 0
 259 -10 194 14 150 60 c 0
 107 108 85 177 85 270 c 2
 85 730 l 1
 105 730 l 1
 105 270 l 2
 105 97 185 10 345 10 c 0
 505 10 585 97 585 270 c 2
 585 730 l 1
 605 730 l 1
 605 690 l 1
 625 680 645 675 665 675 c 0
 708 675 730 701 730 753 c 0
 730 768 728 784 725 802 c 0
 722 818 718 833 713 845 c 1
 734 845 l 1
 745 813 750 782 750 753 c 0
273 980 m 1
 296 980 l 1
 417 770 l 1
 394 770 l 1
 273 980 l 1
EndSplineSet
EndChar

StartChar: uni1EEC
Encoding: 7916 7916 173
Width: 730
Flags: W
LayerCount: 2
Fore
SplineSet
750 753 m 0
 750 722 743 698 728 680 c 0
 713 664 692 655 665 655 c 0
 646 655 626 659 605 668 c 1
 605 270 l 2
 605 177 583 108 540 60 c 0
 496 14 431 -10 345 -10 c 0
 259 -10 194 14 150 60 c 0
 107 108 85 177 85 270 c 2
 85 730 l 1
 105 730 l 1
 105 270 l 2
 105 97 185 10 345 10 c 0
 505 10 585 97 585 270 c 2
 585 730 l 1
 605 730 l 1
 605 690 l 1
 625 680 645 675 665 675 c 0
 708 675 730 701 730 753 c 0
 730 768 728 784 725 802 c 0
 722 818 718 833 713 845 c 1
 734 845 l 1
 745 813 750 782 750 753 c 0
444 856 m 0
 447 874 449 890 449 903 c 0
 449 923 442 937 428 944 c 0
 413 951 386 955 345 955 c 0
 305 955 265 950 226 940 c 1
 221 959 l 1
 263 970 304 975 345 975 c 0
 391 975 423 970 442 959 c 0
 460 948 469 930 469 903 c 0
 469 890 468 876 464 859 c 0
 462 842 458 828 453 815 c 1
 431 815 l 1
 436 825 440 839 444 856 c 0
EndSplineSet
EndChar

StartChar: uni1EEE
Encoding: 7918 7918 174
Width: 730
Flags: W
LayerCount: 2
Fore
SplineSet
750 753 m 0
 750 722 743 698 728 680 c 0
 713 664 692 655 665 655 c 0
 646 655 626 659 605 668 c 1
 605 270 l 2
 605 177 583 108 540 60 c 0
 496 14 431 -10 345 -10 c 0
 259 -10 194 14 150 60 c 0
 107 108 85 177 85 270 c 2
 85 730 l 1
 105 730 l 1
 105 270 l 2
 105 97 185 10 345 10 c 0
 505 10 585 97 585 270 c 2
 585 730 l 1
 605 730 l 1
 605 690 l 1
 625 680 645 675 665 675 c 0
 708 675 730 701 730 753 c 0
 730 768 728 784 725 802 c 0
 722 818 718 833 713 845 c 1
 734 845 l 1
 745 813 750 782 750 753 c 0
339 867 m 0
 296 899 265 915 244 915 c 0
 219 915 206 885 206 825 c 1
 186 825 l 1
 186 862 191 889 200 908 c 0
 209 926 224 935 244 935 c 0
 269 935 305 918 351 883 c 0
 394 851 426 835 446 835 c 0
 471 835 484 865 484 925 c 1
 504 925 l 1
 504 852 485 815 446 815 c 0
 422 815 386 832 339 867 c 0
EndSplineSet
EndChar

StartChar: Uhungarumlaut
Encoding: 368 368 175
Width: 690
Flags: W
LayerCount: 2
Fore
SplineSet
150 60 m 0
 107 108 85 177 85 270 c 2
 85 730 l 1
 105 730 l 1
 105 270 l 2
 105 97 185 10 345 10 c 0
 505 10 585 97 585 270 c 2
 585 730 l 1
 605 730 l 1
 605 270 l 2
 605 177 583 108 540 60 c 0
 496 14 431 -10 345 -10 c 0
 259 -10 194 14 150 60 c 0
216 770 m 1
 193 770 l 1
 314 980 l 1
 337 980 l 1
 216 770 l 1
396 770 m 1
 373 770 l 1
 494 980 l 1
 517 980 l 1
 396 770 l 1
EndSplineSet
EndChar

StartChar: uni0216
Encoding: 534 534 176
Width: 690
Flags: W
LayerCount: 2
Fore
SplineSet
150 60 m 0
 107 108 85 177 85 270 c 2
 85 730 l 1
 105 730 l 1
 105 270 l 2
 105 97 185 10 345 10 c 0
 505 10 585 97 585 270 c 2
 585 730 l 1
 605 730 l 1
 605 270 l 2
 605 177 583 108 540 60 c 0
 496 14 431 -10 345 -10 c 0
 259 -10 194 14 150 60 c 0
452 912 m 0
 480 890 498 861 504 825 c 1
 484 825 l 1
 478 855 462 879 437 898 c 0
 412 916 381 925 345 925 c 0
 309 925 278 916 253 898 c 0
 228 879 212 855 206 825 c 1
 186 825 l 1
 192 861 210 890 238 912 c 0
 268 934 303 945 345 945 c 0
 387 945 422 934 452 912 c 0
EndSplineSet
EndChar

StartChar: Umacron
Encoding: 362 362 177
Width: 690
Flags: W
LayerCount: 2
Fore
SplineSet
150 60 m 0
 107 108 85 177 85 270 c 2
 85 730 l 1
 105 730 l 1
 105 270 l 2
 105 97 185 10 345 10 c 0
 505 10 585 97 585 270 c 2
 585 730 l 1
 605 730 l 1
 605 270 l 2
 605 177 583 108 540 60 c 0
 496 14 431 -10 345 -10 c 0
 259 -10 194 14 150 60 c 0
178 885 m 1
 512 885 l 1
 512 865 l 1
 178 865 l 1
 178 885 l 1
EndSplineSet
EndChar

StartChar: Uogonek
Encoding: 370 370 178
Width: 690
Flags: W
LayerCount: 2
Fore
SplineSet
360 -62 m 0
 341 -83 332 -104 332 -125 c 0
 332 -150 342 -167 364 -176 c 0
 384 -185 410 -190 440 -190 c 0
 475 -190 506 -184 533 -171 c 1
 541 -189 l 1
 511 -203 477 -210 440 -210 c 0
 391 -210 357 -201 339 -184 c 0
 321 -167 312 -147 312 -125 c 0
 312 -105 319 -85 332 -65 c 0
 345 -45 364 -26 389 -8 c 1
 370 -9 356 -10 345 -10 c 0
 259 -10 194 14 150 60 c 0
 107 108 85 177 85 270 c 2
 85 730 l 1
 105 730 l 1
 105 270 l 2
 105 97 185 10 345 10 c 0
 505 10 585 97 585 270 c 2
 585 730 l 1
 605 730 l 1
 605 270 l 2
 605 197 591 137 563 92 c 0
 535 47 494 17 439 2 c 1
 404 -19 378 -40 360 -62 c 0
EndSplineSet
EndChar

StartChar: Uring
Encoding: 366 366 179
Width: 690
Flags: W
LayerCount: 2
Fore
SplineSet
150 60 m 0
 107 108 85 177 85 270 c 2
 85 730 l 1
 105 730 l 1
 105 270 l 2
 105 97 185 10 345 10 c 0
 505 10 585 97 585 270 c 2
 585 730 l 1
 605 730 l 1
 605 270 l 2
 605 177 583 108 540 60 c 0
 496 14 431 -10 345 -10 c 0
 259 -10 194 14 150 60 c 0
256 772 m 0
 232 796 220 825 220 860 c 0
 220 895 232 924 256 948 c 0
 281 973 310 985 345 985 c 0
 380 985 409 973 434 948 c 0
 458 924 470 895 470 860 c 0
 470 825 458 796 434 772 c 0
 409 747 380 735 345 735 c 0
 310 735 281 747 256 772 c 0
419 786 m 0
 440 807 450 831 450 860 c 0
 450 889 440 914 419 934 c 0
 398 955 374 965 345 965 c 0
 316 965 291 955 270 934 c 0
 250 914 240 889 240 860 c 0
 240 831 250 807 270 786 c 0
 291 765 316 755 345 755 c 0
 374 755 398 765 419 786 c 0
EndSplineSet
EndChar

StartChar: Utilde
Encoding: 360 360 180
Width: 690
Flags: W
LayerCount: 2
Fore
SplineSet
150 60 m 0
 107 108 85 177 85 270 c 2
 85 730 l 1
 105 730 l 1
 105 270 l 2
 105 97 185 10 345 10 c 0
 505 10 585 97 585 270 c 2
 585 730 l 1
 605 730 l 1
 605 270 l 2
 605 177 583 108 540 60 c 0
 496 14 431 -10 345 -10 c 0
 259 -10 194 14 150 60 c 0
339 867 m 0
 296 899 265 915 244 915 c 0
 219 915 206 885 206 825 c 1
 186 825 l 1
 186 862 191 889 200 908 c 0
 209 926 224 935 244 935 c 0
 269 935 305 918 351 883 c 0
 394 851 426 835 446 835 c 0
 471 835 484 865 484 925 c 1
 504 925 l 1
 504 852 485 815 446 815 c 0
 422 815 386 832 339 867 c 0
EndSplineSet
EndChar

StartChar: V
Encoding: 86 86 181
Width: 648
Flags: W
LayerCount: 2
Fore
SplineSet
19 730 m 1
 41 730 l 1
 323 20 l 1
 325 20 l 1
 607 730 l 1
 629 730 l 1
 339 0 l 1
 309 0 l 1
 19 730 l 1
EndSplineSet
EndChar

StartChar: W
Encoding: 87 87 182
Width: 890
Flags: W
LayerCount: 2
Fore
SplineSet
446 713 m 1
 444 713 l 1
 251 0 l 1
 219 0 l 1
 30 730 l 1
 51 730 l 1
 234 17 l 1
 236 17 l 1
 429 730 l 1
 461 730 l 1
 654 17 l 1
 656 17 l 1
 839 730 l 1
 860 730 l 1
 671 0 l 1
 639 0 l 1
 446 713 l 1
EndSplineSet
EndChar

StartChar: Wacute
Encoding: 7810 7810 183
Width: 890
Flags: W
LayerCount: 2
Fore
SplineSet
446 713 m 1
 444 713 l 1
 251 0 l 1
 219 0 l 1
 30 730 l 1
 51 730 l 1
 234 17 l 1
 236 17 l 1
 429 730 l 1
 461 730 l 1
 654 17 l 1
 656 17 l 1
 839 730 l 1
 860 730 l 1
 671 0 l 1
 639 0 l 1
 446 713 l 1
396 770 m 1
 373 770 l 1
 494 980 l 1
 517 980 l 1
 396 770 l 1
EndSplineSet
EndChar

StartChar: Wcircumflex
Encoding: 372 372 184
Width: 890
Flags: W
LayerCount: 2
Fore
SplineSet
446 713 m 1
 444 713 l 1
 251 0 l 1
 219 0 l 1
 30 730 l 1
 51 730 l 1
 234 17 l 1
 236 17 l 1
 429 730 l 1
 461 730 l 1
 654 17 l 1
 656 17 l 1
 839 730 l 1
 860 730 l 1
 671 0 l 1
 639 0 l 1
 446 713 l 1
430 980 m 1
 460 980 l 1
 617 770 l 1
 592 770 l 1
 446 965 l 1
 444 965 l 1
 298 770 l 1
 273 770 l 1
 430 980 l 1
EndSplineSet
EndChar

StartChar: Wdieresis
Encoding: 7812 7812 185
Width: 890
Flags: W
LayerCount: 2
Fore
SplineSet
446 713 m 1
 444 713 l 1
 251 0 l 1
 219 0 l 1
 30 730 l 1
 51 730 l 1
 234 17 l 1
 236 17 l 1
 429 730 l 1
 461 730 l 1
 654 17 l 1
 656 17 l 1
 839 730 l 1
 860 730 l 1
 671 0 l 1
 639 0 l 1
 446 713 l 1
295 905 m 1
 355 905 l 1
 355 845 l 1
 295 845 l 1
 295 905 l 1
535 905 m 1
 595 905 l 1
 595 845 l 1
 535 845 l 1
 535 905 l 1
EndSplineSet
EndChar

StartChar: Wgrave
Encoding: 7808 7808 186
Width: 890
Flags: W
LayerCount: 2
Fore
SplineSet
446 713 m 1
 444 713 l 1
 251 0 l 1
 219 0 l 1
 30 730 l 1
 51 730 l 1
 234 17 l 1
 236 17 l 1
 429 730 l 1
 461 730 l 1
 654 17 l 1
 656 17 l 1
 839 730 l 1
 860 730 l 1
 671 0 l 1
 639 0 l 1
 446 713 l 1
373 980 m 1
 396 980 l 1
 517 770 l 1
 494 770 l 1
 373 980 l 1
EndSplineSet
EndChar

StartChar: X
Encoding: 88 88 187
Width: 688
Flags: W
LayerCount: 2
Fore
SplineSet
332 369 m 1
 70 730 l 1
 95 730 l 1
 343 387 l 1
 345 387 l 1
 593 730 l 1
 618 730 l 1
 356 369 l 1
 624 0 l 1
 599 0 l 1
 345 352 l 1
 343 352 l 1
 89 0 l 1
 64 0 l 1
 332 369 l 1
EndSplineSet
EndChar

StartChar: Y
Encoding: 89 89 188
Width: 622
Flags: W
LayerCount: 2
Fore
SplineSet
301 317 m 1
 11 730 l 1
 35 730 l 1
 310 338 l 1
 312 338 l 1
 587 730 l 1
 611 730 l 1
 321 317 l 1
 321 0 l 1
 301 0 l 1
 301 317 l 1
EndSplineSet
EndChar

StartChar: Yacute
Encoding: 221 221 189
Width: 622
Flags: W
LayerCount: 2
Fore
SplineSet
301 317 m 1
 11 730 l 1
 35 730 l 1
 310 338 l 1
 312 338 l 1
 587 730 l 1
 611 730 l 1
 321 317 l 1
 321 0 l 1
 301 0 l 1
 301 317 l 1
262 770 m 1
 239 770 l 1
 360 980 l 1
 383 980 l 1
 262 770 l 1
EndSplineSet
EndChar

StartChar: Ycircumflex
Encoding: 374 374 190
Width: 622
Flags: W
LayerCount: 2
Fore
SplineSet
301 317 m 1
 11 730 l 1
 35 730 l 1
 310 338 l 1
 312 338 l 1
 587 730 l 1
 611 730 l 1
 321 317 l 1
 321 0 l 1
 301 0 l 1
 301 317 l 1
296 980 m 1
 326 980 l 1
 483 770 l 1
 458 770 l 1
 312 965 l 1
 310 965 l 1
 164 770 l 1
 139 770 l 1
 296 980 l 1
EndSplineSet
EndChar

StartChar: Ydieresis
Encoding: 376 376 191
Width: 622
Flags: W
LayerCount: 2
Fore
SplineSet
301 317 m 1
 11 730 l 1
 35 730 l 1
 310 338 l 1
 312 338 l 1
 587 730 l 1
 611 730 l 1
 321 317 l 1
 321 0 l 1
 301 0 l 1
 301 317 l 1
161 905 m 1
 221 905 l 1
 221 845 l 1
 161 845 l 1
 161 905 l 1
401 905 m 1
 461 905 l 1
 461 845 l 1
 401 845 l 1
 401 905 l 1
EndSplineSet
EndChar

StartChar: uni1EF4
Encoding: 7924 7924 192
Width: 622
Flags: W
LayerCount: 2
Fore
SplineSet
301 317 m 1
 11 730 l 1
 35 730 l 1
 310 338 l 1
 312 338 l 1
 587 730 l 1
 611 730 l 1
 321 317 l 1
 321 0 l 1
 301 0 l 1
 301 317 l 1
281 -115 m 1
 341 -115 l 1
 341 -175 l 1
 281 -175 l 1
 281 -115 l 1
EndSplineSet
EndChar

StartChar: Ygrave
Encoding: 7922 7922 193
Width: 622
Flags: W
LayerCount: 2
Fore
SplineSet
301 317 m 1
 11 730 l 1
 35 730 l 1
 310 338 l 1
 312 338 l 1
 587 730 l 1
 611 730 l 1
 321 317 l 1
 321 0 l 1
 301 0 l 1
 301 317 l 1
239 980 m 1
 262 980 l 1
 383 770 l 1
 360 770 l 1
 239 980 l 1
EndSplineSet
EndChar

StartChar: uni1EF6
Encoding: 7926 7926 194
Width: 622
Flags: W
LayerCount: 2
Fore
SplineSet
301 317 m 1
 11 730 l 1
 35 730 l 1
 310 338 l 1
 312 338 l 1
 587 730 l 1
 611 730 l 1
 321 317 l 1
 321 0 l 1
 301 0 l 1
 301 317 l 1
410 856 m 0
 413 874 415 890 415 903 c 0
 415 923 408 937 394 944 c 0
 379 951 352 955 311 955 c 0
 271 955 231 950 192 940 c 1
 187 959 l 1
 229 970 270 975 311 975 c 0
 357 975 389 970 408 959 c 0
 426 948 435 930 435 903 c 0
 435 890 434 876 430 859 c 0
 428 842 424 828 419 815 c 1
 397 815 l 1
 402 825 406 839 410 856 c 0
EndSplineSet
EndChar

StartChar: uni0232
Encoding: 562 562 195
Width: 622
Flags: W
LayerCount: 2
Fore
SplineSet
301 317 m 1
 11 730 l 1
 35 730 l 1
 310 338 l 1
 312 338 l 1
 587 730 l 1
 611 730 l 1
 321 317 l 1
 321 0 l 1
 301 0 l 1
 301 317 l 1
144 885 m 1
 478 885 l 1
 478 865 l 1
 144 865 l 1
 144 885 l 1
EndSplineSet
EndChar

StartChar: uni1EF8
Encoding: 7928 7928 196
Width: 622
Flags: W
LayerCount: 2
Fore
SplineSet
301 317 m 1
 11 730 l 1
 35 730 l 1
 310 338 l 1
 312 338 l 1
 587 730 l 1
 611 730 l 1
 321 317 l 1
 321 0 l 1
 301 0 l 1
 301 317 l 1
305 867 m 0
 262 899 231 915 210 915 c 0
 185 915 172 885 172 825 c 1
 152 825 l 1
 152 862 157 889 166 908 c 0
 175 926 190 935 210 935 c 0
 235 935 271 918 317 883 c 0
 360 851 392 835 412 835 c 0
 437 835 450 865 450 925 c 1
 470 925 l 1
 470 852 451 815 412 815 c 0
 388 815 352 832 305 867 c 0
EndSplineSet
EndChar

StartChar: Z
Encoding: 90 90 197
Width: 632
Flags: W
LayerCount: 2
Fore
SplineSet
76 20 m 1
 530 708 l 1
 530 710 l 1
 76 710 l 1
 76 730 l 1
 556 730 l 1
 556 710 l 1
 102 22 l 1
 102 20 l 1
 556 20 l 1
 556 0 l 1
 76 0 l 1
 76 20 l 1
EndSplineSet
EndChar

StartChar: Zacute
Encoding: 377 377 198
Width: 632
Flags: W
LayerCount: 2
Fore
SplineSet
76 20 m 1
 530 708 l 1
 530 710 l 1
 76 710 l 1
 76 730 l 1
 556 730 l 1
 556 710 l 1
 102 22 l 1
 102 20 l 1
 556 20 l 1
 556 0 l 1
 76 0 l 1
 76 20 l 1
267 770 m 1
 244 770 l 1
 365 980 l 1
 388 980 l 1
 267 770 l 1
EndSplineSet
EndChar

StartChar: Zcaron
Encoding: 381 381 199
Width: 632
Flags: W
LayerCount: 2
Fore
SplineSet
76 20 m 1
 530 708 l 1
 530 710 l 1
 76 710 l 1
 76 730 l 1
 556 730 l 1
 556 710 l 1
 102 22 l 1
 102 20 l 1
 556 20 l 1
 556 0 l 1
 76 0 l 1
 76 20 l 1
144 980 m 1
 169 980 l 1
 315 785 l 1
 317 785 l 1
 463 980 l 1
 488 980 l 1
 331 770 l 1
 301 770 l 1
 144 980 l 1
EndSplineSet
EndChar

StartChar: Zdotaccent
Encoding: 379 379 200
Width: 632
Flags: W
LayerCount: 2
Fore
SplineSet
76 20 m 1
 530 708 l 1
 530 710 l 1
 76 710 l 1
 76 730 l 1
 556 730 l 1
 556 710 l 1
 102 22 l 1
 102 20 l 1
 556 20 l 1
 556 0 l 1
 76 0 l 1
 76 20 l 1
286 905 m 1
 346 905 l 1
 346 845 l 1
 286 845 l 1
 286 905 l 1
EndSplineSet
EndChar

StartChar: a
Encoding: 97 97 201
Width: 511
Flags: W
LayerCount: 2
Fore
SplineSet
393 484 m 0
 420 453 434 402 434 330 c 2
 434 0 l 1
 414 0 l 1
 414 116 l 1
 412 116 l 1
 394 77 367 47 330 24 c 0
 293 1 252 -10 205 -10 c 0
 154 -10 112 4 81 31 c 0
 50 58 34 95 34 140 c 0
 34 199 62 245 116 277 c 0
 172 309 250 325 351 325 c 2
 414 325 l 1
 414 330 l 2
 414 375 409 410 398 436 c 0
 388 462 372 481 349 492 c 0
 326 504 295 510 256 510 c 0
 187 510 123 494 63 462 c 1
 54 480 l 1
 117 513 185 530 256 530 c 0
 320 530 366 515 393 484 c 0
312 36 m 0
 344 53 369 77 387 108 c 0
 405 138 414 172 414 210 c 2
 414 305 l 1
 351 305 l 2
 256 305 182 291 131 262 c 0
 80 234 54 193 54 140 c 0
 54 101 68 69 95 46 c 0
 122 22 159 10 205 10 c 0
 244 10 280 19 312 36 c 0
EndSplineSet
EndChar

StartChar: aacute
Encoding: 225 225 202
Width: 511
Flags: W
LayerCount: 2
Fore
SplineSet
393 484 m 0
 420 453 434 402 434 330 c 2
 434 0 l 1
 414 0 l 1
 414 116 l 1
 412 116 l 1
 394 77 367 47 330 24 c 0
 293 1 252 -10 205 -10 c 0
 154 -10 112 4 81 31 c 0
 50 58 34 95 34 140 c 0
 34 199 62 245 116 277 c 0
 172 309 250 325 351 325 c 2
 414 325 l 1
 414 330 l 2
 414 375 409 410 398 436 c 0
 388 462 372 481 349 492 c 0
 326 504 295 510 256 510 c 0
 187 510 123 494 63 462 c 1
 54 480 l 1
 117 513 185 530 256 530 c 0
 320 530 366 515 393 484 c 0
312 36 m 0
 344 53 369 77 387 108 c 0
 405 138 414 172 414 210 c 2
 414 305 l 1
 351 305 l 2
 256 305 182 291 131 262 c 0
 80 234 54 193 54 140 c 0
 54 101 68 69 95 46 c 0
 122 22 159 10 205 10 c 0
 244 10 280 19 312 36 c 0
191 560 m 1
 168 560 l 1
 289 770 l 1
 312 770 l 1
 191 560 l 1
EndSplineSet
EndChar

StartChar: abreve
Encoding: 259 259 203
Width: 511
Flags: W
LayerCount: 2
Fore
SplineSet
393 484 m 0
 420 453 434 402 434 330 c 2
 434 0 l 1
 414 0 l 1
 414 116 l 1
 412 116 l 1
 394 77 367 47 330 24 c 0
 293 1 252 -10 205 -10 c 0
 154 -10 112 4 81 31 c 0
 50 58 34 95 34 140 c 0
 34 199 62 245 116 277 c 0
 172 309 250 325 351 325 c 2
 414 325 l 1
 414 330 l 2
 414 375 409 410 398 436 c 0
 388 462 372 481 349 492 c 0
 326 504 295 510 256 510 c 0
 187 510 123 494 63 462 c 1
 54 480 l 1
 117 513 185 530 256 530 c 0
 320 530 366 515 393 484 c 0
312 36 m 0
 344 53 369 77 387 108 c 0
 405 138 414 172 414 210 c 2
 414 305 l 1
 351 305 l 2
 256 305 182 291 131 262 c 0
 80 234 54 193 54 140 c 0
 54 101 68 69 95 46 c 0
 122 22 159 10 205 10 c 0
 244 10 280 19 312 36 c 0
134 628 m 0
 104 650 87 679 81 715 c 1
 101 715 l 1
 107 685 123 661 148 642 c 0
 173 624 204 615 240 615 c 0
 276 615 307 624 332 642 c 0
 357 661 373 685 379 715 c 1
 399 715 l 1
 393 679 376 650 346 628 c 0
 318 606 282 595 240 595 c 0
 198 595 162 606 134 628 c 0
EndSplineSet
EndChar

StartChar: uni1EAF
Encoding: 7855 7855 204
Width: 511
Flags: W
LayerCount: 2
Fore
SplineSet
393 484 m 0
 420 453 434 402 434 330 c 2
 434 0 l 1
 414 0 l 1
 414 116 l 1
 412 116 l 1
 394 77 367 47 330 24 c 0
 293 1 252 -10 205 -10 c 0
 154 -10 112 4 81 31 c 0
 50 58 34 95 34 140 c 0
 34 199 62 245 116 277 c 0
 172 309 250 325 351 325 c 2
 414 325 l 1
 414 330 l 2
 414 375 409 410 398 436 c 0
 388 462 372 481 349 492 c 0
 326 504 295 510 256 510 c 0
 187 510 123 494 63 462 c 1
 54 480 l 1
 117 513 185 530 256 530 c 0
 320 530 366 515 393 484 c 0
312 36 m 0
 344 53 369 77 387 108 c 0
 405 138 414 172 414 210 c 2
 414 305 l 1
 351 305 l 2
 256 305 182 291 131 262 c 0
 80 234 54 193 54 140 c 0
 54 101 68 69 95 46 c 0
 122 22 159 10 205 10 c 0
 244 10 280 19 312 36 c 0
134 628 m 0
 104 650 87 679 81 715 c 1
 101 715 l 1
 107 685 123 661 148 642 c 0
 173 624 204 615 240 615 c 0
 276 615 307 624 332 642 c 0
 357 661 373 685 379 715 c 1
 399 715 l 1
 393 679 376 650 346 628 c 0
 318 606 282 595 240 595 c 0
 198 595 162 606 134 628 c 0
191 700 m 1
 168 700 l 1
 289 910 l 1
 312 910 l 1
 191 700 l 1
EndSplineSet
EndChar

StartChar: uni1EB7
Encoding: 7863 7863 205
Width: 511
Flags: W
LayerCount: 2
Fore
SplineSet
393 484 m 0
 420 453 434 402 434 330 c 2
 434 0 l 1
 414 0 l 1
 414 116 l 1
 412 116 l 1
 394 77 367 47 330 24 c 0
 293 1 252 -10 205 -10 c 0
 154 -10 112 4 81 31 c 0
 50 58 34 95 34 140 c 0
 34 199 62 245 116 277 c 0
 172 309 250 325 351 325 c 2
 414 325 l 1
 414 330 l 2
 414 375 409 410 398 436 c 0
 388 462 372 481 349 492 c 0
 326 504 295 510 256 510 c 0
 187 510 123 494 63 462 c 1
 54 480 l 1
 117 513 185 530 256 530 c 0
 320 530 366 515 393 484 c 0
312 36 m 0
 344 53 369 77 387 108 c 0
 405 138 414 172 414 210 c 2
 414 305 l 1
 351 305 l 2
 256 305 182 291 131 262 c 0
 80 234 54 193 54 140 c 0
 54 101 68 69 95 46 c 0
 122 22 159 10 205 10 c 0
 244 10 280 19 312 36 c 0
210 -115 m 1
 270 -115 l 1
 270 -175 l 1
 210 -175 l 1
 210 -115 l 1
134 628 m 0
 104 650 87 679 81 715 c 1
 101 715 l 1
 107 685 123 661 148 642 c 0
 173 624 204 615 240 615 c 0
 276 615 307 624 332 642 c 0
 357 661 373 685 379 715 c 1
 399 715 l 1
 393 679 376 650 346 628 c 0
 318 606 282 595 240 595 c 0
 198 595 162 606 134 628 c 0
EndSplineSet
EndChar

StartChar: uni1EB1
Encoding: 7857 7857 206
Width: 511
Flags: W
LayerCount: 2
Fore
SplineSet
393 484 m 0
 420 453 434 402 434 330 c 2
 434 0 l 1
 414 0 l 1
 414 116 l 1
 412 116 l 1
 394 77 367 47 330 24 c 0
 293 1 252 -10 205 -10 c 0
 154 -10 112 4 81 31 c 0
 50 58 34 95 34 140 c 0
 34 199 62 245 116 277 c 0
 172 309 250 325 351 325 c 2
 414 325 l 1
 414 330 l 2
 414 375 409 410 398 436 c 0
 388 462 372 481 349 492 c 0
 326 504 295 510 256 510 c 0
 187 510 123 494 63 462 c 1
 54 480 l 1
 117 513 185 530 256 530 c 0
 320 530 366 515 393 484 c 0
312 36 m 0
 344 53 369 77 387 108 c 0
 405 138 414 172 414 210 c 2
 414 305 l 1
 351 305 l 2
 256 305 182 291 131 262 c 0
 80 234 54 193 54 140 c 0
 54 101 68 69 95 46 c 0
 122 22 159 10 205 10 c 0
 244 10 280 19 312 36 c 0
134 628 m 0
 104 650 87 679 81 715 c 1
 101 715 l 1
 107 685 123 661 148 642 c 0
 173 624 204 615 240 615 c 0
 276 615 307 624 332 642 c 0
 357 661 373 685 379 715 c 1
 399 715 l 1
 393 679 376 650 346 628 c 0
 318 606 282 595 240 595 c 0
 198 595 162 606 134 628 c 0
168 910 m 1
 191 910 l 1
 312 700 l 1
 289 700 l 1
 168 910 l 1
EndSplineSet
EndChar

StartChar: uni1EB3
Encoding: 7859 7859 207
Width: 511
Flags: W
LayerCount: 2
Fore
SplineSet
393 484 m 0
 420 453 434 402 434 330 c 2
 434 0 l 1
 414 0 l 1
 414 116 l 1
 412 116 l 1
 394 77 367 47 330 24 c 0
 293 1 252 -10 205 -10 c 0
 154 -10 112 4 81 31 c 0
 50 58 34 95 34 140 c 0
 34 199 62 245 116 277 c 0
 172 309 250 325 351 325 c 2
 414 325 l 1
 414 330 l 2
 414 375 409 410 398 436 c 0
 388 462 372 481 349 492 c 0
 326 504 295 510 256 510 c 0
 187 510 123 494 63 462 c 1
 54 480 l 1
 117 513 185 530 256 530 c 0
 320 530 366 515 393 484 c 0
312 36 m 0
 344 53 369 77 387 108 c 0
 405 138 414 172 414 210 c 2
 414 305 l 1
 351 305 l 2
 256 305 182 291 131 262 c 0
 80 234 54 193 54 140 c 0
 54 101 68 69 95 46 c 0
 122 22 159 10 205 10 c 0
 244 10 280 19 312 36 c 0
134 628 m 0
 104 650 87 679 81 715 c 1
 101 715 l 1
 107 685 123 661 148 642 c 0
 173 624 204 615 240 615 c 0
 276 615 307 624 332 642 c 0
 357 661 373 685 379 715 c 1
 399 715 l 1
 393 679 376 650 346 628 c 0
 318 606 282 595 240 595 c 0
 198 595 162 606 134 628 c 0
338 746 m 0
 342 764 344 780 344 793 c 0
 344 813 337 827 322 834 c 0
 308 841 281 845 240 845 c 0
 200 845 160 840 121 830 c 1
 116 849 l 1
 158 860 199 865 240 865 c 0
 286 865 318 860 336 849 c 0
 355 838 364 820 364 793 c 0
 364 780 362 766 360 749 c 0
 356 732 353 718 348 705 c 1
 326 705 l 1
 331 715 335 729 338 746 c 0
EndSplineSet
EndChar

StartChar: uni1EB5
Encoding: 7861 7861 208
Width: 511
Flags: W
LayerCount: 2
Fore
SplineSet
393 484 m 0
 420 453 434 402 434 330 c 2
 434 0 l 1
 414 0 l 1
 414 116 l 1
 412 116 l 1
 394 77 367 47 330 24 c 0
 293 1 252 -10 205 -10 c 0
 154 -10 112 4 81 31 c 0
 50 58 34 95 34 140 c 0
 34 199 62 245 116 277 c 0
 172 309 250 325 351 325 c 2
 414 325 l 1
 414 330 l 2
 414 375 409 410 398 436 c 0
 388 462 372 481 349 492 c 0
 326 504 295 510 256 510 c 0
 187 510 123 494 63 462 c 1
 54 480 l 1
 117 513 185 530 256 530 c 0
 320 530 366 515 393 484 c 0
312 36 m 0
 344 53 369 77 387 108 c 0
 405 138 414 172 414 210 c 2
 414 305 l 1
 351 305 l 2
 256 305 182 291 131 262 c 0
 80 234 54 193 54 140 c 0
 54 101 68 69 95 46 c 0
 122 22 159 10 205 10 c 0
 244 10 280 19 312 36 c 0
134 628 m 0
 104 650 87 679 81 715 c 1
 101 715 l 1
 107 685 123 661 148 642 c 0
 173 624 204 615 240 615 c 0
 276 615 307 624 332 642 c 0
 357 661 373 685 379 715 c 1
 399 715 l 1
 393 679 376 650 346 628 c 0
 318 606 282 595 240 595 c 0
 198 595 162 606 134 628 c 0
234 827 m 0
 191 859 160 875 139 875 c 0
 114 875 101 845 101 785 c 1
 81 785 l 1
 81 822 86 849 95 868 c 0
 104 886 119 895 139 895 c 0
 164 895 200 878 246 843 c 0
 289 811 321 795 341 795 c 0
 366 795 379 825 379 885 c 1
 399 885 l 1
 399 812 380 775 341 775 c 0
 317 775 281 792 234 827 c 0
EndSplineSet
EndChar

StartChar: acircumflex
Encoding: 226 226 209
Width: 511
Flags: W
LayerCount: 2
Fore
SplineSet
393 484 m 0
 420 453 434 402 434 330 c 2
 434 0 l 1
 414 0 l 1
 414 116 l 1
 412 116 l 1
 394 77 367 47 330 24 c 0
 293 1 252 -10 205 -10 c 0
 154 -10 112 4 81 31 c 0
 50 58 34 95 34 140 c 0
 34 199 62 245 116 277 c 0
 172 309 250 325 351 325 c 2
 414 325 l 1
 414 330 l 2
 414 375 409 410 398 436 c 0
 388 462 372 481 349 492 c 0
 326 504 295 510 256 510 c 0
 187 510 123 494 63 462 c 1
 54 480 l 1
 117 513 185 530 256 530 c 0
 320 530 366 515 393 484 c 0
312 36 m 0
 344 53 369 77 387 108 c 0
 405 138 414 172 414 210 c 2
 414 305 l 1
 351 305 l 2
 256 305 182 291 131 262 c 0
 80 234 54 193 54 140 c 0
 54 101 68 69 95 46 c 0
 122 22 159 10 205 10 c 0
 244 10 280 19 312 36 c 0
225 770 m 1
 255 770 l 1
 412 560 l 1
 387 560 l 1
 241 755 l 1
 239 755 l 1
 93 560 l 1
 68 560 l 1
 225 770 l 1
EndSplineSet
EndChar

StartChar: uni1EA5
Encoding: 7845 7845 210
Width: 511
Flags: W
LayerCount: 2
Fore
SplineSet
393 484 m 0
 420 453 434 402 434 330 c 2
 434 0 l 1
 414 0 l 1
 414 116 l 1
 412 116 l 1
 394 77 367 47 330 24 c 0
 293 1 252 -10 205 -10 c 0
 154 -10 112 4 81 31 c 0
 50 58 34 95 34 140 c 0
 34 199 62 245 116 277 c 0
 172 309 250 325 351 325 c 2
 414 325 l 1
 414 330 l 2
 414 375 409 410 398 436 c 0
 388 462 372 481 349 492 c 0
 326 504 295 510 256 510 c 0
 187 510 123 494 63 462 c 1
 54 480 l 1
 117 513 185 530 256 530 c 0
 320 530 366 515 393 484 c 0
312 36 m 0
 344 53 369 77 387 108 c 0
 405 138 414 172 414 210 c 2
 414 305 l 1
 351 305 l 2
 256 305 182 291 131 262 c 0
 80 234 54 193 54 140 c 0
 54 101 68 69 95 46 c 0
 122 22 159 10 205 10 c 0
 244 10 280 19 312 36 c 0
225 770 m 1
 255 770 l 1
 412 560 l 1
 387 560 l 1
 241 755 l 1
 239 755 l 1
 93 560 l 1
 68 560 l 1
 225 770 l 1
335 740 m 1
 312 740 l 1
 433 950 l 1
 456 950 l 1
 335 740 l 1
EndSplineSet
EndChar

StartChar: uni1EAD
Encoding: 7853 7853 211
Width: 511
Flags: W
LayerCount: 2
Fore
SplineSet
393 484 m 0
 420 453 434 402 434 330 c 2
 434 0 l 1
 414 0 l 1
 414 116 l 1
 412 116 l 1
 394 77 367 47 330 24 c 0
 293 1 252 -10 205 -10 c 0
 154 -10 112 4 81 31 c 0
 50 58 34 95 34 140 c 0
 34 199 62 245 116 277 c 0
 172 309 250 325 351 325 c 2
 414 325 l 1
 414 330 l 2
 414 375 409 410 398 436 c 0
 388 462 372 481 349 492 c 0
 326 504 295 510 256 510 c 0
 187 510 123 494 63 462 c 1
 54 480 l 1
 117 513 185 530 256 530 c 0
 320 530 366 515 393 484 c 0
312 36 m 0
 344 53 369 77 387 108 c 0
 405 138 414 172 414 210 c 2
 414 305 l 1
 351 305 l 2
 256 305 182 291 131 262 c 0
 80 234 54 193 54 140 c 0
 54 101 68 69 95 46 c 0
 122 22 159 10 205 10 c 0
 244 10 280 19 312 36 c 0
210 -115 m 1
 270 -115 l 1
 270 -175 l 1
 210 -175 l 1
 210 -115 l 1
225 770 m 1
 255 770 l 1
 412 560 l 1
 387 560 l 1
 241 755 l 1
 239 755 l 1
 93 560 l 1
 68 560 l 1
 225 770 l 1
EndSplineSet
EndChar

StartChar: uni1EA7
Encoding: 7847 7847 212
Width: 511
Flags: W
LayerCount: 2
Fore
SplineSet
393 484 m 0
 420 453 434 402 434 330 c 2
 434 0 l 1
 414 0 l 1
 414 116 l 1
 412 116 l 1
 394 77 367 47 330 24 c 0
 293 1 252 -10 205 -10 c 0
 154 -10 112 4 81 31 c 0
 50 58 34 95 34 140 c 0
 34 199 62 245 116 277 c 0
 172 309 250 325 351 325 c 2
 414 325 l 1
 414 330 l 2
 414 375 409 410 398 436 c 0
 388 462 372 481 349 492 c 0
 326 504 295 510 256 510 c 0
 187 510 123 494 63 462 c 1
 54 480 l 1
 117 513 185 530 256 530 c 0
 320 530 366 515 393 484 c 0
312 36 m 0
 344 53 369 77 387 108 c 0
 405 138 414 172 414 210 c 2
 414 305 l 1
 351 305 l 2
 256 305 182 291 131 262 c 0
 80 234 54 193 54 140 c 0
 54 101 68 69 95 46 c 0
 122 22 159 10 205 10 c 0
 244 10 280 19 312 36 c 0
225 770 m 1
 255 770 l 1
 412 560 l 1
 387 560 l 1
 241 755 l 1
 239 755 l 1
 93 560 l 1
 68 560 l 1
 225 770 l 1
24 950 m 1
 47 950 l 1
 168 740 l 1
 145 740 l 1
 24 950 l 1
EndSplineSet
EndChar

StartChar: uni1EA9
Encoding: 7849 7849 213
Width: 511
Flags: W
LayerCount: 2
Fore
SplineSet
393 484 m 0
 420 453 434 402 434 330 c 2
 434 0 l 1
 414 0 l 1
 414 116 l 1
 412 116 l 1
 394 77 367 47 330 24 c 0
 293 1 252 -10 205 -10 c 0
 154 -10 112 4 81 31 c 0
 50 58 34 95 34 140 c 0
 34 199 62 245 116 277 c 0
 172 309 250 325 351 325 c 2
 414 325 l 1
 414 330 l 2
 414 375 409 410 398 436 c 0
 388 462 372 481 349 492 c 0
 326 504 295 510 256 510 c 0
 187 510 123 494 63 462 c 1
 54 480 l 1
 117 513 185 530 256 530 c 0
 320 530 366 515 393 484 c 0
312 36 m 0
 344 53 369 77 387 108 c 0
 405 138 414 172 414 210 c 2
 414 305 l 1
 351 305 l 2
 256 305 182 291 131 262 c 0
 80 234 54 193 54 140 c 0
 54 101 68 69 95 46 c 0
 122 22 159 10 205 10 c 0
 244 10 280 19 312 36 c 0
225 770 m 1
 255 770 l 1
 412 560 l 1
 387 560 l 1
 241 755 l 1
 239 755 l 1
 93 560 l 1
 68 560 l 1
 225 770 l 1
372 776 m 0
 376 794 378 810 378 823 c 0
 378 843 371 857 356 864 c 0
 342 871 315 875 274 875 c 0
 234 875 194 870 155 860 c 1
 150 879 l 1
 192 890 233 895 274 895 c 0
 320 895 352 890 370 879 c 0
 389 868 398 850 398 823 c 0
 398 810 396 796 394 779 c 0
 390 762 387 748 382 735 c 1
 360 735 l 1
 365 745 369 759 372 776 c 0
EndSplineSet
EndChar

StartChar: uni1EAB
Encoding: 7851 7851 214
Width: 511
Flags: W
LayerCount: 2
Fore
SplineSet
393 484 m 0
 420 453 434 402 434 330 c 2
 434 0 l 1
 414 0 l 1
 414 116 l 1
 412 116 l 1
 394 77 367 47 330 24 c 0
 293 1 252 -10 205 -10 c 0
 154 -10 112 4 81 31 c 0
 50 58 34 95 34 140 c 0
 34 199 62 245 116 277 c 0
 172 309 250 325 351 325 c 2
 414 325 l 1
 414 330 l 2
 414 375 409 410 398 436 c 0
 388 462 372 481 349 492 c 0
 326 504 295 510 256 510 c 0
 187 510 123 494 63 462 c 1
 54 480 l 1
 117 513 185 530 256 530 c 0
 320 530 366 515 393 484 c 0
312 36 m 0
 344 53 369 77 387 108 c 0
 405 138 414 172 414 210 c 2
 414 305 l 1
 351 305 l 2
 256 305 182 291 131 262 c 0
 80 234 54 193 54 140 c 0
 54 101 68 69 95 46 c 0
 122 22 159 10 205 10 c 0
 244 10 280 19 312 36 c 0
225 770 m 1
 255 770 l 1
 412 560 l 1
 387 560 l 1
 241 755 l 1
 239 755 l 1
 93 560 l 1
 68 560 l 1
 225 770 l 1
234 827 m 0
 191 859 160 875 139 875 c 0
 114 875 101 845 101 785 c 1
 81 785 l 1
 81 822 86 849 95 868 c 0
 104 886 119 895 139 895 c 0
 164 895 200 878 246 843 c 0
 289 811 321 795 341 795 c 0
 366 795 379 825 379 885 c 1
 399 885 l 1
 399 812 380 775 341 775 c 0
 317 775 281 792 234 827 c 0
EndSplineSet
EndChar

StartChar: uni0201
Encoding: 513 513 215
Width: 511
Flags: W
LayerCount: 2
Fore
SplineSet
393 484 m 0
 420 453 434 402 434 330 c 2
 434 0 l 1
 414 0 l 1
 414 116 l 1
 412 116 l 1
 394 77 367 47 330 24 c 0
 293 1 252 -10 205 -10 c 0
 154 -10 112 4 81 31 c 0
 50 58 34 95 34 140 c 0
 34 199 62 245 116 277 c 0
 172 309 250 325 351 325 c 2
 414 325 l 1
 414 330 l 2
 414 375 409 410 398 436 c 0
 388 462 372 481 349 492 c 0
 326 504 295 510 256 510 c 0
 187 510 123 494 63 462 c 1
 54 480 l 1
 117 513 185 530 256 530 c 0
 320 530 366 515 393 484 c 0
312 36 m 0
 344 53 369 77 387 108 c 0
 405 138 414 172 414 210 c 2
 414 305 l 1
 351 305 l 2
 256 305 182 291 131 262 c 0
 80 234 54 193 54 140 c 0
 54 101 68 69 95 46 c 0
 122 22 159 10 205 10 c 0
 244 10 280 19 312 36 c 0
69 770 m 1
 92 770 l 1
 213 560 l 1
 190 560 l 1
 69 770 l 1
249 770 m 1
 272 770 l 1
 393 560 l 1
 370 560 l 1
 249 770 l 1
EndSplineSet
EndChar

StartChar: adieresis
Encoding: 228 228 216
Width: 511
Flags: W
LayerCount: 2
Fore
SplineSet
393 484 m 0
 420 453 434 402 434 330 c 2
 434 0 l 1
 414 0 l 1
 414 116 l 1
 412 116 l 1
 394 77 367 47 330 24 c 0
 293 1 252 -10 205 -10 c 0
 154 -10 112 4 81 31 c 0
 50 58 34 95 34 140 c 0
 34 199 62 245 116 277 c 0
 172 309 250 325 351 325 c 2
 414 325 l 1
 414 330 l 2
 414 375 409 410 398 436 c 0
 388 462 372 481 349 492 c 0
 326 504 295 510 256 510 c 0
 187 510 123 494 63 462 c 1
 54 480 l 1
 117 513 185 530 256 530 c 0
 320 530 366 515 393 484 c 0
312 36 m 0
 344 53 369 77 387 108 c 0
 405 138 414 172 414 210 c 2
 414 305 l 1
 351 305 l 2
 256 305 182 291 131 262 c 0
 80 234 54 193 54 140 c 0
 54 101 68 69 95 46 c 0
 122 22 159 10 205 10 c 0
 244 10 280 19 312 36 c 0
90 695 m 1
 150 695 l 1
 150 635 l 1
 90 635 l 1
 90 695 l 1
330 695 m 1
 390 695 l 1
 390 635 l 1
 330 635 l 1
 330 695 l 1
EndSplineSet
EndChar

StartChar: uni1EA1
Encoding: 7841 7841 217
Width: 511
Flags: W
LayerCount: 2
Fore
SplineSet
393 484 m 0
 420 453 434 402 434 330 c 2
 434 0 l 1
 414 0 l 1
 414 116 l 1
 412 116 l 1
 394 77 367 47 330 24 c 0
 293 1 252 -10 205 -10 c 0
 154 -10 112 4 81 31 c 0
 50 58 34 95 34 140 c 0
 34 199 62 245 116 277 c 0
 172 309 250 325 351 325 c 2
 414 325 l 1
 414 330 l 2
 414 375 409 410 398 436 c 0
 388 462 372 481 349 492 c 0
 326 504 295 510 256 510 c 0
 187 510 123 494 63 462 c 1
 54 480 l 1
 117 513 185 530 256 530 c 0
 320 530 366 515 393 484 c 0
312 36 m 0
 344 53 369 77 387 108 c 0
 405 138 414 172 414 210 c 2
 414 305 l 1
 351 305 l 2
 256 305 182 291 131 262 c 0
 80 234 54 193 54 140 c 0
 54 101 68 69 95 46 c 0
 122 22 159 10 205 10 c 0
 244 10 280 19 312 36 c 0
210 -115 m 1
 270 -115 l 1
 270 -175 l 1
 210 -175 l 1
 210 -115 l 1
EndSplineSet
EndChar

StartChar: agrave
Encoding: 224 224 218
Width: 511
Flags: W
LayerCount: 2
Fore
SplineSet
393 484 m 0
 420 453 434 402 434 330 c 2
 434 0 l 1
 414 0 l 1
 414 116 l 1
 412 116 l 1
 394 77 367 47 330 24 c 0
 293 1 252 -10 205 -10 c 0
 154 -10 112 4 81 31 c 0
 50 58 34 95 34 140 c 0
 34 199 62 245 116 277 c 0
 172 309 250 325 351 325 c 2
 414 325 l 1
 414 330 l 2
 414 375 409 410 398 436 c 0
 388 462 372 481 349 492 c 0
 326 504 295 510 256 510 c 0
 187 510 123 494 63 462 c 1
 54 480 l 1
 117 513 185 530 256 530 c 0
 320 530 366 515 393 484 c 0
312 36 m 0
 344 53 369 77 387 108 c 0
 405 138 414 172 414 210 c 2
 414 305 l 1
 351 305 l 2
 256 305 182 291 131 262 c 0
 80 234 54 193 54 140 c 0
 54 101 68 69 95 46 c 0
 122 22 159 10 205 10 c 0
 244 10 280 19 312 36 c 0
168 770 m 1
 191 770 l 1
 312 560 l 1
 289 560 l 1
 168 770 l 1
EndSplineSet
EndChar

StartChar: uni1EA3
Encoding: 7843 7843 219
Width: 511
Flags: W
LayerCount: 2
Fore
SplineSet
393 484 m 0
 420 453 434 402 434 330 c 2
 434 0 l 1
 414 0 l 1
 414 116 l 1
 412 116 l 1
 394 77 367 47 330 24 c 0
 293 1 252 -10 205 -10 c 0
 154 -10 112 4 81 31 c 0
 50 58 34 95 34 140 c 0
 34 199 62 245 116 277 c 0
 172 309 250 325 351 325 c 2
 414 325 l 1
 414 330 l 2
 414 375 409 410 398 436 c 0
 388 462 372 481 349 492 c 0
 326 504 295 510 256 510 c 0
 187 510 123 494 63 462 c 1
 54 480 l 1
 117 513 185 530 256 530 c 0
 320 530 366 515 393 484 c 0
312 36 m 0
 344 53 369 77 387 108 c 0
 405 138 414 172 414 210 c 2
 414 305 l 1
 351 305 l 2
 256 305 182 291 131 262 c 0
 80 234 54 193 54 140 c 0
 54 101 68 69 95 46 c 0
 122 22 159 10 205 10 c 0
 244 10 280 19 312 36 c 0
338 646 m 0
 342 664 344 680 344 693 c 0
 344 713 337 727 322 734 c 0
 308 741 281 745 240 745 c 0
 200 745 160 740 121 730 c 1
 116 749 l 1
 158 760 199 765 240 765 c 0
 286 765 318 760 336 749 c 0
 355 738 364 720 364 693 c 0
 364 680 362 666 360 649 c 0
 356 632 353 618 348 605 c 1
 326 605 l 1
 331 615 335 629 338 646 c 0
EndSplineSet
EndChar

StartChar: uni0203
Encoding: 515 515 220
Width: 511
Flags: W
LayerCount: 2
Fore
SplineSet
393 484 m 0
 420 453 434 402 434 330 c 2
 434 0 l 1
 414 0 l 1
 414 116 l 1
 412 116 l 1
 394 77 367 47 330 24 c 0
 293 1 252 -10 205 -10 c 0
 154 -10 112 4 81 31 c 0
 50 58 34 95 34 140 c 0
 34 199 62 245 116 277 c 0
 172 309 250 325 351 325 c 2
 414 325 l 1
 414 330 l 2
 414 375 409 410 398 436 c 0
 388 462 372 481 349 492 c 0
 326 504 295 510 256 510 c 0
 187 510 123 494 63 462 c 1
 54 480 l 1
 117 513 185 530 256 530 c 0
 320 530 366 515 393 484 c 0
312 36 m 0
 344 53 369 77 387 108 c 0
 405 138 414 172 414 210 c 2
 414 305 l 1
 351 305 l 2
 256 305 182 291 131 262 c 0
 80 234 54 193 54 140 c 0
 54 101 68 69 95 46 c 0
 122 22 159 10 205 10 c 0
 244 10 280 19 312 36 c 0
346 702 m 0
 376 680 393 651 399 615 c 1
 379 615 l 1
 373 645 357 669 332 688 c 0
 307 706 276 715 240 715 c 0
 204 715 173 706 148 688 c 0
 123 669 107 645 101 615 c 1
 81 615 l 1
 87 651 104 680 134 702 c 0
 162 724 198 735 240 735 c 0
 282 735 318 724 346 702 c 0
EndSplineSet
EndChar

StartChar: amacron
Encoding: 257 257 221
Width: 511
Flags: W
LayerCount: 2
Fore
SplineSet
393 484 m 0
 420 453 434 402 434 330 c 2
 434 0 l 1
 414 0 l 1
 414 116 l 1
 412 116 l 1
 394 77 367 47 330 24 c 0
 293 1 252 -10 205 -10 c 0
 154 -10 112 4 81 31 c 0
 50 58 34 95 34 140 c 0
 34 199 62 245 116 277 c 0
 172 309 250 325 351 325 c 2
 414 325 l 1
 414 330 l 2
 414 375 409 410 398 436 c 0
 388 462 372 481 349 492 c 0
 326 504 295 510 256 510 c 0
 187 510 123 494 63 462 c 1
 54 480 l 1
 117 513 185 530 256 530 c 0
 320 530 366 515 393 484 c 0
312 36 m 0
 344 53 369 77 387 108 c 0
 405 138 414 172 414 210 c 2
 414 305 l 1
 351 305 l 2
 256 305 182 291 131 262 c 0
 80 234 54 193 54 140 c 0
 54 101 68 69 95 46 c 0
 122 22 159 10 205 10 c 0
 244 10 280 19 312 36 c 0
73 675 m 1
 407 675 l 1
 407 655 l 1
 73 655 l 1
 73 675 l 1
EndSplineSet
EndChar

StartChar: aogonek
Encoding: 261 261 222
Width: 511
Flags: W
LayerCount: 2
Fore
SplineSet
521 -199 m 1
 491 -213 457 -220 420 -220 c 0
 371 -220 337 -211 319 -194 c 0
 301 -177 292 -157 292 -135 c 0
 292 -109 303 -84 324 -58 c 0
 345 -34 375 -10 414 11 c 1
 414 116 l 1
 412 116 l 1
 394 77 367 47 330 24 c 0
 293 1 252 -10 205 -10 c 0
 154 -10 112 4 81 31 c 0
 50 58 34 95 34 140 c 0
 34 199 62 245 116 277 c 0
 172 309 250 325 351 325 c 2
 414 325 l 1
 414 330 l 2
 414 375 409 410 398 436 c 0
 388 462 372 481 349 492 c 0
 326 504 295 510 256 510 c 0
 187 510 123 494 63 462 c 1
 54 480 l 1
 117 513 185 530 256 530 c 0
 320 530 366 515 393 484 c 0
 420 453 434 402 434 330 c 2
 434 0 l 1
 395 -21 364 -44 344 -66 c 0
 322 -90 312 -112 312 -135 c 0
 312 -160 322 -177 344 -186 c 0
 364 -195 390 -200 420 -200 c 0
 455 -200 486 -194 513 -181 c 1
 521 -199 l 1
312 36 m 0
 344 53 369 77 387 108 c 0
 405 138 414 172 414 210 c 2
 414 305 l 1
 351 305 l 2
 256 305 182 291 131 262 c 0
 80 234 54 193 54 140 c 0
 54 101 68 69 95 46 c 0
 122 22 159 10 205 10 c 0
 244 10 280 19 312 36 c 0
EndSplineSet
EndChar

StartChar: aring
Encoding: 229 229 223
Width: 511
Flags: W
LayerCount: 2
Fore
SplineSet
397 480 m 0
 422 448 434 399 434 330 c 2
 434 0 l 1
 414 0 l 1
 414 116 l 1
 412 116 l 1
 394 77 367 47 330 24 c 0
 293 1 252 -10 205 -10 c 0
 154 -10 112 4 81 31 c 0
 50 58 34 95 34 140 c 0
 34 199 62 245 116 277 c 0
 172 309 250 325 351 325 c 2
 414 325 l 1
 414 330 l 2
 414 375 409 410 398 436 c 0
 388 462 372 481 349 492 c 0
 326 504 295 510 256 510 c 0
 187 510 123 494 63 462 c 1
 54 480 l 1
 104 506 157 522 213 528 c 1
 185 534 162 548 143 571 c 0
 124 594 115 620 115 650 c 0
 115 685 127 714 152 738 c 0
 176 763 205 775 240 775 c 0
 275 775 304 763 328 738 c 0
 353 714 365 685 365 650 c 0
 365 621 356 596 340 574 c 0
 322 552 301 537 274 530 c 1
 331 527 372 510 397 480 c 0
166 576 m 0
 187 555 211 545 240 545 c 0
 269 545 294 555 314 576 c 0
 335 597 345 621 345 650 c 0
 345 679 335 704 314 724 c 0
 294 745 269 755 240 755 c 0
 211 755 187 745 166 724 c 0
 145 704 135 679 135 650 c 0
 135 621 145 597 166 576 c 0
312 36 m 0
 344 53 369 77 387 108 c 0
 405 138 414 172 414 210 c 2
 414 305 l 1
 351 305 l 2
 256 305 182 291 131 262 c 0
 80 234 54 193 54 140 c 0
 54 101 68 69 95 46 c 0
 122 22 159 10 205 10 c 0
 244 10 280 19 312 36 c 0
EndSplineSet
EndChar

StartChar: aringacute
Encoding: 507 507 224
Width: 511
Flags: W
LayerCount: 2
Fore
SplineSet
397 480 m 0
 422 448 434 399 434 330 c 2
 434 0 l 1
 414 0 l 1
 414 116 l 1
 412 116 l 1
 394 77 367 47 330 24 c 0
 293 1 252 -10 205 -10 c 0
 154 -10 112 4 81 31 c 0
 50 58 34 95 34 140 c 0
 34 199 62 245 116 277 c 0
 172 309 250 325 351 325 c 2
 414 325 l 1
 414 330 l 2
 414 375 409 410 398 436 c 0
 388 462 372 481 349 492 c 0
 326 504 295 510 256 510 c 0
 187 510 123 494 63 462 c 1
 54 480 l 1
 104 506 157 522 213 528 c 1
 185 534 162 548 143 571 c 0
 124 594 115 620 115 650 c 0
 115 671 120 691 130 709 c 0
 140 727 153 742 170 754 c 1
 289 960 l 1
 312 960 l 1
 202 769 l 1
 214 773 227 775 240 775 c 0
 275 775 304 763 328 738 c 0
 353 714 365 685 365 650 c 0
 365 621 356 596 340 574 c 0
 322 552 301 537 274 530 c 1
 331 527 372 510 397 480 c 0
166 576 m 0
 187 555 211 545 240 545 c 0
 269 545 294 555 314 576 c 0
 335 597 345 621 345 650 c 0
 345 679 335 704 314 724 c 0
 294 745 269 755 240 755 c 0
 211 755 187 745 166 724 c 0
 145 704 135 679 135 650 c 0
 135 621 145 597 166 576 c 0
312 36 m 0
 344 53 369 77 387 108 c 0
 405 138 414 172 414 210 c 2
 414 305 l 1
 351 305 l 2
 256 305 182 291 131 262 c 0
 80 234 54 193 54 140 c 0
 54 101 68 69 95 46 c 0
 122 22 159 10 205 10 c 0
 244 10 280 19 312 36 c 0
EndSplineSet
EndChar

StartChar: atilde
Encoding: 227 227 225
Width: 511
Flags: W
LayerCount: 2
Fore
SplineSet
393 484 m 0
 420 453 434 402 434 330 c 2
 434 0 l 1
 414 0 l 1
 414 116 l 1
 412 116 l 1
 394 77 367 47 330 24 c 0
 293 1 252 -10 205 -10 c 0
 154 -10 112 4 81 31 c 0
 50 58 34 95 34 140 c 0
 34 199 62 245 116 277 c 0
 172 309 250 325 351 325 c 2
 414 325 l 1
 414 330 l 2
 414 375 409 410 398 436 c 0
 388 462 372 481 349 492 c 0
 326 504 295 510 256 510 c 0
 187 510 123 494 63 462 c 1
 54 480 l 1
 117 513 185 530 256 530 c 0
 320 530 366 515 393 484 c 0
312 36 m 0
 344 53 369 77 387 108 c 0
 405 138 414 172 414 210 c 2
 414 305 l 1
 351 305 l 2
 256 305 182 291 131 262 c 0
 80 234 54 193 54 140 c 0
 54 101 68 69 95 46 c 0
 122 22 159 10 205 10 c 0
 244 10 280 19 312 36 c 0
234 657 m 0
 191 689 160 705 139 705 c 0
 114 705 101 675 101 615 c 1
 81 615 l 1
 81 652 86 679 95 698 c 0
 104 716 119 725 139 725 c 0
 164 725 200 708 246 673 c 0
 289 641 321 625 341 625 c 0
 366 625 379 655 379 715 c 1
 399 715 l 1
 399 642 380 605 341 605 c 0
 317 605 281 622 234 657 c 0
EndSplineSet
EndChar

StartChar: ae
Encoding: 230 230 226
Width: 895
Flags: W
LayerCount: 2
Fore
SplineSet
854 258 m 1
 434 258 l 1
 435 178 454 117 492 74 c 0
 530 31 584 10 654 10 c 0
 684 10 714 14 743 22 c 0
 772 29 799 40 824 53 c 1
 834 36 l 1
 809 21 780 10 749 2 c 0
 718 -6 686 -10 654 -10 c 0
 595 -10 547 4 508 32 c 0
 469 60 442 101 427 154 c 1
 415 105 389 66 348 36 c 0
 308 5 260 -10 205 -10 c 0
 154 -10 112 4 81 31 c 0
 50 58 34 95 34 140 c 0
 34 199 62 245 116 277 c 0
 172 309 250 325 351 325 c 2
 414 325 l 1
 414 330 l 2
 414 375 409 410 398 436 c 0
 388 462 372 481 349 492 c 0
 326 504 295 510 256 510 c 0
 187 510 123 494 63 462 c 1
 54 480 l 1
 117 513 185 530 256 530 c 0
 312 530 354 518 381 496 c 0
 408 472 425 435 431 383 c 1
 446 431 471 468 506 492 c 0
 541 518 583 530 634 530 c 0
 704 530 758 506 796 460 c 0
 835 412 854 346 854 260 c 2
 854 258 l 1
490 450 m 0
 455 411 437 353 434 278 c 1
 834 278 l 1
 831 353 813 411 778 450 c 0
 743 490 695 510 634 510 c 0
 573 510 525 490 490 450 c 0
414 305 m 1
 351 305 l 2
 256 305 182 291 131 262 c 0
 80 234 54 193 54 140 c 0
 54 101 68 69 95 46 c 0
 122 22 159 10 205 10 c 0
 244 10 280 19 312 36 c 0
 344 53 369 77 387 108 c 0
 405 138 414 172 414 210 c 2
 414 305 l 1
EndSplineSet
EndChar

StartChar: aeacute
Encoding: 509 509 227
Width: 895
Flags: W
LayerCount: 2
Fore
SplineSet
854 258 m 1
 434 258 l 1
 435 178 454 117 492 74 c 0
 530 31 584 10 654 10 c 0
 684 10 714 14 743 22 c 0
 772 29 799 40 824 53 c 1
 834 36 l 1
 809 21 780 10 749 2 c 0
 718 -6 686 -10 654 -10 c 0
 595 -10 547 4 508 32 c 0
 469 60 442 101 427 154 c 1
 415 105 389 66 348 36 c 0
 308 5 260 -10 205 -10 c 0
 154 -10 112 4 81 31 c 0
 50 58 34 95 34 140 c 0
 34 199 62 245 116 277 c 0
 172 309 250 325 351 325 c 2
 414 325 l 1
 414 330 l 2
 414 375 409 410 398 436 c 0
 388 462 372 481 349 492 c 0
 326 504 295 510 256 510 c 0
 187 510 123 494 63 462 c 1
 54 480 l 1
 117 513 185 530 256 530 c 0
 312 530 354 518 381 496 c 0
 408 472 425 435 431 383 c 1
 446 431 471 468 506 492 c 0
 541 518 583 530 634 530 c 0
 704 530 758 506 796 460 c 0
 835 412 854 346 854 260 c 2
 854 258 l 1
490 450 m 0
 455 411 437 353 434 278 c 1
 834 278 l 1
 831 353 813 411 778 450 c 0
 743 490 695 510 634 510 c 0
 573 510 525 490 490 450 c 0
414 305 m 1
 351 305 l 2
 256 305 182 291 131 262 c 0
 80 234 54 193 54 140 c 0
 54 101 68 69 95 46 c 0
 122 22 159 10 205 10 c 0
 244 10 280 19 312 36 c 0
 344 53 369 77 387 108 c 0
 405 138 414 172 414 210 c 2
 414 305 l 1
399 560 m 1
 376 560 l 1
 497 770 l 1
 520 770 l 1
 399 560 l 1
EndSplineSet
EndChar

StartChar: b
Encoding: 98 98 228
Width: 552
Flags: W
LayerCount: 2
Fore
SplineSet
449 458 m 0
 486 410 505 344 505 260 c 0
 505 176 486 110 449 62 c 0
 412 14 360 -10 295 -10 c 0
 251 -10 213 2 180 24 c 0
 147 48 123 79 107 120 c 1
 105 120 l 1
 105 0 l 1
 85 0 l 1
 85 750 l 1
 105 750 l 1
 105 400 l 1
 107 400 l 1
 123 441 147 472 180 496 c 0
 213 518 251 530 295 530 c 0
 360 530 412 506 449 458 c 0
434 76 m 0
 468 121 485 182 485 260 c 0
 485 338 468 399 434 444 c 0
 401 488 354 510 295 510 c 0
 238 510 192 490 157 449 c 0
 122 408 105 354 105 285 c 2
 105 235 l 2
 105 166 122 112 157 71 c 0
 192 30 238 10 295 10 c 0
 354 10 401 32 434 76 c 0
EndSplineSet
EndChar

StartChar: c
Encoding: 99 99 229
Width: 510
Flags: W
LayerCount: 2
Fore
SplineSet
160 23 m 0
 123 45 94 76 74 117 c 0
 53 158 43 205 43 260 c 0
 43 315 53 362 74 403 c 0
 94 444 123 475 160 497 c 0
 198 519 242 530 293 530 c 0
 342 530 388 518 433 495 c 1
 424 477 l 1
 382 499 338 510 293 510 c 0
 222 510 166 488 124 443 c 0
 84 398 63 337 63 260 c 0
 63 183 84 122 124 77 c 0
 166 32 222 10 293 10 c 0
 338 10 382 21 424 43 c 1
 433 25 l 1
 388 2 342 -10 293 -10 c 0
 242 -10 198 1 160 23 c 0
EndSplineSet
EndChar

StartChar: cacute
Encoding: 263 263 230
Width: 510
Flags: W
LayerCount: 2
Fore
SplineSet
160 23 m 0
 123 45 94 76 74 117 c 0
 53 158 43 205 43 260 c 0
 43 315 53 362 74 403 c 0
 94 444 123 475 160 497 c 0
 198 519 242 530 293 530 c 0
 342 530 388 518 433 495 c 1
 424 477 l 1
 382 499 338 510 293 510 c 0
 222 510 166 488 124 443 c 0
 84 398 63 337 63 260 c 0
 63 183 84 122 124 77 c 0
 166 32 222 10 293 10 c 0
 338 10 382 21 424 43 c 1
 433 25 l 1
 388 2 342 -10 293 -10 c 0
 242 -10 198 1 160 23 c 0
216 560 m 1
 193 560 l 1
 314 770 l 1
 337 770 l 1
 216 560 l 1
EndSplineSet
EndChar

StartChar: ccaron
Encoding: 269 269 231
Width: 510
Flags: W
LayerCount: 2
Fore
SplineSet
160 23 m 0
 123 45 94 76 74 117 c 0
 53 158 43 205 43 260 c 0
 43 315 53 362 74 403 c 0
 94 444 123 475 160 497 c 0
 198 519 242 530 293 530 c 0
 342 530 388 518 433 495 c 1
 424 477 l 1
 382 499 338 510 293 510 c 0
 222 510 166 488 124 443 c 0
 84 398 63 337 63 260 c 0
 63 183 84 122 124 77 c 0
 166 32 222 10 293 10 c 0
 338 10 382 21 424 43 c 1
 433 25 l 1
 388 2 342 -10 293 -10 c 0
 242 -10 198 1 160 23 c 0
93 770 m 1
 118 770 l 1
 264 575 l 1
 266 575 l 1
 412 770 l 1
 437 770 l 1
 280 560 l 1
 250 560 l 1
 93 770 l 1
EndSplineSet
EndChar

StartChar: ccedilla
Encoding: 231 231 232
Width: 510
Flags: W
LayerCount: 2
Fore
SplineSet
433 25 m 1
 389 2 343 -10 295 -10 c 1
 354 -50 384 -92 384 -136 c 0
 384 -158 375 -178 357 -195 c 0
 339 -212 305 -221 256 -221 c 0
 219 -221 185 -214 155 -200 c 1
 163 -182 l 1
 190 -195 221 -201 256 -201 c 0
 286 -201 312 -196 332 -187 c 0
 354 -178 364 -161 364 -136 c 0
 364 -93 327 -51 254 -8 c 1
 188 1 136 29 99 76 c 0
 62 123 43 185 43 260 c 0
 43 315 53 362 74 403 c 0
 94 444 123 475 160 497 c 0
 198 519 242 530 293 530 c 0
 342 530 388 518 433 495 c 1
 424 477 l 1
 382 499 338 510 293 510 c 0
 222 510 166 488 124 443 c 0
 84 398 63 337 63 260 c 0
 63 183 84 122 124 77 c 0
 166 32 222 10 293 10 c 0
 338 10 382 21 424 43 c 1
 433 25 l 1
EndSplineSet
EndChar

StartChar: ccircumflex
Encoding: 265 265 233
Width: 510
Flags: W
LayerCount: 2
Fore
SplineSet
160 23 m 0
 123 45 94 76 74 117 c 0
 53 158 43 205 43 260 c 0
 43 315 53 362 74 403 c 0
 94 444 123 475 160 497 c 0
 198 519 242 530 293 530 c 0
 342 530 388 518 433 495 c 1
 424 477 l 1
 382 499 338 510 293 510 c 0
 222 510 166 488 124 443 c 0
 84 398 63 337 63 260 c 0
 63 183 84 122 124 77 c 0
 166 32 222 10 293 10 c 0
 338 10 382 21 424 43 c 1
 433 25 l 1
 388 2 342 -10 293 -10 c 0
 242 -10 198 1 160 23 c 0
250 770 m 1
 280 770 l 1
 437 560 l 1
 412 560 l 1
 266 755 l 1
 264 755 l 1
 118 560 l 1
 93 560 l 1
 250 770 l 1
EndSplineSet
EndChar

StartChar: cdotaccent
Encoding: 267 267 234
Width: 510
Flags: W
LayerCount: 2
Fore
SplineSet
160 23 m 0
 123 45 94 76 74 117 c 0
 53 158 43 205 43 260 c 0
 43 315 53 362 74 403 c 0
 94 444 123 475 160 497 c 0
 198 519 242 530 293 530 c 0
 342 530 388 518 433 495 c 1
 424 477 l 1
 382 499 338 510 293 510 c 0
 222 510 166 488 124 443 c 0
 84 398 63 337 63 260 c 0
 63 183 84 122 124 77 c 0
 166 32 222 10 293 10 c 0
 338 10 382 21 424 43 c 1
 433 25 l 1
 388 2 342 -10 293 -10 c 0
 242 -10 198 1 160 23 c 0
235 695 m 1
 295 695 l 1
 295 635 l 1
 235 635 l 1
 235 695 l 1
EndSplineSet
EndChar

StartChar: d
Encoding: 100 100 235
Width: 552
Flags: W
LayerCount: 2
Fore
SplineSet
467 750 m 1
 467 0 l 1
 447 0 l 1
 447 120 l 1
 445 120 l 1
 429 79 405 48 372 24 c 0
 339 2 301 -10 257 -10 c 0
 192 -10 140 14 103 62 c 0
 66 110 47 176 47 260 c 0
 47 344 66 410 103 458 c 0
 140 506 192 530 257 530 c 0
 301 530 339 518 372 496 c 0
 405 472 429 441 445 400 c 1
 447 400 l 1
 447 750 l 1
 467 750 l 1
395 71 m 0
 430 112 447 166 447 235 c 2
 447 285 l 2
 447 354 430 408 395 449 c 0
 360 490 314 510 257 510 c 0
 198 510 151 488 118 444 c 0
 84 399 67 338 67 260 c 0
 67 182 84 121 118 76 c 0
 151 32 198 10 257 10 c 0
 314 10 360 30 395 71 c 0
EndSplineSet
EndChar

StartChar: eth
Encoding: 240 240 236
Width: 570
Flags: W
LayerCount: 2
Fore
SplineSet
366 626 m 1
 410 567 446 502 472 432 c 0
 500 361 513 296 513 235 c 0
 513 160 492 100 450 56 c 0
 408 12 351 -10 278 -10 c 0
 205 -10 148 12 106 56 c 0
 64 100 43 160 43 235 c 0
 43 310 64 370 106 414 c 0
 148 458 205 480 278 480 c 0
 318 480 354 473 384 459 c 0
 416 445 441 425 462 398 c 1
 464 399 l 1
 437 477 398 550 347 619 c 1
 104 522 l 1
 96 540 l 1
 335 635 l 1
 276 708 219 754 163 772 c 1
 170 790 l 1
 201 780 232 762 263 736 c 0
 294 710 324 679 353 642 c 1
 536 715 l 1
 544 697 l 1
 366 626 l 1
436 70 m 0
 474 110 493 165 493 235 c 0
 493 305 474 360 436 400 c 0
 397 440 345 460 278 460 c 0
 211 460 159 440 120 400 c 0
 82 360 63 305 63 235 c 0
 63 165 82 110 120 70 c 0
 159 30 211 10 278 10 c 0
 345 10 397 30 436 70 c 0
EndSplineSet
EndChar

StartChar: dcaron
Encoding: 271 271 237
Width: 717
Flags: W
LayerCount: 2
Fore
SplineSet
467 750 m 1
 467 0 l 1
 447 0 l 1
 447 120 l 1
 445 120 l 1
 429 79 405 48 372 24 c 0
 339 2 301 -10 257 -10 c 0
 192 -10 140 14 103 62 c 0
 66 110 47 176 47 260 c 0
 47 344 66 410 103 458 c 0
 140 506 192 530 257 530 c 0
 301 530 339 518 372 496 c 0
 405 472 429 441 445 400 c 1
 447 400 l 1
 447 750 l 1
 467 750 l 1
395 71 m 0
 430 112 447 166 447 235 c 2
 447 285 l 2
 447 354 430 408 395 449 c 0
 360 490 314 510 257 510 c 0
 198 510 151 488 118 444 c 0
 84 399 67 338 67 260 c 0
 67 182 84 121 118 76 c 0
 151 32 198 10 257 10 c 0
 314 10 360 30 395 71 c 0
627 770 m 1
 649 770 l 1
 540 470 l 1
 518 470 l 1
 627 770 l 1
EndSplineSet
EndChar

StartChar: dcroat
Encoding: 273 273 238
Width: 617
Flags: W
LayerCount: 2
Fore
SplineSet
587 615 m 1
 467 615 l 1
 467 0 l 1
 447 0 l 1
 447 120 l 1
 445 120 l 1
 429 79 405 48 372 24 c 0
 339 2 301 -10 257 -10 c 0
 192 -10 140 14 103 62 c 0
 66 110 47 176 47 260 c 0
 47 344 66 410 103 458 c 0
 140 506 192 530 257 530 c 0
 301 530 339 518 372 496 c 0
 405 472 429 441 445 400 c 1
 447 400 l 1
 447 615 l 1
 167 615 l 1
 167 635 l 1
 447 635 l 1
 447 750 l 1
 467 750 l 1
 467 635 l 1
 587 635 l 1
 587 615 l 1
395 71 m 0
 430 112 447 166 447 235 c 2
 447 285 l 2
 447 354 430 408 395 449 c 0
 360 490 314 510 257 510 c 0
 198 510 151 488 118 444 c 0
 84 399 67 338 67 260 c 0
 67 182 84 121 118 76 c 0
 151 32 198 10 257 10 c 0
 314 10 360 30 395 71 c 0
EndSplineSet
EndChar

StartChar: uni01C6
Encoding: 454 454 239
Width: 1024
Flags: W
LayerCount: 2
Fore
SplineSet
467 750 m 1
 467 0 l 1
 447 0 l 1
 447 120 l 1
 445 120 l 1
 429 79 405 48 372 24 c 0
 339 2 301 -10 257 -10 c 0
 192 -10 140 14 103 62 c 0
 66 110 47 176 47 260 c 0
 47 344 66 410 103 458 c 0
 140 506 192 530 257 530 c 0
 301 530 339 518 372 496 c 0
 405 472 429 441 445 400 c 1
 447 400 l 1
 447 750 l 1
 467 750 l 1
395 71 m 0
 430 112 447 166 447 235 c 2
 447 285 l 2
 447 354 430 408 395 449 c 0
 360 490 314 510 257 510 c 0
 198 510 151 488 118 444 c 0
 84 399 67 338 67 260 c 0
 67 182 84 121 118 76 c 0
 151 32 198 10 257 10 c 0
 314 10 360 30 395 71 c 0
603 20 m 1
 947 498 l 1
 947 500 l 1
 603 500 l 1
 603 520 l 1
 973 520 l 1
 973 500 l 1
 629 22 l 1
 629 20 l 1
 973 20 l 1
 973 0 l 1
 603 0 l 1
 603 20 l 1
616 770 m 1
 641 770 l 1
 787 575 l 1
 789 575 l 1
 935 770 l 1
 960 770 l 1
 803 560 l 1
 773 560 l 1
 616 770 l 1
EndSplineSet
EndChar

StartChar: e
Encoding: 101 101 240
Width: 524
Flags: W
LayerCount: 2
Fore
SplineSet
483 258 m 1
 63 258 l 1
 64 177 83 116 122 74 c 0
 161 31 216 10 288 10 c 0
 347 10 402 23 454 48 c 1
 463 30 l 1
 408 3 349 -10 288 -10 c 0
 209 -10 149 13 106 60 c 0
 64 107 43 173 43 260 c 0
 43 346 62 412 100 460 c 0
 139 506 193 530 263 530 c 0
 333 530 387 506 426 460 c 0
 464 412 483 346 483 260 c 2
 483 258 l 1
119 450 m 0
 84 411 66 353 63 278 c 1
 463 278 l 1
 460 353 442 411 407 450 c 0
 372 490 324 510 263 510 c 0
 202 510 154 490 119 450 c 0
EndSplineSet
EndChar

StartChar: eacute
Encoding: 233 233 241
Width: 524
Flags: W
LayerCount: 2
Fore
SplineSet
483 258 m 1
 63 258 l 1
 64 177 83 116 122 74 c 0
 161 31 216 10 288 10 c 0
 347 10 402 23 454 48 c 1
 463 30 l 1
 408 3 349 -10 288 -10 c 0
 209 -10 149 13 106 60 c 0
 64 107 43 173 43 260 c 0
 43 346 62 412 100 460 c 0
 139 506 193 530 263 530 c 0
 333 530 387 506 426 460 c 0
 464 412 483 346 483 260 c 2
 483 258 l 1
119 450 m 0
 84 411 66 353 63 278 c 1
 463 278 l 1
 460 353 442 411 407 450 c 0
 372 490 324 510 263 510 c 0
 202 510 154 490 119 450 c 0
215 560 m 1
 192 560 l 1
 313 770 l 1
 336 770 l 1
 215 560 l 1
EndSplineSet
EndChar

StartChar: ebreve
Encoding: 277 277 242
Width: 524
Flags: W
LayerCount: 2
Fore
SplineSet
483 258 m 1
 63 258 l 1
 64 177 83 116 122 74 c 0
 161 31 216 10 288 10 c 0
 347 10 402 23 454 48 c 1
 463 30 l 1
 408 3 349 -10 288 -10 c 0
 209 -10 149 13 106 60 c 0
 64 107 43 173 43 260 c 0
 43 346 62 412 100 460 c 0
 139 506 193 530 263 530 c 0
 333 530 387 506 426 460 c 0
 464 412 483 346 483 260 c 2
 483 258 l 1
119 450 m 0
 84 411 66 353 63 278 c 1
 463 278 l 1
 460 353 442 411 407 450 c 0
 372 490 324 510 263 510 c 0
 202 510 154 490 119 450 c 0
158 628 m 0
 128 650 111 679 105 715 c 1
 125 715 l 1
 131 685 147 661 172 642 c 0
 197 624 228 615 264 615 c 0
 300 615 331 624 356 642 c 0
 381 661 397 685 403 715 c 1
 423 715 l 1
 417 679 400 650 370 628 c 0
 342 606 306 595 264 595 c 0
 222 595 186 606 158 628 c 0
EndSplineSet
EndChar

StartChar: ecaron
Encoding: 283 283 243
Width: 524
Flags: W
LayerCount: 2
Fore
SplineSet
483 258 m 1
 63 258 l 1
 64 177 83 116 122 74 c 0
 161 31 216 10 288 10 c 0
 347 10 402 23 454 48 c 1
 463 30 l 1
 408 3 349 -10 288 -10 c 0
 209 -10 149 13 106 60 c 0
 64 107 43 173 43 260 c 0
 43 346 62 412 100 460 c 0
 139 506 193 530 263 530 c 0
 333 530 387 506 426 460 c 0
 464 412 483 346 483 260 c 2
 483 258 l 1
119 450 m 0
 84 411 66 353 63 278 c 1
 463 278 l 1
 460 353 442 411 407 450 c 0
 372 490 324 510 263 510 c 0
 202 510 154 490 119 450 c 0
92 770 m 1
 117 770 l 1
 263 575 l 1
 265 575 l 1
 411 770 l 1
 436 770 l 1
 279 560 l 1
 249 560 l 1
 92 770 l 1
EndSplineSet
EndChar

StartChar: ecircumflex
Encoding: 234 234 244
Width: 524
Flags: W
LayerCount: 2
Fore
SplineSet
483 258 m 1
 63 258 l 1
 64 177 83 116 122 74 c 0
 161 31 216 10 288 10 c 0
 347 10 402 23 454 48 c 1
 463 30 l 1
 408 3 349 -10 288 -10 c 0
 209 -10 149 13 106 60 c 0
 64 107 43 173 43 260 c 0
 43 346 62 412 100 460 c 0
 139 506 193 530 263 530 c 0
 333 530 387 506 426 460 c 0
 464 412 483 346 483 260 c 2
 483 258 l 1
119 450 m 0
 84 411 66 353 63 278 c 1
 463 278 l 1
 460 353 442 411 407 450 c 0
 372 490 324 510 263 510 c 0
 202 510 154 490 119 450 c 0
249 770 m 1
 279 770 l 1
 436 560 l 1
 411 560 l 1
 265 755 l 1
 263 755 l 1
 117 560 l 1
 92 560 l 1
 249 770 l 1
EndSplineSet
EndChar

StartChar: uni1EBF
Encoding: 7871 7871 245
Width: 524
Flags: W
LayerCount: 2
Fore
SplineSet
483 258 m 1
 63 258 l 1
 64 177 83 116 122 74 c 0
 161 31 216 10 288 10 c 0
 347 10 402 23 454 48 c 1
 463 30 l 1
 408 3 349 -10 288 -10 c 0
 209 -10 149 13 106 60 c 0
 64 107 43 173 43 260 c 0
 43 346 62 412 100 460 c 0
 139 506 193 530 263 530 c 0
 333 530 387 506 426 460 c 0
 464 412 483 346 483 260 c 2
 483 258 l 1
119 450 m 0
 84 411 66 353 63 278 c 1
 463 278 l 1
 460 353 442 411 407 450 c 0
 372 490 324 510 263 510 c 0
 202 510 154 490 119 450 c 0
249 770 m 1
 279 770 l 1
 436 560 l 1
 411 560 l 1
 265 755 l 1
 263 755 l 1
 117 560 l 1
 92 560 l 1
 249 770 l 1
359 740 m 1
 336 740 l 1
 457 950 l 1
 480 950 l 1
 359 740 l 1
EndSplineSet
EndChar

StartChar: uni1EC7
Encoding: 7879 7879 246
Width: 524
Flags: W
LayerCount: 2
Fore
SplineSet
483 258 m 1
 63 258 l 1
 64 177 83 116 122 74 c 0
 161 31 216 10 288 10 c 0
 347 10 402 23 454 48 c 1
 463 30 l 1
 408 3 349 -10 288 -10 c 0
 209 -10 149 13 106 60 c 0
 64 107 43 173 43 260 c 0
 43 346 62 412 100 460 c 0
 139 506 193 530 263 530 c 0
 333 530 387 506 426 460 c 0
 464 412 483 346 483 260 c 2
 483 258 l 1
119 450 m 0
 84 411 66 353 63 278 c 1
 463 278 l 1
 460 353 442 411 407 450 c 0
 372 490 324 510 263 510 c 0
 202 510 154 490 119 450 c 0
234 -115 m 1
 294 -115 l 1
 294 -175 l 1
 234 -175 l 1
 234 -115 l 1
249 770 m 1
 279 770 l 1
 436 560 l 1
 411 560 l 1
 265 755 l 1
 263 755 l 1
 117 560 l 1
 92 560 l 1
 249 770 l 1
EndSplineSet
EndChar

StartChar: uni1EC1
Encoding: 7873 7873 247
Width: 524
Flags: W
LayerCount: 2
Fore
SplineSet
483 258 m 1
 63 258 l 1
 64 177 83 116 122 74 c 0
 161 31 216 10 288 10 c 0
 347 10 402 23 454 48 c 1
 463 30 l 1
 408 3 349 -10 288 -10 c 0
 209 -10 149 13 106 60 c 0
 64 107 43 173 43 260 c 0
 43 346 62 412 100 460 c 0
 139 506 193 530 263 530 c 0
 333 530 387 506 426 460 c 0
 464 412 483 346 483 260 c 2
 483 258 l 1
119 450 m 0
 84 411 66 353 63 278 c 1
 463 278 l 1
 460 353 442 411 407 450 c 0
 372 490 324 510 263 510 c 0
 202 510 154 490 119 450 c 0
249 770 m 1
 279 770 l 1
 436 560 l 1
 411 560 l 1
 265 755 l 1
 263 755 l 1
 117 560 l 1
 92 560 l 1
 249 770 l 1
48 950 m 1
 71 950 l 1
 192 740 l 1
 169 740 l 1
 48 950 l 1
EndSplineSet
EndChar

StartChar: uni1EC3
Encoding: 7875 7875 248
Width: 524
Flags: W
LayerCount: 2
Fore
SplineSet
483 258 m 1
 63 258 l 1
 64 177 83 116 122 74 c 0
 161 31 216 10 288 10 c 0
 347 10 402 23 454 48 c 1
 463 30 l 1
 408 3 349 -10 288 -10 c 0
 209 -10 149 13 106 60 c 0
 64 107 43 173 43 260 c 0
 43 346 62 412 100 460 c 0
 139 506 193 530 263 530 c 0
 333 530 387 506 426 460 c 0
 464 412 483 346 483 260 c 2
 483 258 l 1
119 450 m 0
 84 411 66 353 63 278 c 1
 463 278 l 1
 460 353 442 411 407 450 c 0
 372 490 324 510 263 510 c 0
 202 510 154 490 119 450 c 0
249 770 m 1
 279 770 l 1
 436 560 l 1
 411 560 l 1
 265 755 l 1
 263 755 l 1
 117 560 l 1
 92 560 l 1
 249 770 l 1
396 776 m 0
 400 794 402 810 402 823 c 0
 402 843 395 857 380 864 c 0
 366 871 339 875 298 875 c 0
 258 875 218 870 179 860 c 1
 174 879 l 1
 216 890 257 895 298 895 c 0
 344 895 376 890 394 879 c 0
 413 868 422 850 422 823 c 0
 422 810 420 796 418 779 c 0
 414 762 411 748 406 735 c 1
 384 735 l 1
 389 745 393 759 396 776 c 0
EndSplineSet
EndChar

StartChar: uni1EC5
Encoding: 7877 7877 249
Width: 524
Flags: W
LayerCount: 2
Fore
SplineSet
483 258 m 1
 63 258 l 1
 64 177 83 116 122 74 c 0
 161 31 216 10 288 10 c 0
 347 10 402 23 454 48 c 1
 463 30 l 1
 408 3 349 -10 288 -10 c 0
 209 -10 149 13 106 60 c 0
 64 107 43 173 43 260 c 0
 43 346 62 412 100 460 c 0
 139 506 193 530 263 530 c 0
 333 530 387 506 426 460 c 0
 464 412 483 346 483 260 c 2
 483 258 l 1
119 450 m 0
 84 411 66 353 63 278 c 1
 463 278 l 1
 460 353 442 411 407 450 c 0
 372 490 324 510 263 510 c 0
 202 510 154 490 119 450 c 0
249 770 m 1
 279 770 l 1
 436 560 l 1
 411 560 l 1
 265 755 l 1
 263 755 l 1
 117 560 l 1
 92 560 l 1
 249 770 l 1
258 827 m 0
 215 859 184 875 163 875 c 0
 138 875 125 845 125 785 c 1
 105 785 l 1
 105 822 110 849 119 868 c 0
 128 886 143 895 163 895 c 0
 188 895 224 878 270 843 c 0
 313 811 345 795 365 795 c 0
 390 795 403 825 403 885 c 1
 423 885 l 1
 423 812 404 775 365 775 c 0
 341 775 305 792 258 827 c 0
EndSplineSet
EndChar

StartChar: uni0205
Encoding: 517 517 250
Width: 524
Flags: W
LayerCount: 2
Fore
SplineSet
483 258 m 1
 63 258 l 1
 64 177 83 116 122 74 c 0
 161 31 216 10 288 10 c 0
 347 10 402 23 454 48 c 1
 463 30 l 1
 408 3 349 -10 288 -10 c 0
 209 -10 149 13 106 60 c 0
 64 107 43 173 43 260 c 0
 43 346 62 412 100 460 c 0
 139 506 193 530 263 530 c 0
 333 530 387 506 426 460 c 0
 464 412 483 346 483 260 c 2
 483 258 l 1
119 450 m 0
 84 411 66 353 63 278 c 1
 463 278 l 1
 460 353 442 411 407 450 c 0
 372 490 324 510 263 510 c 0
 202 510 154 490 119 450 c 0
93 770 m 1
 116 770 l 1
 237 560 l 1
 214 560 l 1
 93 770 l 1
273 770 m 1
 296 770 l 1
 417 560 l 1
 394 560 l 1
 273 770 l 1
EndSplineSet
EndChar

StartChar: edieresis
Encoding: 235 235 251
Width: 524
Flags: W
LayerCount: 2
Fore
SplineSet
483 258 m 1
 63 258 l 1
 64 177 83 116 122 74 c 0
 161 31 216 10 288 10 c 0
 347 10 402 23 454 48 c 1
 463 30 l 1
 408 3 349 -10 288 -10 c 0
 209 -10 149 13 106 60 c 0
 64 107 43 173 43 260 c 0
 43 346 62 412 100 460 c 0
 139 506 193 530 263 530 c 0
 333 530 387 506 426 460 c 0
 464 412 483 346 483 260 c 2
 483 258 l 1
119 450 m 0
 84 411 66 353 63 278 c 1
 463 278 l 1
 460 353 442 411 407 450 c 0
 372 490 324 510 263 510 c 0
 202 510 154 490 119 450 c 0
114 695 m 1
 174 695 l 1
 174 635 l 1
 114 635 l 1
 114 695 l 1
354 695 m 1
 414 695 l 1
 414 635 l 1
 354 635 l 1
 354 695 l 1
EndSplineSet
EndChar

StartChar: edotaccent
Encoding: 279 279 252
Width: 524
Flags: W
LayerCount: 2
Fore
SplineSet
483 258 m 1
 63 258 l 1
 64 177 83 116 122 74 c 0
 161 31 216 10 288 10 c 0
 347 10 402 23 454 48 c 1
 463 30 l 1
 408 3 349 -10 288 -10 c 0
 209 -10 149 13 106 60 c 0
 64 107 43 173 43 260 c 0
 43 346 62 412 100 460 c 0
 139 506 193 530 263 530 c 0
 333 530 387 506 426 460 c 0
 464 412 483 346 483 260 c 2
 483 258 l 1
119 450 m 0
 84 411 66 353 63 278 c 1
 463 278 l 1
 460 353 442 411 407 450 c 0
 372 490 324 510 263 510 c 0
 202 510 154 490 119 450 c 0
234 695 m 1
 294 695 l 1
 294 635 l 1
 234 635 l 1
 234 695 l 1
EndSplineSet
EndChar

StartChar: uni1EB9
Encoding: 7865 7865 253
Width: 524
Flags: W
LayerCount: 2
Fore
SplineSet
483 258 m 1
 63 258 l 1
 64 177 83 116 122 74 c 0
 161 31 216 10 288 10 c 0
 347 10 402 23 454 48 c 1
 463 30 l 1
 408 3 349 -10 288 -10 c 0
 209 -10 149 13 106 60 c 0
 64 107 43 173 43 260 c 0
 43 346 62 412 100 460 c 0
 139 506 193 530 263 530 c 0
 333 530 387 506 426 460 c 0
 464 412 483 346 483 260 c 2
 483 258 l 1
119 450 m 0
 84 411 66 353 63 278 c 1
 463 278 l 1
 460 353 442 411 407 450 c 0
 372 490 324 510 263 510 c 0
 202 510 154 490 119 450 c 0
234 -115 m 1
 294 -115 l 1
 294 -175 l 1
 234 -175 l 1
 234 -115 l 1
EndSplineSet
EndChar

StartChar: egrave
Encoding: 232 232 254
Width: 524
Flags: W
LayerCount: 2
Fore
SplineSet
483 258 m 1
 63 258 l 1
 64 177 83 116 122 74 c 0
 161 31 216 10 288 10 c 0
 347 10 402 23 454 48 c 1
 463 30 l 1
 408 3 349 -10 288 -10 c 0
 209 -10 149 13 106 60 c 0
 64 107 43 173 43 260 c 0
 43 346 62 412 100 460 c 0
 139 506 193 530 263 530 c 0
 333 530 387 506 426 460 c 0
 464 412 483 346 483 260 c 2
 483 258 l 1
119 450 m 0
 84 411 66 353 63 278 c 1
 463 278 l 1
 460 353 442 411 407 450 c 0
 372 490 324 510 263 510 c 0
 202 510 154 490 119 450 c 0
192 770 m 1
 215 770 l 1
 336 560 l 1
 313 560 l 1
 192 770 l 1
EndSplineSet
EndChar

StartChar: uni1EBB
Encoding: 7867 7867 255
Width: 524
Flags: W
LayerCount: 2
Fore
SplineSet
483 258 m 1
 63 258 l 1
 64 177 83 116 122 74 c 0
 161 31 216 10 288 10 c 0
 347 10 402 23 454 48 c 1
 463 30 l 1
 408 3 349 -10 288 -10 c 0
 209 -10 149 13 106 60 c 0
 64 107 43 173 43 260 c 0
 43 346 62 412 100 460 c 0
 139 506 193 530 263 530 c 0
 333 530 387 506 426 460 c 0
 464 412 483 346 483 260 c 2
 483 258 l 1
119 450 m 0
 84 411 66 353 63 278 c 1
 463 278 l 1
 460 353 442 411 407 450 c 0
 372 490 324 510 263 510 c 0
 202 510 154 490 119 450 c 0
362 646 m 0
 366 664 368 680 368 693 c 0
 368 713 361 727 346 734 c 0
 332 741 305 745 264 745 c 0
 224 745 184 740 145 730 c 1
 140 749 l 1
 182 760 223 765 264 765 c 0
 310 765 342 760 360 749 c 0
 379 738 388 720 388 693 c 0
 388 680 386 666 384 649 c 0
 380 632 377 618 372 605 c 1
 350 605 l 1
 355 615 359 629 362 646 c 0
EndSplineSet
EndChar

StartChar: uni0207
Encoding: 519 519 256
Width: 524
Flags: W
LayerCount: 2
Fore
SplineSet
483 258 m 1
 63 258 l 1
 64 177 83 116 122 74 c 0
 161 31 216 10 288 10 c 0
 347 10 402 23 454 48 c 1
 463 30 l 1
 408 3 349 -10 288 -10 c 0
 209 -10 149 13 106 60 c 0
 64 107 43 173 43 260 c 0
 43 346 62 412 100 460 c 0
 139 506 193 530 263 530 c 0
 333 530 387 506 426 460 c 0
 464 412 483 346 483 260 c 2
 483 258 l 1
119 450 m 0
 84 411 66 353 63 278 c 1
 463 278 l 1
 460 353 442 411 407 450 c 0
 372 490 324 510 263 510 c 0
 202 510 154 490 119 450 c 0
370 702 m 0
 400 680 417 651 423 615 c 1
 403 615 l 1
 397 645 381 669 356 688 c 0
 331 706 300 715 264 715 c 0
 228 715 197 706 172 688 c 0
 147 669 131 645 125 615 c 1
 105 615 l 1
 111 651 128 680 158 702 c 0
 186 724 222 735 264 735 c 0
 306 735 342 724 370 702 c 0
EndSplineSet
EndChar

StartChar: emacron
Encoding: 275 275 257
Width: 524
Flags: W
LayerCount: 2
Fore
SplineSet
483 258 m 1
 63 258 l 1
 64 177 83 116 122 74 c 0
 161 31 216 10 288 10 c 0
 347 10 402 23 454 48 c 1
 463 30 l 1
 408 3 349 -10 288 -10 c 0
 209 -10 149 13 106 60 c 0
 64 107 43 173 43 260 c 0
 43 346 62 412 100 460 c 0
 139 506 193 530 263 530 c 0
 333 530 387 506 426 460 c 0
 464 412 483 346 483 260 c 2
 483 258 l 1
119 450 m 0
 84 411 66 353 63 278 c 1
 463 278 l 1
 460 353 442 411 407 450 c 0
 372 490 324 510 263 510 c 0
 202 510 154 490 119 450 c 0
97 675 m 1
 431 675 l 1
 431 655 l 1
 97 655 l 1
 97 675 l 1
EndSplineSet
EndChar

StartChar: eogonek
Encoding: 281 281 258
Width: 524
Flags: W
LayerCount: 2
Fore
SplineSet
550 -163 m 1
 520 -177 486 -184 449 -184 c 0
 400 -184 366 -175 348 -158 c 0
 330 -141 321 -121 321 -99 c 0
 321 -65 339 -32 374 0 c 1
 347 -7 319 -10 288 -10 c 0
 209 -10 149 13 106 60 c 0
 64 107 43 173 43 260 c 0
 43 346 62 412 100 460 c 0
 139 506 193 530 263 530 c 0
 333 530 387 506 426 460 c 0
 464 412 483 346 483 260 c 2
 483 258 l 1
 63 258 l 1
 64 177 83 116 122 74 c 0
 161 31 216 10 288 10 c 0
 334 10 378 18 420 34 c 1
 443 47 l 1
 447 45 l 1
 454 48 l 1
 459 38 l 1
 463 36 l 1
 463 36 461 35 461 35 c 1
 461 35 463 30 463 30 c 1
 428 15 l 1
 370 -22 341 -60 341 -99 c 0
 341 -124 352 -141 372 -150 c 0
 394 -159 419 -164 449 -164 c 0
 484 -164 515 -158 542 -145 c 1
 550 -163 l 1
119 450 m 0
 84 411 66 353 63 278 c 1
 463 278 l 1
 460 353 442 411 407 450 c 0
 372 490 324 510 263 510 c 0
 202 510 154 490 119 450 c 0
EndSplineSet
EndChar

StartChar: uni1EBD
Encoding: 7869 7869 259
Width: 524
Flags: W
LayerCount: 2
Fore
SplineSet
483 258 m 1
 63 258 l 1
 64 177 83 116 122 74 c 0
 161 31 216 10 288 10 c 0
 347 10 402 23 454 48 c 1
 463 30 l 1
 408 3 349 -10 288 -10 c 0
 209 -10 149 13 106 60 c 0
 64 107 43 173 43 260 c 0
 43 346 62 412 100 460 c 0
 139 506 193 530 263 530 c 0
 333 530 387 506 426 460 c 0
 464 412 483 346 483 260 c 2
 483 258 l 1
119 450 m 0
 84 411 66 353 63 278 c 1
 463 278 l 1
 460 353 442 411 407 450 c 0
 372 490 324 510 263 510 c 0
 202 510 154 490 119 450 c 0
258 657 m 0
 215 689 184 705 163 705 c 0
 138 705 125 675 125 615 c 1
 105 615 l 1
 105 652 110 679 119 698 c 0
 128 716 143 725 163 725 c 0
 188 725 224 708 270 673 c 0
 313 641 345 625 365 625 c 0
 390 625 403 655 403 715 c 1
 423 715 l 1
 423 642 404 605 365 605 c 0
 341 605 305 622 258 657 c 0
EndSplineSet
EndChar

StartChar: uni0259
Encoding: 601 601 260
Width: 524
Flags: W
LayerCount: 2
Fore
SplineSet
418 460 m 0
 460 413 481 347 481 260 c 0
 481 174 462 108 424 60 c 0
 385 14 331 -10 261 -10 c 0
 191 -10 137 14 98 60 c 0
 60 108 41 174 41 260 c 2
 41 262 l 1
 461 262 l 1
 460 343 441 404 402 446 c 0
 363 489 308 510 236 510 c 0
 177 510 122 497 70 472 c 1
 61 490 l 1
 116 517 175 530 236 530 c 0
 315 530 375 507 418 460 c 0
405 70 m 0
 440 109 458 167 461 242 c 1
 61 242 l 1
 64 167 82 109 117 70 c 0
 152 30 200 10 261 10 c 0
 322 10 370 30 405 70 c 0
EndSplineSet
EndChar

StartChar: f
Encoding: 102 102 261
Width: 409
Flags: W
LayerCount: 2
Fore
SplineSet
26 500 m 1
 26 520 l 1
 181 520 l 1
 181 610 l 2
 181 661 192 698 212 723 c 0
 234 748 266 760 309 760 c 0
 334 760 358 755 383 745 c 1
 375 726 l 1
 354 735 332 740 309 740 c 0
 272 740 244 730 227 709 c 0
 210 688 201 655 201 610 c 2
 201 520 l 1
 381 520 l 1
 381 500 l 1
 201 500 l 1
 201 0 l 1
 181 0 l 1
 181 500 l 1
 26 500 l 1
EndSplineSet
EndChar

StartChar: g
Encoding: 103 103 262
Width: 552
Flags: W
LayerCount: 2
Fore
SplineSet
467 520 m 1
 467 30 l 2
 467 -59 448 -124 411 -166 c 0
 374 -209 316 -230 238 -230 c 0
 174 -230 115 -216 61 -188 c 1
 70 -170 l 1
 121 -197 177 -210 238 -210 c 0
 310 -210 363 -191 396 -152 c 0
 430 -113 447 -53 447 30 c 2
 447 120 l 1
 445 120 l 1
 429 79 405 48 372 24 c 0
 339 2 301 -10 257 -10 c 0
 192 -10 140 14 103 62 c 0
 66 110 47 176 47 260 c 0
 47 344 66 410 103 458 c 0
 140 506 192 530 257 530 c 0
 301 530 339 518 372 496 c 0
 405 472 429 441 445 400 c 1
 447 400 l 1
 447 520 l 1
 467 520 l 1
395 71 m 0
 430 112 447 166 447 235 c 2
 447 285 l 2
 447 354 430 408 395 449 c 0
 360 490 314 510 257 510 c 0
 198 510 151 488 118 444 c 0
 84 399 67 338 67 260 c 0
 67 182 84 121 118 76 c 0
 151 32 198 10 257 10 c 0
 314 10 360 30 395 71 c 0
EndSplineSet
EndChar

StartChar: gbreve
Encoding: 287 287 263
Width: 552
Flags: W
LayerCount: 2
Fore
SplineSet
467 520 m 1
 467 30 l 2
 467 -59 448 -124 411 -166 c 0
 374 -209 316 -230 238 -230 c 0
 174 -230 115 -216 61 -188 c 1
 70 -170 l 1
 121 -197 177 -210 238 -210 c 0
 310 -210 363 -191 396 -152 c 0
 430 -113 447 -53 447 30 c 2
 447 120 l 1
 445 120 l 1
 429 79 405 48 372 24 c 0
 339 2 301 -10 257 -10 c 0
 192 -10 140 14 103 62 c 0
 66 110 47 176 47 260 c 0
 47 344 66 410 103 458 c 0
 140 506 192 530 257 530 c 0
 301 530 339 518 372 496 c 0
 405 472 429 441 445 400 c 1
 447 400 l 1
 447 520 l 1
 467 520 l 1
395 71 m 0
 430 112 447 166 447 235 c 2
 447 285 l 2
 447 354 430 408 395 449 c 0
 360 490 314 510 257 510 c 0
 198 510 151 488 118 444 c 0
 84 399 67 338 67 260 c 0
 67 182 84 121 118 76 c 0
 151 32 198 10 257 10 c 0
 314 10 360 30 395 71 c 0
164 628 m 0
 134 650 117 679 111 715 c 1
 131 715 l 1
 137 685 153 661 178 642 c 0
 203 624 234 615 270 615 c 0
 306 615 337 624 362 642 c 0
 387 661 403 685 409 715 c 1
 429 715 l 1
 423 679 406 650 376 628 c 0
 348 606 312 595 270 595 c 0
 228 595 192 606 164 628 c 0
EndSplineSet
EndChar

StartChar: gcaron
Encoding: 487 487 264
Width: 552
Flags: W
LayerCount: 2
Fore
SplineSet
467 520 m 1
 467 30 l 2
 467 -59 448 -124 411 -166 c 0
 374 -209 316 -230 238 -230 c 0
 174 -230 115 -216 61 -188 c 1
 70 -170 l 1
 121 -197 177 -210 238 -210 c 0
 310 -210 363 -191 396 -152 c 0
 430 -113 447 -53 447 30 c 2
 447 120 l 1
 445 120 l 1
 429 79 405 48 372 24 c 0
 339 2 301 -10 257 -10 c 0
 192 -10 140 14 103 62 c 0
 66 110 47 176 47 260 c 0
 47 344 66 410 103 458 c 0
 140 506 192 530 257 530 c 0
 301 530 339 518 372 496 c 0
 405 472 429 441 445 400 c 1
 447 400 l 1
 447 520 l 1
 467 520 l 1
395 71 m 0
 430 112 447 166 447 235 c 2
 447 285 l 2
 447 354 430 408 395 449 c 0
 360 490 314 510 257 510 c 0
 198 510 151 488 118 444 c 0
 84 399 67 338 67 260 c 0
 67 182 84 121 118 76 c 0
 151 32 198 10 257 10 c 0
 314 10 360 30 395 71 c 0
98 770 m 1
 123 770 l 1
 269 575 l 1
 271 575 l 1
 417 770 l 1
 442 770 l 1
 285 560 l 1
 255 560 l 1
 98 770 l 1
EndSplineSet
EndChar

StartChar: gcircumflex
Encoding: 285 285 265
Width: 552
Flags: W
LayerCount: 2
Fore
SplineSet
467 520 m 1
 467 30 l 2
 467 -59 448 -124 411 -166 c 0
 374 -209 316 -230 238 -230 c 0
 174 -230 115 -216 61 -188 c 1
 70 -170 l 1
 121 -197 177 -210 238 -210 c 0
 310 -210 363 -191 396 -152 c 0
 430 -113 447 -53 447 30 c 2
 447 120 l 1
 445 120 l 1
 429 79 405 48 372 24 c 0
 339 2 301 -10 257 -10 c 0
 192 -10 140 14 103 62 c 0
 66 110 47 176 47 260 c 0
 47 344 66 410 103 458 c 0
 140 506 192 530 257 530 c 0
 301 530 339 518 372 496 c 0
 405 472 429 441 445 400 c 1
 447 400 l 1
 447 520 l 1
 467 520 l 1
395 71 m 0
 430 112 447 166 447 235 c 2
 447 285 l 2
 447 354 430 408 395 449 c 0
 360 490 314 510 257 510 c 0
 198 510 151 488 118 444 c 0
 84 399 67 338 67 260 c 0
 67 182 84 121 118 76 c 0
 151 32 198 10 257 10 c 0
 314 10 360 30 395 71 c 0
255 770 m 1
 285 770 l 1
 442 560 l 1
 417 560 l 1
 271 755 l 1
 269 755 l 1
 123 560 l 1
 98 560 l 1
 255 770 l 1
EndSplineSet
EndChar

StartChar: uni0123
Encoding: 291 291 266
Width: 552
Flags: W
LayerCount: 2
Fore
SplineSet
467 520 m 1
 467 30 l 2
 467 -59 448 -124 411 -166 c 0
 374 -209 316 -230 238 -230 c 0
 174 -230 115 -216 61 -188 c 1
 70 -170 l 1
 121 -197 177 -210 238 -210 c 0
 310 -210 363 -191 396 -152 c 0
 430 -113 447 -53 447 30 c 2
 447 120 l 1
 445 120 l 1
 429 79 405 48 372 24 c 0
 339 2 301 -10 257 -10 c 0
 192 -10 140 14 103 62 c 0
 66 110 47 176 47 260 c 0
 47 344 66 410 103 458 c 0
 140 506 192 530 257 530 c 0
 301 530 339 518 372 496 c 0
 405 472 429 441 445 400 c 1
 447 400 l 1
 447 520 l 1
 467 520 l 1
395 71 m 0
 430 112 447 166 447 235 c 2
 447 285 l 2
 447 354 430 408 395 449 c 0
 360 490 314 510 257 510 c 0
 198 510 151 488 118 444 c 0
 84 399 67 338 67 260 c 0
 67 182 84 121 118 76 c 0
 151 32 198 10 257 10 c 0
 314 10 360 30 395 71 c 0
319 770 m 1
 342 770 l 1
 221 560 l 1
 198 560 l 1
 319 770 l 1
EndSplineSet
EndChar

StartChar: gdotaccent
Encoding: 289 289 267
Width: 552
Flags: W
LayerCount: 2
Fore
SplineSet
467 520 m 1
 467 30 l 2
 467 -59 448 -124 411 -166 c 0
 374 -209 316 -230 238 -230 c 0
 174 -230 115 -216 61 -188 c 1
 70 -170 l 1
 121 -197 177 -210 238 -210 c 0
 310 -210 363 -191 396 -152 c 0
 430 -113 447 -53 447 30 c 2
 447 120 l 1
 445 120 l 1
 429 79 405 48 372 24 c 0
 339 2 301 -10 257 -10 c 0
 192 -10 140 14 103 62 c 0
 66 110 47 176 47 260 c 0
 47 344 66 410 103 458 c 0
 140 506 192 530 257 530 c 0
 301 530 339 518 372 496 c 0
 405 472 429 441 445 400 c 1
 447 400 l 1
 447 520 l 1
 467 520 l 1
395 71 m 0
 430 112 447 166 447 235 c 2
 447 285 l 2
 447 354 430 408 395 449 c 0
 360 490 314 510 257 510 c 0
 198 510 151 488 118 444 c 0
 84 399 67 338 67 260 c 0
 67 182 84 121 118 76 c 0
 151 32 198 10 257 10 c 0
 314 10 360 30 395 71 c 0
240 695 m 1
 300 695 l 1
 300 635 l 1
 240 635 l 1
 240 695 l 1
EndSplineSet
EndChar

StartChar: h
Encoding: 104 104 268
Width: 562
Flags: W
LayerCount: 2
Fore
SplineSet
442 476 m 0
 471 440 485 388 485 320 c 2
 485 0 l 1
 465 0 l 1
 465 320 l 2
 465 383 453 430 428 462 c 0
 403 494 367 510 319 510 c 0
 280 510 245 500 212 480 c 0
 179 461 153 434 134 400 c 0
 115 367 105 330 105 290 c 2
 105 0 l 1
 85 0 l 1
 85 750 l 1
 105 750 l 1
 105 388 l 1
 107 388 l 1
 126 431 154 465 192 491 c 0
 230 517 272 530 319 530 c 0
 373 530 414 512 442 476 c 0
EndSplineSet
EndChar

StartChar: hbar
Encoding: 295 295 269
Width: 627
Flags: W
LayerCount: 2
Fore
SplineSet
508 476 m 0
 536 440 550 388 550 320 c 2
 550 0 l 1
 530 0 l 1
 530 320 l 2
 530 383 518 430 493 462 c 0
 468 494 432 510 384 510 c 0
 345 510 310 500 277 480 c 0
 244 461 218 434 199 400 c 0
 180 367 170 330 170 290 c 2
 170 0 l 1
 150 0 l 1
 150 615 l 1
 30 615 l 1
 30 635 l 1
 150 635 l 1
 150 750 l 1
 170 750 l 1
 170 635 l 1
 450 635 l 1
 450 615 l 1
 170 615 l 1
 170 388 l 1
 172 388 l 1
 191 431 219 465 257 491 c 0
 295 517 337 530 384 530 c 0
 438 530 479 512 508 476 c 0
EndSplineSet
EndChar

StartChar: hcircumflex
Encoding: 293 293 270
Width: 562
Flags: W
LayerCount: 2
Fore
SplineSet
442 476 m 0
 471 440 485 388 485 320 c 2
 485 0 l 1
 465 0 l 1
 465 320 l 2
 465 383 453 430 428 462 c 0
 403 494 367 510 319 510 c 0
 280 510 245 500 212 480 c 0
 179 461 153 434 134 400 c 0
 115 367 105 330 105 290 c 2
 105 0 l 1
 85 0 l 1
 85 750 l 1
 105 750 l 1
 105 388 l 1
 107 388 l 1
 126 431 154 465 192 491 c 0
 230 517 272 530 319 530 c 0
 373 530 414 512 442 476 c 0
255 1000 m 1
 285 1000 l 1
 442 790 l 1
 417 790 l 1
 271 985 l 1
 269 985 l 1
 123 790 l 1
 98 790 l 1
 255 1000 l 1
EndSplineSet
EndChar

StartChar: i
Encoding: 105 105 271
Width: 248
Flags: W
LayerCount: 2
Fore
SplineSet
94 730 m 1
 154 730 l 1
 154 670 l 1
 94 670 l 1
 94 730 l 1
114 520 m 1
 134 520 l 1
 134 0 l 1
 114 0 l 1
 114 520 l 1
EndSplineSet
EndChar

StartChar: dotlessi
Encoding: 305 305 272
Width: 208
Flags: W
LayerCount: 2
Fore
SplineSet
94 520 m 1
 114 520 l 1
 114 0 l 1
 94 0 l 1
 94 520 l 1
EndSplineSet
EndChar

StartChar: iacute
Encoding: 237 237 273
Width: 208
Flags: W
LayerCount: 2
Fore
SplineSet
94 520 m 1
 114 520 l 1
 114 0 l 1
 94 0 l 1
 94 520 l 1
55 560 m 1
 32 560 l 1
 153 770 l 1
 176 770 l 1
 55 560 l 1
EndSplineSet
EndChar

StartChar: ibreve
Encoding: 301 301 274
Width: 208
Flags: W
LayerCount: 2
Fore
SplineSet
94 520 m 1
 114 520 l 1
 114 0 l 1
 94 0 l 1
 94 520 l 1
-2 628 m 0
 -32 650 -49 679 -55 715 c 1
 -35 715 l 1
 -29 685 -13 661 12 642 c 0
 37 624 68 615 104 615 c 0
 140 615 171 624 196 642 c 0
 221 661 237 685 243 715 c 1
 263 715 l 1
 257 679 240 650 210 628 c 0
 182 606 146 595 104 595 c 0
 62 595 26 606 -2 628 c 0
EndSplineSet
EndChar

StartChar: icircumflex
Encoding: 238 238 275
Width: 208
Flags: W
LayerCount: 2
Fore
SplineSet
94 520 m 1
 114 520 l 1
 114 0 l 1
 94 0 l 1
 94 520 l 1
89 770 m 1
 119 770 l 1
 276 560 l 1
 251 560 l 1
 105 755 l 1
 103 755 l 1
 -43 560 l 1
 -68 560 l 1
 89 770 l 1
EndSplineSet
EndChar

StartChar: uni0209
Encoding: 521 521 276
Width: 208
Flags: W
LayerCount: 2
Fore
SplineSet
94 520 m 1
 114 520 l 1
 114 0 l 1
 94 0 l 1
 94 520 l 1
-67 770 m 1
 -44 770 l 1
 77 560 l 1
 54 560 l 1
 -67 770 l 1
113 770 m 1
 136 770 l 1
 257 560 l 1
 234 560 l 1
 113 770 l 1
EndSplineSet
EndChar

StartChar: idieresis
Encoding: 239 239 277
Width: 208
Flags: W
LayerCount: 2
Fore
SplineSet
94 520 m 1
 114 520 l 1
 114 0 l 1
 94 0 l 1
 94 520 l 1
-46 695 m 1
 14 695 l 1
 14 635 l 1
 -46 635 l 1
 -46 695 l 1
194 695 m 1
 254 695 l 1
 254 635 l 1
 194 635 l 1
 194 695 l 1
EndSplineSet
EndChar

StartChar: i.loclTRK
Encoding: 1114113 -1 278
Width: 208
Flags: W
LayerCount: 2
Fore
SplineSet
94 520 m 1
 114 520 l 1
 114 0 l 1
 94 0 l 1
 94 520 l 1
74 695 m 1
 134 695 l 1
 134 635 l 1
 74 635 l 1
 74 695 l 1
EndSplineSet
EndChar

StartChar: uni1ECB
Encoding: 7883 7883 279
Width: 248
Flags: W
LayerCount: 2
Fore
SplineSet
94 730 m 1
 154 730 l 1
 154 670 l 1
 94 670 l 1
 94 730 l 1
114 520 m 1
 134 520 l 1
 134 0 l 1
 114 0 l 1
 114 520 l 1
94 -115 m 1
 154 -115 l 1
 154 -175 l 1
 94 -175 l 1
 94 -115 l 1
EndSplineSet
EndChar

StartChar: igrave
Encoding: 236 236 280
Width: 208
Flags: W
LayerCount: 2
Fore
SplineSet
94 520 m 1
 114 520 l 1
 114 0 l 1
 94 0 l 1
 94 520 l 1
32 770 m 1
 55 770 l 1
 176 560 l 1
 153 560 l 1
 32 770 l 1
EndSplineSet
EndChar

StartChar: uni1EC9
Encoding: 7881 7881 281
Width: 208
Flags: W
LayerCount: 2
Fore
SplineSet
94 520 m 1
 114 520 l 1
 114 0 l 1
 94 0 l 1
 94 520 l 1
202 646 m 0
 206 664 208 680 208 693 c 0
 208 713 201 727 186 734 c 0
 172 741 145 745 104 745 c 0
 64 745 24 740 -15 730 c 1
 -20 749 l 1
 22 760 63 765 104 765 c 0
 150 765 182 760 200 749 c 0
 219 738 228 720 228 693 c 0
 228 680 226 666 224 649 c 0
 220 632 217 618 212 605 c 1
 190 605 l 1
 195 615 199 629 202 646 c 0
EndSplineSet
EndChar

StartChar: uni020B
Encoding: 523 523 282
Width: 208
Flags: W
LayerCount: 2
Fore
SplineSet
94 520 m 1
 114 520 l 1
 114 0 l 1
 94 0 l 1
 94 520 l 1
210 702 m 0
 240 680 257 651 263 615 c 1
 243 615 l 1
 237 645 221 669 196 688 c 0
 171 706 140 715 104 715 c 0
 68 715 37 706 12 688 c 0
 -13 669 -29 645 -35 615 c 1
 -55 615 l 1
 -49 651 -32 680 -2 702 c 0
 26 724 62 735 104 735 c 0
 146 735 182 724 210 702 c 0
EndSplineSet
EndChar

StartChar: imacron
Encoding: 299 299 283
Width: 208
Flags: W
LayerCount: 2
Fore
SplineSet
94 520 m 1
 114 520 l 1
 114 0 l 1
 94 0 l 1
 94 520 l 1
-63 675 m 1
 271 675 l 1
 271 655 l 1
 -63 655 l 1
 -63 675 l 1
EndSplineSet
EndChar

StartChar: iogonek
Encoding: 303 303 284
Width: 208
Flags: W
LayerCount: 2
Fore
SplineSet
134 695 m 1
 134 635 l 1
 74 635 l 1
 74 695 l 1
 134 695 l 1
201 -199 m 1
 171 -213 137 -220 100 -220 c 0
 51 -220 17 -211 -1 -194 c 0
 -19 -177 -28 -157 -28 -135 c 0
 -28 -109 -17 -84 4 -58 c 0
 25 -34 55 -10 94 11 c 1
 94 520 l 1
 114 520 l 1
 114 0 l 1
 75 -21 44 -44 24 -66 c 0
 2 -90 -8 -112 -8 -135 c 0
 -8 -160 2 -177 24 -186 c 0
 44 -195 70 -200 100 -200 c 0
 135 -200 166 -194 193 -181 c 1
 201 -199 l 1
EndSplineSet
EndChar

StartChar: itilde
Encoding: 297 297 285
Width: 208
Flags: W
LayerCount: 2
Fore
SplineSet
94 520 m 1
 114 520 l 1
 114 0 l 1
 94 0 l 1
 94 520 l 1
98 657 m 0
 55 689 24 705 3 705 c 0
 -22 705 -35 675 -35 615 c 1
 -55 615 l 1
 -55 652 -50 679 -41 698 c 0
 -32 716 -17 725 3 725 c 0
 28 725 64 708 110 673 c 0
 153 641 185 625 205 625 c 0
 230 625 243 655 243 715 c 1
 263 715 l 1
 263 642 244 605 205 605 c 0
 181 605 145 622 98 657 c 0
EndSplineSet
EndChar

StartChar: j
Encoding: 106 106 286
Width: 298
Flags: W
LayerCount: 2
Fore
SplineSet
144 730 m 1
 204 730 l 1
 204 670 l 1
 144 670 l 1
 144 730 l 1
76 -192 m 0
 110 -181 132 -160 145 -132 c 0
 158 -102 164 -59 164 0 c 2
 164 520 l 1
 184 520 l 1
 184 0 l 2
 184 -62 177 -109 162 -142 c 0
 147 -174 122 -197 86 -210 c 0
 50 -223 -2 -230 -71 -230 c 1
 -71 -210 l 1
 -6 -210 44 -204 76 -192 c 0
EndSplineSet
EndChar

StartChar: uni0237
Encoding: 567 567 287
Width: 278
Flags: W
LayerCount: 2
Fore
SplineSet
76 -192 m 0
 110 -181 132 -160 145 -132 c 0
 158 -102 164 -59 164 0 c 2
 164 520 l 1
 184 520 l 1
 184 0 l 2
 184 -62 177 -109 162 -142 c 0
 147 -174 122 -197 86 -210 c 0
 50 -223 -2 -230 -71 -230 c 1
 -71 -210 l 1
 -6 -210 44 -204 76 -192 c 0
EndSplineSet
EndChar

StartChar: jcircumflex
Encoding: 309 309 288
Width: 278
Flags: W
LayerCount: 2
Fore
SplineSet
76 -192 m 0
 110 -181 132 -160 145 -132 c 0
 158 -102 164 -59 164 0 c 2
 164 520 l 1
 184 520 l 1
 184 0 l 2
 184 -62 177 -109 162 -142 c 0
 147 -174 122 -197 86 -210 c 0
 50 -223 -2 -230 -71 -230 c 1
 -71 -210 l 1
 -6 -210 44 -204 76 -192 c 0
124 770 m 1
 154 770 l 1
 311 560 l 1
 286 560 l 1
 140 755 l 1
 138 755 l 1
 -8 560 l 1
 -33 560 l 1
 124 770 l 1
EndSplineSet
EndChar

StartChar: k
Encoding: 107 107 289
Width: 518
Flags: W
LayerCount: 2
Fore
SplineSet
85 750 m 1
 105 750 l 1
 105 277 l 1
 107 277 l 1
 426 520 l 1
 459 520 l 1
 129 270 l 1
 475 0 l 1
 442 0 l 1
 107 263 l 1
 105 263 l 1
 105 0 l 1
 85 0 l 1
 85 750 l 1
EndSplineSet
EndChar

StartChar: uni0137
Encoding: 311 311 290
Width: 518
Flags: W
LayerCount: 2
Fore
SplineSet
85 750 m 1
 105 750 l 1
 105 277 l 1
 107 277 l 1
 426 520 l 1
 459 520 l 1
 129 270 l 1
 475 0 l 1
 442 0 l 1
 107 263 l 1
 105 263 l 1
 105 0 l 1
 85 0 l 1
 85 750 l 1
171 -250 m 1
 148 -250 l 1
 269 -40 l 1
 292 -40 l 1
 171 -250 l 1
EndSplineSet
EndChar

StartChar: kgreenlandic
Encoding: 312 312 291
Width: 518
Flags: W
LayerCount: 2
Fore
SplineSet
85 520 m 1
 105 520 l 1
 105 277 l 1
 107 277 l 1
 426 520 l 1
 459 520 l 1
 129 270 l 1
 475 0 l 1
 442 0 l 1
 107 263 l 1
 105 263 l 1
 105 0 l 1
 85 0 l 1
 85 520 l 1
EndSplineSet
EndChar

StartChar: l
Encoding: 108 108 292
Width: 345
Flags: W
LayerCount: 2
Fore
SplineSet
94 750 m 1
 114 750 l 1
 114 140 l 2
 114 87 122 52 138 35 c 0
 155 18 185 10 229 10 c 0
 258 10 285 15 312 24 c 1
 319 5 l 1
 291 -5 261 -10 229 -10 c 0
 178 -10 142 1 123 22 c 0
 104 43 94 83 94 140 c 2
 94 750 l 1
EndSplineSet
EndChar

StartChar: lacute
Encoding: 314 314 293
Width: 345
Flags: W
LayerCount: 2
Fore
SplineSet
94 750 m 1
 114 750 l 1
 114 140 l 2
 114 87 122 52 138 35 c 0
 155 18 185 10 229 10 c 0
 258 10 285 15 312 24 c 1
 319 5 l 1
 291 -5 261 -10 229 -10 c 0
 178 -10 142 1 123 22 c 0
 104 43 94 83 94 140 c 2
 94 750 l 1
55 790 m 1
 32 790 l 1
 153 1000 l 1
 176 1000 l 1
 55 790 l 1
EndSplineSet
EndChar

StartChar: lcaron
Encoding: 318 318 294
Width: 377
Flags: W
LayerCount: 2
Fore
SplineSet
94 750 m 1
 114 750 l 1
 114 140 l 2
 114 87 122 52 138 35 c 0
 155 18 185 10 229 10 c 0
 258 10 285 15 312 24 c 1
 319 5 l 1
 291 -5 261 -10 229 -10 c 0
 178 -10 142 1 123 22 c 0
 104 43 94 83 94 140 c 2
 94 750 l 1
287 770 m 1
 309 770 l 1
 200 470 l 1
 178 470 l 1
 287 770 l 1
EndSplineSet
EndChar

StartChar: uni013C
Encoding: 316 316 295
Width: 345
Flags: W
LayerCount: 2
Fore
SplineSet
94 750 m 1
 114 750 l 1
 114 140 l 2
 114 87 122 52 138 35 c 0
 155 18 185 10 229 10 c 0
 258 10 285 15 312 24 c 1
 319 5 l 1
 291 -5 261 -10 229 -10 c 0
 178 -10 142 1 123 22 c 0
 104 43 94 83 94 140 c 2
 94 750 l 1
105 -250 m 1
 82 -250 l 1
 203 -40 l 1
 226 -40 l 1
 105 -250 l 1
EndSplineSet
EndChar

StartChar: ldot
Encoding: 320 320 296
Width: 328
Flags: W
LayerCount: 2
Fore
SplineSet
94 750 m 1
 114 750 l 1
 114 140 l 2
 114 87 122 52 138 35 c 0
 155 18 185 10 229 10 c 0
 258 10 285 15 312 24 c 1
 319 5 l 1
 291 -5 261 -10 229 -10 c 0
 178 -10 142 1 123 22 c 0
 104 43 94 83 94 140 c 2
 94 750 l 1
230 405 m 1
 290 405 l 1
 290 345 l 1
 230 345 l 1
 230 405 l 1
EndSplineSet
EndChar

StartChar: uni01C9
Encoding: 457 457 297
Width: 506
Flags: W
LayerCount: 2
Fore
SplineSet
94 750 m 1
 114 750 l 1
 114 140 l 2
 114 87 122 52 138 35 c 0
 155 18 185 10 229 10 c 0
 258 10 285 15 312 24 c 1
 319 5 l 1
 291 -5 261 -10 229 -10 c 0
 178 -10 142 1 123 22 c 0
 104 43 94 83 94 140 c 2
 94 750 l 1
352 730 m 1
 412 730 l 1
 412 670 l 1
 352 670 l 1
 352 730 l 1
284 -192 m 0
 318 -181 340 -160 353 -132 c 0
 366 -102 372 -59 372 0 c 2
 372 520 l 1
 392 520 l 1
 392 0 l 2
 392 -62 385 -109 370 -142 c 0
 355 -174 330 -197 294 -210 c 0
 258 -223 206 -230 137 -230 c 1
 137 -210 l 1
 202 -210 252 -204 284 -192 c 0
EndSplineSet
EndChar

StartChar: lslash
Encoding: 322 322 298
Width: 436
Flags: W
LayerCount: 2
Fore
SplineSet
356 431 m 1
 26 281 l 1
 18 299 l 1
 348 449 l 1
 356 431 l 1
177 750 m 1
 197 750 l 1
 197 140 l 2
 197 87 205 52 222 35 c 0
 238 18 268 10 312 10 c 0
 341 10 368 15 395 24 c 1
 402 5 l 1
 374 -5 344 -10 312 -10 c 0
 261 -10 225 1 206 22 c 0
 187 43 177 83 177 140 c 2
 177 750 l 1
EndSplineSet
EndChar

StartChar: m
Encoding: 109 109 299
Width: 782
Flags: W
LayerCount: 2
Fore
SplineSet
672 476 m 0
 694 441 705 389 705 320 c 2
 705 0 l 1
 685 0 l 1
 685 320 l 2
 685 447 647 510 572 510 c 0
 543 510 515 501 490 484 c 0
 464 466 443 442 428 412 c 0
 413 383 405 351 405 318 c 2
 405 0 l 1
 385 0 l 1
 385 320 l 2
 385 447 347 510 272 510 c 0
 241 510 213 500 188 480 c 0
 163 461 142 434 128 400 c 0
 112 367 105 330 105 290 c 2
 105 0 l 1
 85 0 l 1
 85 520 l 1
 105 520 l 1
 105 399 l 1
 107 399 l 1
 123 439 146 471 174 494 c 0
 204 518 236 530 272 530 c 0
 307 530 335 519 356 497 c 0
 377 475 392 442 399 399 c 1
 401 399 l 1
 416 437 440 468 471 493 c 0
 502 518 536 530 572 530 c 0
 616 530 649 512 672 476 c 0
EndSplineSet
EndChar

StartChar: n
Encoding: 110 110 300
Width: 562
Flags: W
LayerCount: 2
Fore
SplineSet
442 476 m 0
 471 440 485 388 485 320 c 2
 485 0 l 1
 465 0 l 1
 465 320 l 2
 465 447 416 510 319 510 c 0
 280 510 244 500 211 480 c 0
 178 461 152 434 134 400 c 0
 114 367 105 330 105 290 c 2
 105 0 l 1
 85 0 l 1
 85 520 l 1
 105 520 l 1
 105 388 l 1
 107 388 l 1
 125 431 153 465 192 491 c 0
 230 517 272 530 319 530 c 0
 373 530 414 512 442 476 c 0
EndSplineSet
EndChar

StartChar: nacute
Encoding: 324 324 301
Width: 562
Flags: W
LayerCount: 2
Fore
SplineSet
442 476 m 0
 471 440 485 388 485 320 c 2
 485 0 l 1
 465 0 l 1
 465 320 l 2
 465 447 416 510 319 510 c 0
 280 510 244 500 211 480 c 0
 178 461 152 434 134 400 c 0
 114 367 105 330 105 290 c 2
 105 0 l 1
 85 0 l 1
 85 520 l 1
 105 520 l 1
 105 388 l 1
 107 388 l 1
 125 431 153 465 192 491 c 0
 230 517 272 530 319 530 c 0
 373 530 414 512 442 476 c 0
232 560 m 1
 209 560 l 1
 330 770 l 1
 353 770 l 1
 232 560 l 1
EndSplineSet
EndChar

StartChar: ncaron
Encoding: 328 328 302
Width: 562
Flags: W
LayerCount: 2
Fore
SplineSet
442 476 m 0
 471 440 485 388 485 320 c 2
 485 0 l 1
 465 0 l 1
 465 320 l 2
 465 447 416 510 319 510 c 0
 280 510 244 500 211 480 c 0
 178 461 152 434 134 400 c 0
 114 367 105 330 105 290 c 2
 105 0 l 1
 85 0 l 1
 85 520 l 1
 105 520 l 1
 105 388 l 1
 107 388 l 1
 125 431 153 465 192 491 c 0
 230 517 272 530 319 530 c 0
 373 530 414 512 442 476 c 0
109 770 m 1
 134 770 l 1
 280 575 l 1
 282 575 l 1
 428 770 l 1
 453 770 l 1
 296 560 l 1
 266 560 l 1
 109 770 l 1
EndSplineSet
EndChar

StartChar: uni0146
Encoding: 326 326 303
Width: 562
Flags: W
LayerCount: 2
Fore
SplineSet
442 476 m 0
 471 440 485 388 485 320 c 2
 485 0 l 1
 465 0 l 1
 465 320 l 2
 465 447 416 510 319 510 c 0
 280 510 244 500 211 480 c 0
 178 461 152 434 134 400 c 0
 114 367 105 330 105 290 c 2
 105 0 l 1
 85 0 l 1
 85 520 l 1
 105 520 l 1
 105 388 l 1
 107 388 l 1
 125 431 153 465 192 491 c 0
 230 517 272 530 319 530 c 0
 373 530 414 512 442 476 c 0
232 -250 m 1
 209 -250 l 1
 330 -40 l 1
 353 -40 l 1
 232 -250 l 1
EndSplineSet
EndChar

StartChar: eng
Encoding: 331 331 304
Width: 562
Flags: W
LayerCount: 2
Fore
SplineSet
442 476 m 0
 471 440 485 388 485 320 c 2
 485 -61 l 2
 485 -112 474 -150 452 -174 c 0
 429 -199 394 -211 345 -211 c 0
 318 -211 292 -206 265 -196 c 1
 272 -177 l 1
 295 -186 319 -191 345 -191 c 0
 388 -191 418 -181 437 -160 c 0
 456 -140 465 -107 465 -61 c 2
 465 320 l 2
 465 447 416 510 319 510 c 0
 280 510 244 500 211 480 c 0
 178 461 152 434 134 400 c 0
 114 367 105 330 105 290 c 2
 105 0 l 1
 85 0 l 1
 85 520 l 1
 105 520 l 1
 105 388 l 1
 107 388 l 1
 125 431 153 465 192 491 c 0
 230 517 272 530 319 530 c 0
 373 530 414 512 442 476 c 0
EndSplineSet
EndChar

StartChar: uni01CC
Encoding: 460 460 305
Width: 860
Flags: W
LayerCount: 2
Fore
SplineSet
442 476 m 0
 471 440 485 388 485 320 c 2
 485 0 l 1
 465 0 l 1
 465 320 l 2
 465 447 416 510 319 510 c 0
 280 510 244 500 211 480 c 0
 178 461 152 434 134 400 c 0
 114 367 105 330 105 290 c 2
 105 0 l 1
 85 0 l 1
 85 520 l 1
 105 520 l 1
 105 388 l 1
 107 388 l 1
 125 431 153 465 192 491 c 0
 230 517 272 530 319 530 c 0
 373 530 414 512 442 476 c 0
706 730 m 1
 766 730 l 1
 766 670 l 1
 706 670 l 1
 706 730 l 1
638 -192 m 0
 672 -181 694 -160 707 -132 c 0
 720 -102 726 -59 726 0 c 2
 726 520 l 1
 746 520 l 1
 746 0 l 2
 746 -62 739 -109 724 -142 c 0
 709 -174 684 -197 648 -210 c 0
 612 -223 560 -230 491 -230 c 1
 491 -210 l 1
 556 -210 606 -204 638 -192 c 0
EndSplineSet
EndChar

StartChar: ntilde
Encoding: 241 241 306
Width: 562
Flags: W
LayerCount: 2
Fore
SplineSet
442 476 m 0
 471 440 485 388 485 320 c 2
 485 0 l 1
 465 0 l 1
 465 320 l 2
 465 447 416 510 319 510 c 0
 280 510 244 500 211 480 c 0
 178 461 152 434 134 400 c 0
 114 367 105 330 105 290 c 2
 105 0 l 1
 85 0 l 1
 85 520 l 1
 105 520 l 1
 105 388 l 1
 107 388 l 1
 125 431 153 465 192 491 c 0
 230 517 272 530 319 530 c 0
 373 530 414 512 442 476 c 0
275 657 m 0
 232 689 201 705 180 705 c 0
 155 705 142 675 142 615 c 1
 122 615 l 1
 122 652 127 679 136 698 c 0
 145 716 160 725 180 725 c 0
 205 725 241 708 287 673 c 0
 330 641 362 625 382 625 c 0
 407 625 420 655 420 715 c 1
 440 715 l 1
 440 642 421 605 382 605 c 0
 358 605 322 622 275 657 c 0
EndSplineSet
EndChar

StartChar: o
Encoding: 111 111 307
Width: 546
Flags: W
LayerCount: 2
Fore
SplineSet
104 62 m 0
 64 110 43 176 43 260 c 0
 43 344 64 410 104 458 c 0
 146 506 202 530 273 530 c 0
 344 530 400 506 442 458 c 0
 482 410 503 344 503 260 c 0
 503 176 482 110 442 62 c 0
 400 14 344 -10 273 -10 c 0
 202 -10 146 14 104 62 c 0
428 76 m 0
 464 120 483 181 483 260 c 0
 483 339 464 400 428 444 c 0
 390 488 339 510 273 510 c 0
 207 510 156 488 118 444 c 0
 82 400 63 339 63 260 c 0
 63 181 82 120 118 76 c 0
 156 32 207 10 273 10 c 0
 339 10 390 32 428 76 c 0
EndSplineSet
EndChar

StartChar: oacute
Encoding: 243 243 308
Width: 546
Flags: W
LayerCount: 2
Fore
SplineSet
104 62 m 0
 64 110 43 176 43 260 c 0
 43 344 64 410 104 458 c 0
 146 506 202 530 273 530 c 0
 344 530 400 506 442 458 c 0
 482 410 503 344 503 260 c 0
 503 176 482 110 442 62 c 0
 400 14 344 -10 273 -10 c 0
 202 -10 146 14 104 62 c 0
428 76 m 0
 464 120 483 181 483 260 c 0
 483 339 464 400 428 444 c 0
 390 488 339 510 273 510 c 0
 207 510 156 488 118 444 c 0
 82 400 63 339 63 260 c 0
 63 181 82 120 118 76 c 0
 156 32 207 10 273 10 c 0
 339 10 390 32 428 76 c 0
224 560 m 1
 201 560 l 1
 322 770 l 1
 345 770 l 1
 224 560 l 1
EndSplineSet
EndChar

StartChar: obreve
Encoding: 335 335 309
Width: 546
Flags: W
LayerCount: 2
Fore
SplineSet
104 62 m 0
 64 110 43 176 43 260 c 0
 43 344 64 410 104 458 c 0
 146 506 202 530 273 530 c 0
 344 530 400 506 442 458 c 0
 482 410 503 344 503 260 c 0
 503 176 482 110 442 62 c 0
 400 14 344 -10 273 -10 c 0
 202 -10 146 14 104 62 c 0
428 76 m 0
 464 120 483 181 483 260 c 0
 483 339 464 400 428 444 c 0
 390 488 339 510 273 510 c 0
 207 510 156 488 118 444 c 0
 82 400 63 339 63 260 c 0
 63 181 82 120 118 76 c 0
 156 32 207 10 273 10 c 0
 339 10 390 32 428 76 c 0
166 628 m 0
 138 650 120 679 114 715 c 1
 134 715 l 1
 140 685 156 661 181 642 c 0
 206 624 237 615 273 615 c 0
 309 615 340 624 365 642 c 0
 390 661 406 685 412 715 c 1
 432 715 l 1
 426 679 408 650 380 628 c 0
 350 606 315 595 273 595 c 0
 231 595 196 606 166 628 c 0
EndSplineSet
EndChar

StartChar: ocircumflex
Encoding: 244 244 310
Width: 546
Flags: W
LayerCount: 2
Fore
SplineSet
104 62 m 0
 64 110 43 176 43 260 c 0
 43 344 64 410 104 458 c 0
 146 506 202 530 273 530 c 0
 344 530 400 506 442 458 c 0
 482 410 503 344 503 260 c 0
 503 176 482 110 442 62 c 0
 400 14 344 -10 273 -10 c 0
 202 -10 146 14 104 62 c 0
428 76 m 0
 464 120 483 181 483 260 c 0
 483 339 464 400 428 444 c 0
 390 488 339 510 273 510 c 0
 207 510 156 488 118 444 c 0
 82 400 63 339 63 260 c 0
 63 181 82 120 118 76 c 0
 156 32 207 10 273 10 c 0
 339 10 390 32 428 76 c 0
258 770 m 1
 288 770 l 1
 445 560 l 1
 420 560 l 1
 274 755 l 1
 272 755 l 1
 126 560 l 1
 101 560 l 1
 258 770 l 1
EndSplineSet
EndChar

StartChar: uni1ED1
Encoding: 7889 7889 311
Width: 546
Flags: W
LayerCount: 2
Fore
SplineSet
104 62 m 0
 64 110 43 176 43 260 c 0
 43 344 64 410 104 458 c 0
 146 506 202 530 273 530 c 0
 344 530 400 506 442 458 c 0
 482 410 503 344 503 260 c 0
 503 176 482 110 442 62 c 0
 400 14 344 -10 273 -10 c 0
 202 -10 146 14 104 62 c 0
428 76 m 0
 464 120 483 181 483 260 c 0
 483 339 464 400 428 444 c 0
 390 488 339 510 273 510 c 0
 207 510 156 488 118 444 c 0
 82 400 63 339 63 260 c 0
 63 181 82 120 118 76 c 0
 156 32 207 10 273 10 c 0
 339 10 390 32 428 76 c 0
258 770 m 1
 288 770 l 1
 445 560 l 1
 420 560 l 1
 274 755 l 1
 272 755 l 1
 126 560 l 1
 101 560 l 1
 258 770 l 1
368 740 m 1
 345 740 l 1
 466 950 l 1
 489 950 l 1
 368 740 l 1
EndSplineSet
EndChar

StartChar: uni1ED9
Encoding: 7897 7897 312
Width: 546
Flags: W
LayerCount: 2
Fore
SplineSet
104 62 m 0
 64 110 43 176 43 260 c 0
 43 344 64 410 104 458 c 0
 146 506 202 530 273 530 c 0
 344 530 400 506 442 458 c 0
 482 410 503 344 503 260 c 0
 503 176 482 110 442 62 c 0
 400 14 344 -10 273 -10 c 0
 202 -10 146 14 104 62 c 0
428 76 m 0
 464 120 483 181 483 260 c 0
 483 339 464 400 428 444 c 0
 390 488 339 510 273 510 c 0
 207 510 156 488 118 444 c 0
 82 400 63 339 63 260 c 0
 63 181 82 120 118 76 c 0
 156 32 207 10 273 10 c 0
 339 10 390 32 428 76 c 0
243 -115 m 1
 303 -115 l 1
 303 -175 l 1
 243 -175 l 1
 243 -115 l 1
258 770 m 1
 288 770 l 1
 445 560 l 1
 420 560 l 1
 274 755 l 1
 272 755 l 1
 126 560 l 1
 101 560 l 1
 258 770 l 1
EndSplineSet
EndChar

